%TF.GenerationSoftware,KiCad,Pcbnew,7.0.1*%
%TF.CreationDate,2023-03-26T09:27:21-05:00*%
%TF.ProjectId,Test,54657374-2e6b-4696-9361-645f70636258,rev?*%
%TF.SameCoordinates,Original*%
%TF.FileFunction,Legend,Top*%
%TF.FilePolarity,Positive*%
%FSLAX46Y46*%
G04 Gerber Fmt 4.6, Leading zero omitted, Abs format (unit mm)*
G04 Created by KiCad (PCBNEW 7.0.1) date 2023-03-26 09:27:21*
%MOMM*%
%LPD*%
G01*
G04 APERTURE LIST*
%ADD10C,0.100000*%
%ADD11C,0.150000*%
%ADD12C,0.300000*%
%ADD13C,0.400000*%
%ADD14C,0.254000*%
%ADD15C,0.120000*%
%ADD16C,0.200000*%
%TA.AperFunction,Profile*%
%ADD17C,0.100000*%
%TD*%
G04 APERTURE END LIST*
D10*
D11*
X159400000Y-171900000D02*
X267400000Y-171900000D01*
X267400000Y-203900000D01*
X159400000Y-203900000D01*
X159400000Y-171900000D01*
D10*
D11*
X10000000Y-10000000D02*
X269400000Y-10000000D01*
X269400000Y-205900000D01*
X10000000Y-205900000D01*
X10000000Y-10000000D01*
D10*
D11*
X12000000Y-12000000D02*
X267400000Y-12000000D01*
X267400000Y-203900000D01*
X12000000Y-203900000D01*
X12000000Y-12000000D01*
D10*
D11*
X60000000Y-12000000D02*
X60000000Y-10000000D01*
D10*
D11*
X110000000Y-12000000D02*
X110000000Y-10000000D01*
D10*
D11*
X160000000Y-12000000D02*
X160000000Y-10000000D01*
D10*
D11*
X210000000Y-12000000D02*
X210000000Y-10000000D01*
D10*
D11*
X260000000Y-12000000D02*
X260000000Y-10000000D01*
D10*
D11*
X35990476Y-11601404D02*
X35247619Y-11601404D01*
X35619047Y-11601404D02*
X35619047Y-10301404D01*
X35619047Y-10301404D02*
X35495238Y-10487119D01*
X35495238Y-10487119D02*
X35371428Y-10610928D01*
X35371428Y-10610928D02*
X35247619Y-10672833D01*
D10*
D11*
X85247619Y-10425214D02*
X85309523Y-10363309D01*
X85309523Y-10363309D02*
X85433333Y-10301404D01*
X85433333Y-10301404D02*
X85742857Y-10301404D01*
X85742857Y-10301404D02*
X85866666Y-10363309D01*
X85866666Y-10363309D02*
X85928571Y-10425214D01*
X85928571Y-10425214D02*
X85990476Y-10549023D01*
X85990476Y-10549023D02*
X85990476Y-10672833D01*
X85990476Y-10672833D02*
X85928571Y-10858547D01*
X85928571Y-10858547D02*
X85185714Y-11601404D01*
X85185714Y-11601404D02*
X85990476Y-11601404D01*
D10*
D11*
X135185714Y-10301404D02*
X135990476Y-10301404D01*
X135990476Y-10301404D02*
X135557142Y-10796642D01*
X135557142Y-10796642D02*
X135742857Y-10796642D01*
X135742857Y-10796642D02*
X135866666Y-10858547D01*
X135866666Y-10858547D02*
X135928571Y-10920452D01*
X135928571Y-10920452D02*
X135990476Y-11044261D01*
X135990476Y-11044261D02*
X135990476Y-11353785D01*
X135990476Y-11353785D02*
X135928571Y-11477595D01*
X135928571Y-11477595D02*
X135866666Y-11539500D01*
X135866666Y-11539500D02*
X135742857Y-11601404D01*
X135742857Y-11601404D02*
X135371428Y-11601404D01*
X135371428Y-11601404D02*
X135247619Y-11539500D01*
X135247619Y-11539500D02*
X135185714Y-11477595D01*
D10*
D11*
X185866666Y-10734738D02*
X185866666Y-11601404D01*
X185557142Y-10239500D02*
X185247619Y-11168071D01*
X185247619Y-11168071D02*
X186052380Y-11168071D01*
D10*
D11*
X235928571Y-10301404D02*
X235309523Y-10301404D01*
X235309523Y-10301404D02*
X235247619Y-10920452D01*
X235247619Y-10920452D02*
X235309523Y-10858547D01*
X235309523Y-10858547D02*
X235433333Y-10796642D01*
X235433333Y-10796642D02*
X235742857Y-10796642D01*
X235742857Y-10796642D02*
X235866666Y-10858547D01*
X235866666Y-10858547D02*
X235928571Y-10920452D01*
X235928571Y-10920452D02*
X235990476Y-11044261D01*
X235990476Y-11044261D02*
X235990476Y-11353785D01*
X235990476Y-11353785D02*
X235928571Y-11477595D01*
X235928571Y-11477595D02*
X235866666Y-11539500D01*
X235866666Y-11539500D02*
X235742857Y-11601404D01*
X235742857Y-11601404D02*
X235433333Y-11601404D01*
X235433333Y-11601404D02*
X235309523Y-11539500D01*
X235309523Y-11539500D02*
X235247619Y-11477595D01*
D10*
D11*
X60000000Y-203900000D02*
X60000000Y-205900000D01*
D10*
D11*
X110000000Y-203900000D02*
X110000000Y-205900000D01*
D10*
D11*
X160000000Y-203900000D02*
X160000000Y-205900000D01*
D10*
D11*
X210000000Y-203900000D02*
X210000000Y-205900000D01*
D10*
D11*
X260000000Y-203900000D02*
X260000000Y-205900000D01*
D10*
D11*
X35990476Y-205501404D02*
X35247619Y-205501404D01*
X35619047Y-205501404D02*
X35619047Y-204201404D01*
X35619047Y-204201404D02*
X35495238Y-204387119D01*
X35495238Y-204387119D02*
X35371428Y-204510928D01*
X35371428Y-204510928D02*
X35247619Y-204572833D01*
D10*
D11*
X85247619Y-204325214D02*
X85309523Y-204263309D01*
X85309523Y-204263309D02*
X85433333Y-204201404D01*
X85433333Y-204201404D02*
X85742857Y-204201404D01*
X85742857Y-204201404D02*
X85866666Y-204263309D01*
X85866666Y-204263309D02*
X85928571Y-204325214D01*
X85928571Y-204325214D02*
X85990476Y-204449023D01*
X85990476Y-204449023D02*
X85990476Y-204572833D01*
X85990476Y-204572833D02*
X85928571Y-204758547D01*
X85928571Y-204758547D02*
X85185714Y-205501404D01*
X85185714Y-205501404D02*
X85990476Y-205501404D01*
D10*
D11*
X135185714Y-204201404D02*
X135990476Y-204201404D01*
X135990476Y-204201404D02*
X135557142Y-204696642D01*
X135557142Y-204696642D02*
X135742857Y-204696642D01*
X135742857Y-204696642D02*
X135866666Y-204758547D01*
X135866666Y-204758547D02*
X135928571Y-204820452D01*
X135928571Y-204820452D02*
X135990476Y-204944261D01*
X135990476Y-204944261D02*
X135990476Y-205253785D01*
X135990476Y-205253785D02*
X135928571Y-205377595D01*
X135928571Y-205377595D02*
X135866666Y-205439500D01*
X135866666Y-205439500D02*
X135742857Y-205501404D01*
X135742857Y-205501404D02*
X135371428Y-205501404D01*
X135371428Y-205501404D02*
X135247619Y-205439500D01*
X135247619Y-205439500D02*
X135185714Y-205377595D01*
D10*
D11*
X185866666Y-204634738D02*
X185866666Y-205501404D01*
X185557142Y-204139500D02*
X185247619Y-205068071D01*
X185247619Y-205068071D02*
X186052380Y-205068071D01*
D10*
D11*
X235928571Y-204201404D02*
X235309523Y-204201404D01*
X235309523Y-204201404D02*
X235247619Y-204820452D01*
X235247619Y-204820452D02*
X235309523Y-204758547D01*
X235309523Y-204758547D02*
X235433333Y-204696642D01*
X235433333Y-204696642D02*
X235742857Y-204696642D01*
X235742857Y-204696642D02*
X235866666Y-204758547D01*
X235866666Y-204758547D02*
X235928571Y-204820452D01*
X235928571Y-204820452D02*
X235990476Y-204944261D01*
X235990476Y-204944261D02*
X235990476Y-205253785D01*
X235990476Y-205253785D02*
X235928571Y-205377595D01*
X235928571Y-205377595D02*
X235866666Y-205439500D01*
X235866666Y-205439500D02*
X235742857Y-205501404D01*
X235742857Y-205501404D02*
X235433333Y-205501404D01*
X235433333Y-205501404D02*
X235309523Y-205439500D01*
X235309523Y-205439500D02*
X235247619Y-205377595D01*
D10*
D11*
X10000000Y-60000000D02*
X12000000Y-60000000D01*
D10*
D11*
X10000000Y-110000000D02*
X12000000Y-110000000D01*
D10*
D11*
X10000000Y-160000000D02*
X12000000Y-160000000D01*
D10*
D11*
X10690476Y-35229976D02*
X11309523Y-35229976D01*
X10566666Y-35601404D02*
X10999999Y-34301404D01*
X10999999Y-34301404D02*
X11433333Y-35601404D01*
D10*
D11*
X11092857Y-84920452D02*
X11278571Y-84982357D01*
X11278571Y-84982357D02*
X11340476Y-85044261D01*
X11340476Y-85044261D02*
X11402380Y-85168071D01*
X11402380Y-85168071D02*
X11402380Y-85353785D01*
X11402380Y-85353785D02*
X11340476Y-85477595D01*
X11340476Y-85477595D02*
X11278571Y-85539500D01*
X11278571Y-85539500D02*
X11154761Y-85601404D01*
X11154761Y-85601404D02*
X10659523Y-85601404D01*
X10659523Y-85601404D02*
X10659523Y-84301404D01*
X10659523Y-84301404D02*
X11092857Y-84301404D01*
X11092857Y-84301404D02*
X11216666Y-84363309D01*
X11216666Y-84363309D02*
X11278571Y-84425214D01*
X11278571Y-84425214D02*
X11340476Y-84549023D01*
X11340476Y-84549023D02*
X11340476Y-84672833D01*
X11340476Y-84672833D02*
X11278571Y-84796642D01*
X11278571Y-84796642D02*
X11216666Y-84858547D01*
X11216666Y-84858547D02*
X11092857Y-84920452D01*
X11092857Y-84920452D02*
X10659523Y-84920452D01*
D10*
D11*
X11402380Y-135477595D02*
X11340476Y-135539500D01*
X11340476Y-135539500D02*
X11154761Y-135601404D01*
X11154761Y-135601404D02*
X11030952Y-135601404D01*
X11030952Y-135601404D02*
X10845238Y-135539500D01*
X10845238Y-135539500D02*
X10721428Y-135415690D01*
X10721428Y-135415690D02*
X10659523Y-135291880D01*
X10659523Y-135291880D02*
X10597619Y-135044261D01*
X10597619Y-135044261D02*
X10597619Y-134858547D01*
X10597619Y-134858547D02*
X10659523Y-134610928D01*
X10659523Y-134610928D02*
X10721428Y-134487119D01*
X10721428Y-134487119D02*
X10845238Y-134363309D01*
X10845238Y-134363309D02*
X11030952Y-134301404D01*
X11030952Y-134301404D02*
X11154761Y-134301404D01*
X11154761Y-134301404D02*
X11340476Y-134363309D01*
X11340476Y-134363309D02*
X11402380Y-134425214D01*
D10*
D11*
X10659523Y-185601404D02*
X10659523Y-184301404D01*
X10659523Y-184301404D02*
X10969047Y-184301404D01*
X10969047Y-184301404D02*
X11154761Y-184363309D01*
X11154761Y-184363309D02*
X11278571Y-184487119D01*
X11278571Y-184487119D02*
X11340476Y-184610928D01*
X11340476Y-184610928D02*
X11402380Y-184858547D01*
X11402380Y-184858547D02*
X11402380Y-185044261D01*
X11402380Y-185044261D02*
X11340476Y-185291880D01*
X11340476Y-185291880D02*
X11278571Y-185415690D01*
X11278571Y-185415690D02*
X11154761Y-185539500D01*
X11154761Y-185539500D02*
X10969047Y-185601404D01*
X10969047Y-185601404D02*
X10659523Y-185601404D01*
D10*
D11*
X269400000Y-60000000D02*
X267400000Y-60000000D01*
D10*
D11*
X269400000Y-110000000D02*
X267400000Y-110000000D01*
D10*
D11*
X269400000Y-160000000D02*
X267400000Y-160000000D01*
D10*
D11*
X268090476Y-35229976D02*
X268709523Y-35229976D01*
X267966666Y-35601404D02*
X268399999Y-34301404D01*
X268399999Y-34301404D02*
X268833333Y-35601404D01*
D10*
D11*
X268492857Y-84920452D02*
X268678571Y-84982357D01*
X268678571Y-84982357D02*
X268740476Y-85044261D01*
X268740476Y-85044261D02*
X268802380Y-85168071D01*
X268802380Y-85168071D02*
X268802380Y-85353785D01*
X268802380Y-85353785D02*
X268740476Y-85477595D01*
X268740476Y-85477595D02*
X268678571Y-85539500D01*
X268678571Y-85539500D02*
X268554761Y-85601404D01*
X268554761Y-85601404D02*
X268059523Y-85601404D01*
X268059523Y-85601404D02*
X268059523Y-84301404D01*
X268059523Y-84301404D02*
X268492857Y-84301404D01*
X268492857Y-84301404D02*
X268616666Y-84363309D01*
X268616666Y-84363309D02*
X268678571Y-84425214D01*
X268678571Y-84425214D02*
X268740476Y-84549023D01*
X268740476Y-84549023D02*
X268740476Y-84672833D01*
X268740476Y-84672833D02*
X268678571Y-84796642D01*
X268678571Y-84796642D02*
X268616666Y-84858547D01*
X268616666Y-84858547D02*
X268492857Y-84920452D01*
X268492857Y-84920452D02*
X268059523Y-84920452D01*
D10*
D11*
X268802380Y-135477595D02*
X268740476Y-135539500D01*
X268740476Y-135539500D02*
X268554761Y-135601404D01*
X268554761Y-135601404D02*
X268430952Y-135601404D01*
X268430952Y-135601404D02*
X268245238Y-135539500D01*
X268245238Y-135539500D02*
X268121428Y-135415690D01*
X268121428Y-135415690D02*
X268059523Y-135291880D01*
X268059523Y-135291880D02*
X267997619Y-135044261D01*
X267997619Y-135044261D02*
X267997619Y-134858547D01*
X267997619Y-134858547D02*
X268059523Y-134610928D01*
X268059523Y-134610928D02*
X268121428Y-134487119D01*
X268121428Y-134487119D02*
X268245238Y-134363309D01*
X268245238Y-134363309D02*
X268430952Y-134301404D01*
X268430952Y-134301404D02*
X268554761Y-134301404D01*
X268554761Y-134301404D02*
X268740476Y-134363309D01*
X268740476Y-134363309D02*
X268802380Y-134425214D01*
D10*
D11*
X268059523Y-185601404D02*
X268059523Y-184301404D01*
X268059523Y-184301404D02*
X268369047Y-184301404D01*
X268369047Y-184301404D02*
X268554761Y-184363309D01*
X268554761Y-184363309D02*
X268678571Y-184487119D01*
X268678571Y-184487119D02*
X268740476Y-184610928D01*
X268740476Y-184610928D02*
X268802380Y-184858547D01*
X268802380Y-184858547D02*
X268802380Y-185044261D01*
X268802380Y-185044261D02*
X268740476Y-185291880D01*
X268740476Y-185291880D02*
X268678571Y-185415690D01*
X268678571Y-185415690D02*
X268554761Y-185539500D01*
X268554761Y-185539500D02*
X268369047Y-185601404D01*
X268369047Y-185601404D02*
X268059523Y-185601404D01*
D10*
D11*
X182757142Y-199693928D02*
X182757142Y-198193928D01*
X182757142Y-198193928D02*
X183114285Y-198193928D01*
X183114285Y-198193928D02*
X183328571Y-198265357D01*
X183328571Y-198265357D02*
X183471428Y-198408214D01*
X183471428Y-198408214D02*
X183542857Y-198551071D01*
X183542857Y-198551071D02*
X183614285Y-198836785D01*
X183614285Y-198836785D02*
X183614285Y-199051071D01*
X183614285Y-199051071D02*
X183542857Y-199336785D01*
X183542857Y-199336785D02*
X183471428Y-199479642D01*
X183471428Y-199479642D02*
X183328571Y-199622500D01*
X183328571Y-199622500D02*
X183114285Y-199693928D01*
X183114285Y-199693928D02*
X182757142Y-199693928D01*
X184900000Y-199693928D02*
X184900000Y-198908214D01*
X184900000Y-198908214D02*
X184828571Y-198765357D01*
X184828571Y-198765357D02*
X184685714Y-198693928D01*
X184685714Y-198693928D02*
X184400000Y-198693928D01*
X184400000Y-198693928D02*
X184257142Y-198765357D01*
X184900000Y-199622500D02*
X184757142Y-199693928D01*
X184757142Y-199693928D02*
X184400000Y-199693928D01*
X184400000Y-199693928D02*
X184257142Y-199622500D01*
X184257142Y-199622500D02*
X184185714Y-199479642D01*
X184185714Y-199479642D02*
X184185714Y-199336785D01*
X184185714Y-199336785D02*
X184257142Y-199193928D01*
X184257142Y-199193928D02*
X184400000Y-199122500D01*
X184400000Y-199122500D02*
X184757142Y-199122500D01*
X184757142Y-199122500D02*
X184900000Y-199051071D01*
X185400000Y-198693928D02*
X185971428Y-198693928D01*
X185614285Y-198193928D02*
X185614285Y-199479642D01*
X185614285Y-199479642D02*
X185685714Y-199622500D01*
X185685714Y-199622500D02*
X185828571Y-199693928D01*
X185828571Y-199693928D02*
X185971428Y-199693928D01*
X187042857Y-199622500D02*
X186900000Y-199693928D01*
X186900000Y-199693928D02*
X186614286Y-199693928D01*
X186614286Y-199693928D02*
X186471428Y-199622500D01*
X186471428Y-199622500D02*
X186400000Y-199479642D01*
X186400000Y-199479642D02*
X186400000Y-198908214D01*
X186400000Y-198908214D02*
X186471428Y-198765357D01*
X186471428Y-198765357D02*
X186614286Y-198693928D01*
X186614286Y-198693928D02*
X186900000Y-198693928D01*
X186900000Y-198693928D02*
X187042857Y-198765357D01*
X187042857Y-198765357D02*
X187114286Y-198908214D01*
X187114286Y-198908214D02*
X187114286Y-199051071D01*
X187114286Y-199051071D02*
X186400000Y-199193928D01*
X187757142Y-199551071D02*
X187828571Y-199622500D01*
X187828571Y-199622500D02*
X187757142Y-199693928D01*
X187757142Y-199693928D02*
X187685714Y-199622500D01*
X187685714Y-199622500D02*
X187757142Y-199551071D01*
X187757142Y-199551071D02*
X187757142Y-199693928D01*
X187757142Y-198765357D02*
X187828571Y-198836785D01*
X187828571Y-198836785D02*
X187757142Y-198908214D01*
X187757142Y-198908214D02*
X187685714Y-198836785D01*
X187685714Y-198836785D02*
X187757142Y-198765357D01*
X187757142Y-198765357D02*
X187757142Y-198908214D01*
D10*
D11*
X159400000Y-200400000D02*
X267400000Y-200400000D01*
D10*
D11*
X160757142Y-202493928D02*
X160757142Y-200993928D01*
X161614285Y-202493928D02*
X160971428Y-201636785D01*
X161614285Y-200993928D02*
X160757142Y-201851071D01*
X162257142Y-202493928D02*
X162257142Y-201493928D01*
X162257142Y-200993928D02*
X162185714Y-201065357D01*
X162185714Y-201065357D02*
X162257142Y-201136785D01*
X162257142Y-201136785D02*
X162328571Y-201065357D01*
X162328571Y-201065357D02*
X162257142Y-200993928D01*
X162257142Y-200993928D02*
X162257142Y-201136785D01*
X163828571Y-202351071D02*
X163757143Y-202422500D01*
X163757143Y-202422500D02*
X163542857Y-202493928D01*
X163542857Y-202493928D02*
X163400000Y-202493928D01*
X163400000Y-202493928D02*
X163185714Y-202422500D01*
X163185714Y-202422500D02*
X163042857Y-202279642D01*
X163042857Y-202279642D02*
X162971428Y-202136785D01*
X162971428Y-202136785D02*
X162900000Y-201851071D01*
X162900000Y-201851071D02*
X162900000Y-201636785D01*
X162900000Y-201636785D02*
X162971428Y-201351071D01*
X162971428Y-201351071D02*
X163042857Y-201208214D01*
X163042857Y-201208214D02*
X163185714Y-201065357D01*
X163185714Y-201065357D02*
X163400000Y-200993928D01*
X163400000Y-200993928D02*
X163542857Y-200993928D01*
X163542857Y-200993928D02*
X163757143Y-201065357D01*
X163757143Y-201065357D02*
X163828571Y-201136785D01*
X165114286Y-202493928D02*
X165114286Y-201708214D01*
X165114286Y-201708214D02*
X165042857Y-201565357D01*
X165042857Y-201565357D02*
X164900000Y-201493928D01*
X164900000Y-201493928D02*
X164614286Y-201493928D01*
X164614286Y-201493928D02*
X164471428Y-201565357D01*
X165114286Y-202422500D02*
X164971428Y-202493928D01*
X164971428Y-202493928D02*
X164614286Y-202493928D01*
X164614286Y-202493928D02*
X164471428Y-202422500D01*
X164471428Y-202422500D02*
X164400000Y-202279642D01*
X164400000Y-202279642D02*
X164400000Y-202136785D01*
X164400000Y-202136785D02*
X164471428Y-201993928D01*
X164471428Y-201993928D02*
X164614286Y-201922500D01*
X164614286Y-201922500D02*
X164971428Y-201922500D01*
X164971428Y-201922500D02*
X165114286Y-201851071D01*
X166471429Y-202493928D02*
X166471429Y-200993928D01*
X166471429Y-202422500D02*
X166328571Y-202493928D01*
X166328571Y-202493928D02*
X166042857Y-202493928D01*
X166042857Y-202493928D02*
X165900000Y-202422500D01*
X165900000Y-202422500D02*
X165828571Y-202351071D01*
X165828571Y-202351071D02*
X165757143Y-202208214D01*
X165757143Y-202208214D02*
X165757143Y-201779642D01*
X165757143Y-201779642D02*
X165828571Y-201636785D01*
X165828571Y-201636785D02*
X165900000Y-201565357D01*
X165900000Y-201565357D02*
X166042857Y-201493928D01*
X166042857Y-201493928D02*
X166328571Y-201493928D01*
X166328571Y-201493928D02*
X166471429Y-201565357D01*
X168328571Y-201708214D02*
X168828571Y-201708214D01*
X169042857Y-202493928D02*
X168328571Y-202493928D01*
X168328571Y-202493928D02*
X168328571Y-200993928D01*
X168328571Y-200993928D02*
X169042857Y-200993928D01*
X169685714Y-202351071D02*
X169757143Y-202422500D01*
X169757143Y-202422500D02*
X169685714Y-202493928D01*
X169685714Y-202493928D02*
X169614286Y-202422500D01*
X169614286Y-202422500D02*
X169685714Y-202351071D01*
X169685714Y-202351071D02*
X169685714Y-202493928D01*
X170400000Y-202493928D02*
X170400000Y-200993928D01*
X170400000Y-200993928D02*
X170757143Y-200993928D01*
X170757143Y-200993928D02*
X170971429Y-201065357D01*
X170971429Y-201065357D02*
X171114286Y-201208214D01*
X171114286Y-201208214D02*
X171185715Y-201351071D01*
X171185715Y-201351071D02*
X171257143Y-201636785D01*
X171257143Y-201636785D02*
X171257143Y-201851071D01*
X171257143Y-201851071D02*
X171185715Y-202136785D01*
X171185715Y-202136785D02*
X171114286Y-202279642D01*
X171114286Y-202279642D02*
X170971429Y-202422500D01*
X170971429Y-202422500D02*
X170757143Y-202493928D01*
X170757143Y-202493928D02*
X170400000Y-202493928D01*
X171900000Y-202351071D02*
X171971429Y-202422500D01*
X171971429Y-202422500D02*
X171900000Y-202493928D01*
X171900000Y-202493928D02*
X171828572Y-202422500D01*
X171828572Y-202422500D02*
X171900000Y-202351071D01*
X171900000Y-202351071D02*
X171900000Y-202493928D01*
X172542858Y-202065357D02*
X173257144Y-202065357D01*
X172400001Y-202493928D02*
X172900001Y-200993928D01*
X172900001Y-200993928D02*
X173400001Y-202493928D01*
X173900000Y-202351071D02*
X173971429Y-202422500D01*
X173971429Y-202422500D02*
X173900000Y-202493928D01*
X173900000Y-202493928D02*
X173828572Y-202422500D01*
X173828572Y-202422500D02*
X173900000Y-202351071D01*
X173900000Y-202351071D02*
X173900000Y-202493928D01*
X176900000Y-202493928D02*
X176900000Y-200993928D01*
X177042858Y-201922500D02*
X177471429Y-202493928D01*
X177471429Y-201493928D02*
X176900000Y-202065357D01*
X178114286Y-202493928D02*
X178114286Y-201493928D01*
X178114286Y-200993928D02*
X178042858Y-201065357D01*
X178042858Y-201065357D02*
X178114286Y-201136785D01*
X178114286Y-201136785D02*
X178185715Y-201065357D01*
X178185715Y-201065357D02*
X178114286Y-200993928D01*
X178114286Y-200993928D02*
X178114286Y-201136785D01*
X179471430Y-202422500D02*
X179328572Y-202493928D01*
X179328572Y-202493928D02*
X179042858Y-202493928D01*
X179042858Y-202493928D02*
X178900001Y-202422500D01*
X178900001Y-202422500D02*
X178828572Y-202351071D01*
X178828572Y-202351071D02*
X178757144Y-202208214D01*
X178757144Y-202208214D02*
X178757144Y-201779642D01*
X178757144Y-201779642D02*
X178828572Y-201636785D01*
X178828572Y-201636785D02*
X178900001Y-201565357D01*
X178900001Y-201565357D02*
X179042858Y-201493928D01*
X179042858Y-201493928D02*
X179328572Y-201493928D01*
X179328572Y-201493928D02*
X179471430Y-201565357D01*
X180757144Y-202493928D02*
X180757144Y-201708214D01*
X180757144Y-201708214D02*
X180685715Y-201565357D01*
X180685715Y-201565357D02*
X180542858Y-201493928D01*
X180542858Y-201493928D02*
X180257144Y-201493928D01*
X180257144Y-201493928D02*
X180114286Y-201565357D01*
X180757144Y-202422500D02*
X180614286Y-202493928D01*
X180614286Y-202493928D02*
X180257144Y-202493928D01*
X180257144Y-202493928D02*
X180114286Y-202422500D01*
X180114286Y-202422500D02*
X180042858Y-202279642D01*
X180042858Y-202279642D02*
X180042858Y-202136785D01*
X180042858Y-202136785D02*
X180114286Y-201993928D01*
X180114286Y-201993928D02*
X180257144Y-201922500D01*
X180257144Y-201922500D02*
X180614286Y-201922500D01*
X180614286Y-201922500D02*
X180757144Y-201851071D01*
X182114287Y-202493928D02*
X182114287Y-200993928D01*
X182114287Y-202422500D02*
X181971429Y-202493928D01*
X181971429Y-202493928D02*
X181685715Y-202493928D01*
X181685715Y-202493928D02*
X181542858Y-202422500D01*
X181542858Y-202422500D02*
X181471429Y-202351071D01*
X181471429Y-202351071D02*
X181400001Y-202208214D01*
X181400001Y-202208214D02*
X181400001Y-201779642D01*
X181400001Y-201779642D02*
X181471429Y-201636785D01*
X181471429Y-201636785D02*
X181542858Y-201565357D01*
X181542858Y-201565357D02*
X181685715Y-201493928D01*
X181685715Y-201493928D02*
X181971429Y-201493928D01*
X181971429Y-201493928D02*
X182114287Y-201565357D01*
X183828572Y-200993928D02*
X184828572Y-200993928D01*
X184828572Y-200993928D02*
X184185715Y-202493928D01*
X185400000Y-202351071D02*
X185471429Y-202422500D01*
X185471429Y-202422500D02*
X185400000Y-202493928D01*
X185400000Y-202493928D02*
X185328572Y-202422500D01*
X185328572Y-202422500D02*
X185400000Y-202351071D01*
X185400000Y-202351071D02*
X185400000Y-202493928D01*
X186400001Y-200993928D02*
X186542858Y-200993928D01*
X186542858Y-200993928D02*
X186685715Y-201065357D01*
X186685715Y-201065357D02*
X186757144Y-201136785D01*
X186757144Y-201136785D02*
X186828572Y-201279642D01*
X186828572Y-201279642D02*
X186900001Y-201565357D01*
X186900001Y-201565357D02*
X186900001Y-201922500D01*
X186900001Y-201922500D02*
X186828572Y-202208214D01*
X186828572Y-202208214D02*
X186757144Y-202351071D01*
X186757144Y-202351071D02*
X186685715Y-202422500D01*
X186685715Y-202422500D02*
X186542858Y-202493928D01*
X186542858Y-202493928D02*
X186400001Y-202493928D01*
X186400001Y-202493928D02*
X186257144Y-202422500D01*
X186257144Y-202422500D02*
X186185715Y-202351071D01*
X186185715Y-202351071D02*
X186114286Y-202208214D01*
X186114286Y-202208214D02*
X186042858Y-201922500D01*
X186042858Y-201922500D02*
X186042858Y-201565357D01*
X186042858Y-201565357D02*
X186114286Y-201279642D01*
X186114286Y-201279642D02*
X186185715Y-201136785D01*
X186185715Y-201136785D02*
X186257144Y-201065357D01*
X186257144Y-201065357D02*
X186400001Y-200993928D01*
X187542857Y-202351071D02*
X187614286Y-202422500D01*
X187614286Y-202422500D02*
X187542857Y-202493928D01*
X187542857Y-202493928D02*
X187471429Y-202422500D01*
X187471429Y-202422500D02*
X187542857Y-202351071D01*
X187542857Y-202351071D02*
X187542857Y-202493928D01*
X189042858Y-202493928D02*
X188185715Y-202493928D01*
X188614286Y-202493928D02*
X188614286Y-200993928D01*
X188614286Y-200993928D02*
X188471429Y-201208214D01*
X188471429Y-201208214D02*
X188328572Y-201351071D01*
X188328572Y-201351071D02*
X188185715Y-201422500D01*
D10*
D11*
X159400000Y-197400000D02*
X267400000Y-197400000D01*
D10*
D12*
X246614285Y-199693928D02*
X246114285Y-198979642D01*
X245757142Y-199693928D02*
X245757142Y-198193928D01*
X245757142Y-198193928D02*
X246328571Y-198193928D01*
X246328571Y-198193928D02*
X246471428Y-198265357D01*
X246471428Y-198265357D02*
X246542857Y-198336785D01*
X246542857Y-198336785D02*
X246614285Y-198479642D01*
X246614285Y-198479642D02*
X246614285Y-198693928D01*
X246614285Y-198693928D02*
X246542857Y-198836785D01*
X246542857Y-198836785D02*
X246471428Y-198908214D01*
X246471428Y-198908214D02*
X246328571Y-198979642D01*
X246328571Y-198979642D02*
X245757142Y-198979642D01*
X247828571Y-199622500D02*
X247685714Y-199693928D01*
X247685714Y-199693928D02*
X247400000Y-199693928D01*
X247400000Y-199693928D02*
X247257142Y-199622500D01*
X247257142Y-199622500D02*
X247185714Y-199479642D01*
X247185714Y-199479642D02*
X247185714Y-198908214D01*
X247185714Y-198908214D02*
X247257142Y-198765357D01*
X247257142Y-198765357D02*
X247400000Y-198693928D01*
X247400000Y-198693928D02*
X247685714Y-198693928D01*
X247685714Y-198693928D02*
X247828571Y-198765357D01*
X247828571Y-198765357D02*
X247900000Y-198908214D01*
X247900000Y-198908214D02*
X247900000Y-199051071D01*
X247900000Y-199051071D02*
X247185714Y-199193928D01*
X248399999Y-198693928D02*
X248757142Y-199693928D01*
X248757142Y-199693928D02*
X249114285Y-198693928D01*
X249685713Y-199551071D02*
X249757142Y-199622500D01*
X249757142Y-199622500D02*
X249685713Y-199693928D01*
X249685713Y-199693928D02*
X249614285Y-199622500D01*
X249614285Y-199622500D02*
X249685713Y-199551071D01*
X249685713Y-199551071D02*
X249685713Y-199693928D01*
X249685713Y-198765357D02*
X249757142Y-198836785D01*
X249757142Y-198836785D02*
X249685713Y-198908214D01*
X249685713Y-198908214D02*
X249614285Y-198836785D01*
X249614285Y-198836785D02*
X249685713Y-198765357D01*
X249685713Y-198765357D02*
X249685713Y-198908214D01*
D10*
D11*
X160685714Y-199622500D02*
X160900000Y-199693928D01*
X160900000Y-199693928D02*
X161257142Y-199693928D01*
X161257142Y-199693928D02*
X161400000Y-199622500D01*
X161400000Y-199622500D02*
X161471428Y-199551071D01*
X161471428Y-199551071D02*
X161542857Y-199408214D01*
X161542857Y-199408214D02*
X161542857Y-199265357D01*
X161542857Y-199265357D02*
X161471428Y-199122500D01*
X161471428Y-199122500D02*
X161400000Y-199051071D01*
X161400000Y-199051071D02*
X161257142Y-198979642D01*
X161257142Y-198979642D02*
X160971428Y-198908214D01*
X160971428Y-198908214D02*
X160828571Y-198836785D01*
X160828571Y-198836785D02*
X160757142Y-198765357D01*
X160757142Y-198765357D02*
X160685714Y-198622500D01*
X160685714Y-198622500D02*
X160685714Y-198479642D01*
X160685714Y-198479642D02*
X160757142Y-198336785D01*
X160757142Y-198336785D02*
X160828571Y-198265357D01*
X160828571Y-198265357D02*
X160971428Y-198193928D01*
X160971428Y-198193928D02*
X161328571Y-198193928D01*
X161328571Y-198193928D02*
X161542857Y-198265357D01*
X162185713Y-199693928D02*
X162185713Y-198693928D01*
X162185713Y-198193928D02*
X162114285Y-198265357D01*
X162114285Y-198265357D02*
X162185713Y-198336785D01*
X162185713Y-198336785D02*
X162257142Y-198265357D01*
X162257142Y-198265357D02*
X162185713Y-198193928D01*
X162185713Y-198193928D02*
X162185713Y-198336785D01*
X162757142Y-198693928D02*
X163542857Y-198693928D01*
X163542857Y-198693928D02*
X162757142Y-199693928D01*
X162757142Y-199693928D02*
X163542857Y-199693928D01*
X164685714Y-199622500D02*
X164542857Y-199693928D01*
X164542857Y-199693928D02*
X164257143Y-199693928D01*
X164257143Y-199693928D02*
X164114285Y-199622500D01*
X164114285Y-199622500D02*
X164042857Y-199479642D01*
X164042857Y-199479642D02*
X164042857Y-198908214D01*
X164042857Y-198908214D02*
X164114285Y-198765357D01*
X164114285Y-198765357D02*
X164257143Y-198693928D01*
X164257143Y-198693928D02*
X164542857Y-198693928D01*
X164542857Y-198693928D02*
X164685714Y-198765357D01*
X164685714Y-198765357D02*
X164757143Y-198908214D01*
X164757143Y-198908214D02*
X164757143Y-199051071D01*
X164757143Y-199051071D02*
X164042857Y-199193928D01*
X165399999Y-199551071D02*
X165471428Y-199622500D01*
X165471428Y-199622500D02*
X165399999Y-199693928D01*
X165399999Y-199693928D02*
X165328571Y-199622500D01*
X165328571Y-199622500D02*
X165399999Y-199551071D01*
X165399999Y-199551071D02*
X165399999Y-199693928D01*
X165399999Y-198765357D02*
X165471428Y-198836785D01*
X165471428Y-198836785D02*
X165399999Y-198908214D01*
X165399999Y-198908214D02*
X165328571Y-198836785D01*
X165328571Y-198836785D02*
X165399999Y-198765357D01*
X165399999Y-198765357D02*
X165399999Y-198908214D01*
X167185714Y-199265357D02*
X167900000Y-199265357D01*
X167042857Y-199693928D02*
X167542857Y-198193928D01*
X167542857Y-198193928D02*
X168042857Y-199693928D01*
D10*
D11*
X245757142Y-202493928D02*
X245757142Y-200993928D01*
X247114286Y-202493928D02*
X247114286Y-200993928D01*
X247114286Y-202422500D02*
X246971428Y-202493928D01*
X246971428Y-202493928D02*
X246685714Y-202493928D01*
X246685714Y-202493928D02*
X246542857Y-202422500D01*
X246542857Y-202422500D02*
X246471428Y-202351071D01*
X246471428Y-202351071D02*
X246400000Y-202208214D01*
X246400000Y-202208214D02*
X246400000Y-201779642D01*
X246400000Y-201779642D02*
X246471428Y-201636785D01*
X246471428Y-201636785D02*
X246542857Y-201565357D01*
X246542857Y-201565357D02*
X246685714Y-201493928D01*
X246685714Y-201493928D02*
X246971428Y-201493928D01*
X246971428Y-201493928D02*
X247114286Y-201565357D01*
X247828571Y-202351071D02*
X247900000Y-202422500D01*
X247900000Y-202422500D02*
X247828571Y-202493928D01*
X247828571Y-202493928D02*
X247757143Y-202422500D01*
X247757143Y-202422500D02*
X247828571Y-202351071D01*
X247828571Y-202351071D02*
X247828571Y-202493928D01*
X247828571Y-201565357D02*
X247900000Y-201636785D01*
X247900000Y-201636785D02*
X247828571Y-201708214D01*
X247828571Y-201708214D02*
X247757143Y-201636785D01*
X247757143Y-201636785D02*
X247828571Y-201565357D01*
X247828571Y-201565357D02*
X247828571Y-201708214D01*
X250471429Y-202493928D02*
X249614286Y-202493928D01*
X250042857Y-202493928D02*
X250042857Y-200993928D01*
X250042857Y-200993928D02*
X249900000Y-201208214D01*
X249900000Y-201208214D02*
X249757143Y-201351071D01*
X249757143Y-201351071D02*
X249614286Y-201422500D01*
X252185714Y-200922500D02*
X250900000Y-202851071D01*
X253471429Y-202493928D02*
X252614286Y-202493928D01*
X253042857Y-202493928D02*
X253042857Y-200993928D01*
X253042857Y-200993928D02*
X252900000Y-201208214D01*
X252900000Y-201208214D02*
X252757143Y-201351071D01*
X252757143Y-201351071D02*
X252614286Y-201422500D01*
D10*
D11*
X159400000Y-193400000D02*
X267400000Y-193400000D01*
D10*
D13*
X160828571Y-194125238D02*
X161971428Y-194125238D01*
X161150000Y-196125238D02*
X161400000Y-194125238D01*
X162376190Y-196125238D02*
X162542857Y-194791904D01*
X162626190Y-194125238D02*
X162519047Y-194220476D01*
X162519047Y-194220476D02*
X162602381Y-194315714D01*
X162602381Y-194315714D02*
X162709524Y-194220476D01*
X162709524Y-194220476D02*
X162626190Y-194125238D01*
X162626190Y-194125238D02*
X162602381Y-194315714D01*
X163197619Y-194791904D02*
X163959523Y-194791904D01*
X163566666Y-194125238D02*
X163352381Y-195839523D01*
X163352381Y-195839523D02*
X163423809Y-196030000D01*
X163423809Y-196030000D02*
X163602381Y-196125238D01*
X163602381Y-196125238D02*
X163792857Y-196125238D01*
X164733333Y-196125238D02*
X164554761Y-196030000D01*
X164554761Y-196030000D02*
X164483333Y-195839523D01*
X164483333Y-195839523D02*
X164697618Y-194125238D01*
X166257142Y-196030000D02*
X166054761Y-196125238D01*
X166054761Y-196125238D02*
X165673808Y-196125238D01*
X165673808Y-196125238D02*
X165495237Y-196030000D01*
X165495237Y-196030000D02*
X165423808Y-195839523D01*
X165423808Y-195839523D02*
X165519047Y-195077619D01*
X165519047Y-195077619D02*
X165638094Y-194887142D01*
X165638094Y-194887142D02*
X165840475Y-194791904D01*
X165840475Y-194791904D02*
X166221427Y-194791904D01*
X166221427Y-194791904D02*
X166399999Y-194887142D01*
X166399999Y-194887142D02*
X166471427Y-195077619D01*
X166471427Y-195077619D02*
X166447618Y-195268095D01*
X166447618Y-195268095D02*
X165471427Y-195458571D01*
X167209523Y-195934761D02*
X167292856Y-196030000D01*
X167292856Y-196030000D02*
X167185713Y-196125238D01*
X167185713Y-196125238D02*
X167102380Y-196030000D01*
X167102380Y-196030000D02*
X167209523Y-195934761D01*
X167209523Y-195934761D02*
X167185713Y-196125238D01*
X167340475Y-194887142D02*
X167423808Y-194982380D01*
X167423808Y-194982380D02*
X167316666Y-195077619D01*
X167316666Y-195077619D02*
X167233332Y-194982380D01*
X167233332Y-194982380D02*
X167340475Y-194887142D01*
X167340475Y-194887142D02*
X167316666Y-195077619D01*
D10*
D11*
X161257142Y-191508214D02*
X160757142Y-191508214D01*
X160757142Y-192293928D02*
X160757142Y-190793928D01*
X160757142Y-190793928D02*
X161471428Y-190793928D01*
X162042856Y-192293928D02*
X162042856Y-191293928D01*
X162042856Y-190793928D02*
X161971428Y-190865357D01*
X161971428Y-190865357D02*
X162042856Y-190936785D01*
X162042856Y-190936785D02*
X162114285Y-190865357D01*
X162114285Y-190865357D02*
X162042856Y-190793928D01*
X162042856Y-190793928D02*
X162042856Y-190936785D01*
X162971428Y-192293928D02*
X162828571Y-192222500D01*
X162828571Y-192222500D02*
X162757142Y-192079642D01*
X162757142Y-192079642D02*
X162757142Y-190793928D01*
X164114285Y-192222500D02*
X163971428Y-192293928D01*
X163971428Y-192293928D02*
X163685714Y-192293928D01*
X163685714Y-192293928D02*
X163542856Y-192222500D01*
X163542856Y-192222500D02*
X163471428Y-192079642D01*
X163471428Y-192079642D02*
X163471428Y-191508214D01*
X163471428Y-191508214D02*
X163542856Y-191365357D01*
X163542856Y-191365357D02*
X163685714Y-191293928D01*
X163685714Y-191293928D02*
X163971428Y-191293928D01*
X163971428Y-191293928D02*
X164114285Y-191365357D01*
X164114285Y-191365357D02*
X164185714Y-191508214D01*
X164185714Y-191508214D02*
X164185714Y-191651071D01*
X164185714Y-191651071D02*
X163471428Y-191793928D01*
X164828570Y-192151071D02*
X164899999Y-192222500D01*
X164899999Y-192222500D02*
X164828570Y-192293928D01*
X164828570Y-192293928D02*
X164757142Y-192222500D01*
X164757142Y-192222500D02*
X164828570Y-192151071D01*
X164828570Y-192151071D02*
X164828570Y-192293928D01*
X164828570Y-191365357D02*
X164899999Y-191436785D01*
X164899999Y-191436785D02*
X164828570Y-191508214D01*
X164828570Y-191508214D02*
X164757142Y-191436785D01*
X164757142Y-191436785D02*
X164828570Y-191365357D01*
X164828570Y-191365357D02*
X164828570Y-191508214D01*
X166471428Y-190793928D02*
X167328571Y-190793928D01*
X166899999Y-192293928D02*
X166899999Y-190793928D01*
X168399999Y-192222500D02*
X168257142Y-192293928D01*
X168257142Y-192293928D02*
X167971428Y-192293928D01*
X167971428Y-192293928D02*
X167828570Y-192222500D01*
X167828570Y-192222500D02*
X167757142Y-192079642D01*
X167757142Y-192079642D02*
X167757142Y-191508214D01*
X167757142Y-191508214D02*
X167828570Y-191365357D01*
X167828570Y-191365357D02*
X167971428Y-191293928D01*
X167971428Y-191293928D02*
X168257142Y-191293928D01*
X168257142Y-191293928D02*
X168399999Y-191365357D01*
X168399999Y-191365357D02*
X168471428Y-191508214D01*
X168471428Y-191508214D02*
X168471428Y-191651071D01*
X168471428Y-191651071D02*
X167757142Y-191793928D01*
X169042856Y-192222500D02*
X169185713Y-192293928D01*
X169185713Y-192293928D02*
X169471427Y-192293928D01*
X169471427Y-192293928D02*
X169614284Y-192222500D01*
X169614284Y-192222500D02*
X169685713Y-192079642D01*
X169685713Y-192079642D02*
X169685713Y-192008214D01*
X169685713Y-192008214D02*
X169614284Y-191865357D01*
X169614284Y-191865357D02*
X169471427Y-191793928D01*
X169471427Y-191793928D02*
X169257142Y-191793928D01*
X169257142Y-191793928D02*
X169114284Y-191722500D01*
X169114284Y-191722500D02*
X169042856Y-191579642D01*
X169042856Y-191579642D02*
X169042856Y-191508214D01*
X169042856Y-191508214D02*
X169114284Y-191365357D01*
X169114284Y-191365357D02*
X169257142Y-191293928D01*
X169257142Y-191293928D02*
X169471427Y-191293928D01*
X169471427Y-191293928D02*
X169614284Y-191365357D01*
X170114285Y-191293928D02*
X170685713Y-191293928D01*
X170328570Y-190793928D02*
X170328570Y-192079642D01*
X170328570Y-192079642D02*
X170399999Y-192222500D01*
X170399999Y-192222500D02*
X170542856Y-192293928D01*
X170542856Y-192293928D02*
X170685713Y-192293928D01*
X171185713Y-192151071D02*
X171257142Y-192222500D01*
X171257142Y-192222500D02*
X171185713Y-192293928D01*
X171185713Y-192293928D02*
X171114285Y-192222500D01*
X171114285Y-192222500D02*
X171185713Y-192151071D01*
X171185713Y-192151071D02*
X171185713Y-192293928D01*
X171899999Y-192293928D02*
X171899999Y-190793928D01*
X172042857Y-191722500D02*
X172471428Y-192293928D01*
X172471428Y-191293928D02*
X171899999Y-191865357D01*
X173114285Y-192293928D02*
X173114285Y-191293928D01*
X173114285Y-190793928D02*
X173042857Y-190865357D01*
X173042857Y-190865357D02*
X173114285Y-190936785D01*
X173114285Y-190936785D02*
X173185714Y-190865357D01*
X173185714Y-190865357D02*
X173114285Y-190793928D01*
X173114285Y-190793928D02*
X173114285Y-190936785D01*
X174471429Y-192222500D02*
X174328571Y-192293928D01*
X174328571Y-192293928D02*
X174042857Y-192293928D01*
X174042857Y-192293928D02*
X173900000Y-192222500D01*
X173900000Y-192222500D02*
X173828571Y-192151071D01*
X173828571Y-192151071D02*
X173757143Y-192008214D01*
X173757143Y-192008214D02*
X173757143Y-191579642D01*
X173757143Y-191579642D02*
X173828571Y-191436785D01*
X173828571Y-191436785D02*
X173900000Y-191365357D01*
X173900000Y-191365357D02*
X174042857Y-191293928D01*
X174042857Y-191293928D02*
X174328571Y-191293928D01*
X174328571Y-191293928D02*
X174471429Y-191365357D01*
X175757143Y-192293928D02*
X175757143Y-191508214D01*
X175757143Y-191508214D02*
X175685714Y-191365357D01*
X175685714Y-191365357D02*
X175542857Y-191293928D01*
X175542857Y-191293928D02*
X175257143Y-191293928D01*
X175257143Y-191293928D02*
X175114285Y-191365357D01*
X175757143Y-192222500D02*
X175614285Y-192293928D01*
X175614285Y-192293928D02*
X175257143Y-192293928D01*
X175257143Y-192293928D02*
X175114285Y-192222500D01*
X175114285Y-192222500D02*
X175042857Y-192079642D01*
X175042857Y-192079642D02*
X175042857Y-191936785D01*
X175042857Y-191936785D02*
X175114285Y-191793928D01*
X175114285Y-191793928D02*
X175257143Y-191722500D01*
X175257143Y-191722500D02*
X175614285Y-191722500D01*
X175614285Y-191722500D02*
X175757143Y-191651071D01*
X177114286Y-192293928D02*
X177114286Y-190793928D01*
X177114286Y-192222500D02*
X176971428Y-192293928D01*
X176971428Y-192293928D02*
X176685714Y-192293928D01*
X176685714Y-192293928D02*
X176542857Y-192222500D01*
X176542857Y-192222500D02*
X176471428Y-192151071D01*
X176471428Y-192151071D02*
X176400000Y-192008214D01*
X176400000Y-192008214D02*
X176400000Y-191579642D01*
X176400000Y-191579642D02*
X176471428Y-191436785D01*
X176471428Y-191436785D02*
X176542857Y-191365357D01*
X176542857Y-191365357D02*
X176685714Y-191293928D01*
X176685714Y-191293928D02*
X176971428Y-191293928D01*
X176971428Y-191293928D02*
X177114286Y-191365357D01*
X177471429Y-192436785D02*
X178614286Y-192436785D01*
X178971428Y-191293928D02*
X178971428Y-192793928D01*
X178971428Y-191365357D02*
X179114286Y-191293928D01*
X179114286Y-191293928D02*
X179400000Y-191293928D01*
X179400000Y-191293928D02*
X179542857Y-191365357D01*
X179542857Y-191365357D02*
X179614286Y-191436785D01*
X179614286Y-191436785D02*
X179685714Y-191579642D01*
X179685714Y-191579642D02*
X179685714Y-192008214D01*
X179685714Y-192008214D02*
X179614286Y-192151071D01*
X179614286Y-192151071D02*
X179542857Y-192222500D01*
X179542857Y-192222500D02*
X179400000Y-192293928D01*
X179400000Y-192293928D02*
X179114286Y-192293928D01*
X179114286Y-192293928D02*
X178971428Y-192222500D01*
X180971429Y-192222500D02*
X180828571Y-192293928D01*
X180828571Y-192293928D02*
X180542857Y-192293928D01*
X180542857Y-192293928D02*
X180400000Y-192222500D01*
X180400000Y-192222500D02*
X180328571Y-192151071D01*
X180328571Y-192151071D02*
X180257143Y-192008214D01*
X180257143Y-192008214D02*
X180257143Y-191579642D01*
X180257143Y-191579642D02*
X180328571Y-191436785D01*
X180328571Y-191436785D02*
X180400000Y-191365357D01*
X180400000Y-191365357D02*
X180542857Y-191293928D01*
X180542857Y-191293928D02*
X180828571Y-191293928D01*
X180828571Y-191293928D02*
X180971429Y-191365357D01*
X181614285Y-192293928D02*
X181614285Y-190793928D01*
X181614285Y-191365357D02*
X181757143Y-191293928D01*
X181757143Y-191293928D02*
X182042857Y-191293928D01*
X182042857Y-191293928D02*
X182185714Y-191365357D01*
X182185714Y-191365357D02*
X182257143Y-191436785D01*
X182257143Y-191436785D02*
X182328571Y-191579642D01*
X182328571Y-191579642D02*
X182328571Y-192008214D01*
X182328571Y-192008214D02*
X182257143Y-192151071D01*
X182257143Y-192151071D02*
X182185714Y-192222500D01*
X182185714Y-192222500D02*
X182042857Y-192293928D01*
X182042857Y-192293928D02*
X181757143Y-192293928D01*
X181757143Y-192293928D02*
X181614285Y-192222500D01*
D10*
D11*
X159400000Y-187400000D02*
X267400000Y-187400000D01*
D10*
D11*
X160685714Y-189522500D02*
X160900000Y-189593928D01*
X160900000Y-189593928D02*
X161257142Y-189593928D01*
X161257142Y-189593928D02*
X161400000Y-189522500D01*
X161400000Y-189522500D02*
X161471428Y-189451071D01*
X161471428Y-189451071D02*
X161542857Y-189308214D01*
X161542857Y-189308214D02*
X161542857Y-189165357D01*
X161542857Y-189165357D02*
X161471428Y-189022500D01*
X161471428Y-189022500D02*
X161400000Y-188951071D01*
X161400000Y-188951071D02*
X161257142Y-188879642D01*
X161257142Y-188879642D02*
X160971428Y-188808214D01*
X160971428Y-188808214D02*
X160828571Y-188736785D01*
X160828571Y-188736785D02*
X160757142Y-188665357D01*
X160757142Y-188665357D02*
X160685714Y-188522500D01*
X160685714Y-188522500D02*
X160685714Y-188379642D01*
X160685714Y-188379642D02*
X160757142Y-188236785D01*
X160757142Y-188236785D02*
X160828571Y-188165357D01*
X160828571Y-188165357D02*
X160971428Y-188093928D01*
X160971428Y-188093928D02*
X161328571Y-188093928D01*
X161328571Y-188093928D02*
X161542857Y-188165357D01*
X162185713Y-189593928D02*
X162185713Y-188093928D01*
X162828571Y-189593928D02*
X162828571Y-188808214D01*
X162828571Y-188808214D02*
X162757142Y-188665357D01*
X162757142Y-188665357D02*
X162614285Y-188593928D01*
X162614285Y-188593928D02*
X162399999Y-188593928D01*
X162399999Y-188593928D02*
X162257142Y-188665357D01*
X162257142Y-188665357D02*
X162185713Y-188736785D01*
X164114285Y-189522500D02*
X163971428Y-189593928D01*
X163971428Y-189593928D02*
X163685714Y-189593928D01*
X163685714Y-189593928D02*
X163542856Y-189522500D01*
X163542856Y-189522500D02*
X163471428Y-189379642D01*
X163471428Y-189379642D02*
X163471428Y-188808214D01*
X163471428Y-188808214D02*
X163542856Y-188665357D01*
X163542856Y-188665357D02*
X163685714Y-188593928D01*
X163685714Y-188593928D02*
X163971428Y-188593928D01*
X163971428Y-188593928D02*
X164114285Y-188665357D01*
X164114285Y-188665357D02*
X164185714Y-188808214D01*
X164185714Y-188808214D02*
X164185714Y-188951071D01*
X164185714Y-188951071D02*
X163471428Y-189093928D01*
X165399999Y-189522500D02*
X165257142Y-189593928D01*
X165257142Y-189593928D02*
X164971428Y-189593928D01*
X164971428Y-189593928D02*
X164828570Y-189522500D01*
X164828570Y-189522500D02*
X164757142Y-189379642D01*
X164757142Y-189379642D02*
X164757142Y-188808214D01*
X164757142Y-188808214D02*
X164828570Y-188665357D01*
X164828570Y-188665357D02*
X164971428Y-188593928D01*
X164971428Y-188593928D02*
X165257142Y-188593928D01*
X165257142Y-188593928D02*
X165399999Y-188665357D01*
X165399999Y-188665357D02*
X165471428Y-188808214D01*
X165471428Y-188808214D02*
X165471428Y-188951071D01*
X165471428Y-188951071D02*
X164757142Y-189093928D01*
X165899999Y-188593928D02*
X166471427Y-188593928D01*
X166114284Y-188093928D02*
X166114284Y-189379642D01*
X166114284Y-189379642D02*
X166185713Y-189522500D01*
X166185713Y-189522500D02*
X166328570Y-189593928D01*
X166328570Y-189593928D02*
X166471427Y-189593928D01*
X166971427Y-189451071D02*
X167042856Y-189522500D01*
X167042856Y-189522500D02*
X166971427Y-189593928D01*
X166971427Y-189593928D02*
X166899999Y-189522500D01*
X166899999Y-189522500D02*
X166971427Y-189451071D01*
X166971427Y-189451071D02*
X166971427Y-189593928D01*
X166971427Y-188665357D02*
X167042856Y-188736785D01*
X167042856Y-188736785D02*
X166971427Y-188808214D01*
X166971427Y-188808214D02*
X166899999Y-188736785D01*
X166899999Y-188736785D02*
X166971427Y-188665357D01*
X166971427Y-188665357D02*
X166971427Y-188808214D01*
D10*
D12*
D10*
D11*
D10*
D11*
D10*
D11*
D10*
D11*
D10*
D11*
X179400000Y-197400000D02*
X179400000Y-200400000D01*
D10*
D11*
X243400000Y-197400000D02*
X243400000Y-203900000D01*
D12*
X73382142Y-99511428D02*
X73382142Y-98011428D01*
X74239285Y-99511428D02*
X73596428Y-98654285D01*
X74239285Y-98011428D02*
X73382142Y-98868571D01*
X75453571Y-99440000D02*
X75310714Y-99511428D01*
X75310714Y-99511428D02*
X75025000Y-99511428D01*
X75025000Y-99511428D02*
X74882142Y-99440000D01*
X74882142Y-99440000D02*
X74810714Y-99297142D01*
X74810714Y-99297142D02*
X74810714Y-98725714D01*
X74810714Y-98725714D02*
X74882142Y-98582857D01*
X74882142Y-98582857D02*
X75025000Y-98511428D01*
X75025000Y-98511428D02*
X75310714Y-98511428D01*
X75310714Y-98511428D02*
X75453571Y-98582857D01*
X75453571Y-98582857D02*
X75525000Y-98725714D01*
X75525000Y-98725714D02*
X75525000Y-98868571D01*
X75525000Y-98868571D02*
X74810714Y-99011428D01*
X76739285Y-99440000D02*
X76596428Y-99511428D01*
X76596428Y-99511428D02*
X76310714Y-99511428D01*
X76310714Y-99511428D02*
X76167856Y-99440000D01*
X76167856Y-99440000D02*
X76096428Y-99297142D01*
X76096428Y-99297142D02*
X76096428Y-98725714D01*
X76096428Y-98725714D02*
X76167856Y-98582857D01*
X76167856Y-98582857D02*
X76310714Y-98511428D01*
X76310714Y-98511428D02*
X76596428Y-98511428D01*
X76596428Y-98511428D02*
X76739285Y-98582857D01*
X76739285Y-98582857D02*
X76810714Y-98725714D01*
X76810714Y-98725714D02*
X76810714Y-98868571D01*
X76810714Y-98868571D02*
X76096428Y-99011428D01*
X77453570Y-98511428D02*
X77453570Y-100011428D01*
X77453570Y-98582857D02*
X77596428Y-98511428D01*
X77596428Y-98511428D02*
X77882142Y-98511428D01*
X77882142Y-98511428D02*
X78024999Y-98582857D01*
X78024999Y-98582857D02*
X78096428Y-98654285D01*
X78096428Y-98654285D02*
X78167856Y-98797142D01*
X78167856Y-98797142D02*
X78167856Y-99225714D01*
X78167856Y-99225714D02*
X78096428Y-99368571D01*
X78096428Y-99368571D02*
X78024999Y-99440000D01*
X78024999Y-99440000D02*
X77882142Y-99511428D01*
X77882142Y-99511428D02*
X77596428Y-99511428D01*
X77596428Y-99511428D02*
X77453570Y-99440000D01*
X80239285Y-98011428D02*
X80524999Y-98011428D01*
X80524999Y-98011428D02*
X80667856Y-98082857D01*
X80667856Y-98082857D02*
X80810713Y-98225714D01*
X80810713Y-98225714D02*
X80882142Y-98511428D01*
X80882142Y-98511428D02*
X80882142Y-99011428D01*
X80882142Y-99011428D02*
X80810713Y-99297142D01*
X80810713Y-99297142D02*
X80667856Y-99440000D01*
X80667856Y-99440000D02*
X80524999Y-99511428D01*
X80524999Y-99511428D02*
X80239285Y-99511428D01*
X80239285Y-99511428D02*
X80096428Y-99440000D01*
X80096428Y-99440000D02*
X79953570Y-99297142D01*
X79953570Y-99297142D02*
X79882142Y-99011428D01*
X79882142Y-99011428D02*
X79882142Y-98511428D01*
X79882142Y-98511428D02*
X79953570Y-98225714D01*
X79953570Y-98225714D02*
X80096428Y-98082857D01*
X80096428Y-98082857D02*
X80239285Y-98011428D01*
X82167857Y-98511428D02*
X82167857Y-99511428D01*
X81524999Y-98511428D02*
X81524999Y-99297142D01*
X81524999Y-99297142D02*
X81596428Y-99440000D01*
X81596428Y-99440000D02*
X81739285Y-99511428D01*
X81739285Y-99511428D02*
X81953571Y-99511428D01*
X81953571Y-99511428D02*
X82096428Y-99440000D01*
X82096428Y-99440000D02*
X82167857Y-99368571D01*
X82667857Y-98511428D02*
X83239285Y-98511428D01*
X82882142Y-98011428D02*
X82882142Y-99297142D01*
X82882142Y-99297142D02*
X82953571Y-99440000D01*
X82953571Y-99440000D02*
X83096428Y-99511428D01*
X83096428Y-99511428D02*
X83239285Y-99511428D01*
D11*
%TO.C,U1*%
X59436095Y-38280619D02*
X59436095Y-39090142D01*
X59436095Y-39090142D02*
X59483714Y-39185380D01*
X59483714Y-39185380D02*
X59531333Y-39233000D01*
X59531333Y-39233000D02*
X59626571Y-39280619D01*
X59626571Y-39280619D02*
X59817047Y-39280619D01*
X59817047Y-39280619D02*
X59912285Y-39233000D01*
X59912285Y-39233000D02*
X59959904Y-39185380D01*
X59959904Y-39185380D02*
X60007523Y-39090142D01*
X60007523Y-39090142D02*
X60007523Y-38280619D01*
X61007523Y-39280619D02*
X60436095Y-39280619D01*
X60721809Y-39280619D02*
X60721809Y-38280619D01*
X60721809Y-38280619D02*
X60626571Y-38423476D01*
X60626571Y-38423476D02*
X60531333Y-38518714D01*
X60531333Y-38518714D02*
X60436095Y-38566333D01*
D14*
%TO.C,J2*%
X83320467Y-29035526D02*
X83320467Y-29942669D01*
X83320467Y-29942669D02*
X83259990Y-30124097D01*
X83259990Y-30124097D02*
X83139038Y-30245050D01*
X83139038Y-30245050D02*
X82957609Y-30305526D01*
X82957609Y-30305526D02*
X82836657Y-30305526D01*
X83864752Y-29156478D02*
X83925228Y-29096002D01*
X83925228Y-29096002D02*
X84046181Y-29035526D01*
X84046181Y-29035526D02*
X84348562Y-29035526D01*
X84348562Y-29035526D02*
X84469514Y-29096002D01*
X84469514Y-29096002D02*
X84529990Y-29156478D01*
X84529990Y-29156478D02*
X84590467Y-29277430D01*
X84590467Y-29277430D02*
X84590467Y-29398383D01*
X84590467Y-29398383D02*
X84529990Y-29579811D01*
X84529990Y-29579811D02*
X83804276Y-30305526D01*
X83804276Y-30305526D02*
X84590467Y-30305526D01*
D11*
X66808314Y-25735619D02*
X66236886Y-25735619D01*
X66522600Y-25735619D02*
X66522600Y-24735619D01*
X66522600Y-24735619D02*
X66427362Y-24878476D01*
X66427362Y-24878476D02*
X66332124Y-24973714D01*
X66332124Y-24973714D02*
X66236886Y-25021333D01*
D14*
%TO.C,J1*%
X49030467Y-29035526D02*
X49030467Y-29942669D01*
X49030467Y-29942669D02*
X48969990Y-30124097D01*
X48969990Y-30124097D02*
X48849038Y-30245050D01*
X48849038Y-30245050D02*
X48667609Y-30305526D01*
X48667609Y-30305526D02*
X48546657Y-30305526D01*
X50300467Y-30305526D02*
X49574752Y-30305526D01*
X49937609Y-30305526D02*
X49937609Y-29035526D01*
X49937609Y-29035526D02*
X49816657Y-29216954D01*
X49816657Y-29216954D02*
X49695705Y-29337907D01*
X49695705Y-29337907D02*
X49574752Y-29398383D01*
D11*
X32518314Y-25735619D02*
X31946886Y-25735619D01*
X32232600Y-25735619D02*
X32232600Y-24735619D01*
X32232600Y-24735619D02*
X32137362Y-24878476D01*
X32137362Y-24878476D02*
X32042124Y-24973714D01*
X32042124Y-24973714D02*
X31946886Y-25021333D01*
%TO.C,U2*%
X72771095Y-38280619D02*
X72771095Y-39090142D01*
X72771095Y-39090142D02*
X72818714Y-39185380D01*
X72818714Y-39185380D02*
X72866333Y-39233000D01*
X72866333Y-39233000D02*
X72961571Y-39280619D01*
X72961571Y-39280619D02*
X73152047Y-39280619D01*
X73152047Y-39280619D02*
X73247285Y-39233000D01*
X73247285Y-39233000D02*
X73294904Y-39185380D01*
X73294904Y-39185380D02*
X73342523Y-39090142D01*
X73342523Y-39090142D02*
X73342523Y-38280619D01*
X73771095Y-38375857D02*
X73818714Y-38328238D01*
X73818714Y-38328238D02*
X73913952Y-38280619D01*
X73913952Y-38280619D02*
X74152047Y-38280619D01*
X74152047Y-38280619D02*
X74247285Y-38328238D01*
X74247285Y-38328238D02*
X74294904Y-38375857D01*
X74294904Y-38375857D02*
X74342523Y-38471095D01*
X74342523Y-38471095D02*
X74342523Y-38566333D01*
X74342523Y-38566333D02*
X74294904Y-38709190D01*
X74294904Y-38709190D02*
X73723476Y-39280619D01*
X73723476Y-39280619D02*
X74342523Y-39280619D01*
%TO.C,R2*%
X37335619Y-40044666D02*
X36859428Y-40377999D01*
X37335619Y-40616094D02*
X36335619Y-40616094D01*
X36335619Y-40616094D02*
X36335619Y-40235142D01*
X36335619Y-40235142D02*
X36383238Y-40139904D01*
X36383238Y-40139904D02*
X36430857Y-40092285D01*
X36430857Y-40092285D02*
X36526095Y-40044666D01*
X36526095Y-40044666D02*
X36668952Y-40044666D01*
X36668952Y-40044666D02*
X36764190Y-40092285D01*
X36764190Y-40092285D02*
X36811809Y-40139904D01*
X36811809Y-40139904D02*
X36859428Y-40235142D01*
X36859428Y-40235142D02*
X36859428Y-40616094D01*
X36430857Y-39663713D02*
X36383238Y-39616094D01*
X36383238Y-39616094D02*
X36335619Y-39520856D01*
X36335619Y-39520856D02*
X36335619Y-39282761D01*
X36335619Y-39282761D02*
X36383238Y-39187523D01*
X36383238Y-39187523D02*
X36430857Y-39139904D01*
X36430857Y-39139904D02*
X36526095Y-39092285D01*
X36526095Y-39092285D02*
X36621333Y-39092285D01*
X36621333Y-39092285D02*
X36764190Y-39139904D01*
X36764190Y-39139904D02*
X37335619Y-39711332D01*
X37335619Y-39711332D02*
X37335619Y-39092285D01*
%TO.C,R3*%
X58761333Y-56680619D02*
X58428000Y-56204428D01*
X58189905Y-56680619D02*
X58189905Y-55680619D01*
X58189905Y-55680619D02*
X58570857Y-55680619D01*
X58570857Y-55680619D02*
X58666095Y-55728238D01*
X58666095Y-55728238D02*
X58713714Y-55775857D01*
X58713714Y-55775857D02*
X58761333Y-55871095D01*
X58761333Y-55871095D02*
X58761333Y-56013952D01*
X58761333Y-56013952D02*
X58713714Y-56109190D01*
X58713714Y-56109190D02*
X58666095Y-56156809D01*
X58666095Y-56156809D02*
X58570857Y-56204428D01*
X58570857Y-56204428D02*
X58189905Y-56204428D01*
X59094667Y-55680619D02*
X59713714Y-55680619D01*
X59713714Y-55680619D02*
X59380381Y-56061571D01*
X59380381Y-56061571D02*
X59523238Y-56061571D01*
X59523238Y-56061571D02*
X59618476Y-56109190D01*
X59618476Y-56109190D02*
X59666095Y-56156809D01*
X59666095Y-56156809D02*
X59713714Y-56252047D01*
X59713714Y-56252047D02*
X59713714Y-56490142D01*
X59713714Y-56490142D02*
X59666095Y-56585380D01*
X59666095Y-56585380D02*
X59618476Y-56633000D01*
X59618476Y-56633000D02*
X59523238Y-56680619D01*
X59523238Y-56680619D02*
X59237524Y-56680619D01*
X59237524Y-56680619D02*
X59142286Y-56633000D01*
X59142286Y-56633000D02*
X59094667Y-56585380D01*
%TO.C,C2*%
X98151333Y-30780380D02*
X98103714Y-30828000D01*
X98103714Y-30828000D02*
X97960857Y-30875619D01*
X97960857Y-30875619D02*
X97865619Y-30875619D01*
X97865619Y-30875619D02*
X97722762Y-30828000D01*
X97722762Y-30828000D02*
X97627524Y-30732761D01*
X97627524Y-30732761D02*
X97579905Y-30637523D01*
X97579905Y-30637523D02*
X97532286Y-30447047D01*
X97532286Y-30447047D02*
X97532286Y-30304190D01*
X97532286Y-30304190D02*
X97579905Y-30113714D01*
X97579905Y-30113714D02*
X97627524Y-30018476D01*
X97627524Y-30018476D02*
X97722762Y-29923238D01*
X97722762Y-29923238D02*
X97865619Y-29875619D01*
X97865619Y-29875619D02*
X97960857Y-29875619D01*
X97960857Y-29875619D02*
X98103714Y-29923238D01*
X98103714Y-29923238D02*
X98151333Y-29970857D01*
X98532286Y-29970857D02*
X98579905Y-29923238D01*
X98579905Y-29923238D02*
X98675143Y-29875619D01*
X98675143Y-29875619D02*
X98913238Y-29875619D01*
X98913238Y-29875619D02*
X99008476Y-29923238D01*
X99008476Y-29923238D02*
X99056095Y-29970857D01*
X99056095Y-29970857D02*
X99103714Y-30066095D01*
X99103714Y-30066095D02*
X99103714Y-30161333D01*
X99103714Y-30161333D02*
X99056095Y-30304190D01*
X99056095Y-30304190D02*
X98484667Y-30875619D01*
X98484667Y-30875619D02*
X99103714Y-30875619D01*
%TO.C,R1*%
X47155619Y-38774666D02*
X46679428Y-39107999D01*
X47155619Y-39346094D02*
X46155619Y-39346094D01*
X46155619Y-39346094D02*
X46155619Y-38965142D01*
X46155619Y-38965142D02*
X46203238Y-38869904D01*
X46203238Y-38869904D02*
X46250857Y-38822285D01*
X46250857Y-38822285D02*
X46346095Y-38774666D01*
X46346095Y-38774666D02*
X46488952Y-38774666D01*
X46488952Y-38774666D02*
X46584190Y-38822285D01*
X46584190Y-38822285D02*
X46631809Y-38869904D01*
X46631809Y-38869904D02*
X46679428Y-38965142D01*
X46679428Y-38965142D02*
X46679428Y-39346094D01*
X47155619Y-37822285D02*
X47155619Y-38393713D01*
X47155619Y-38107999D02*
X46155619Y-38107999D01*
X46155619Y-38107999D02*
X46298476Y-38203237D01*
X46298476Y-38203237D02*
X46393714Y-38298475D01*
X46393714Y-38298475D02*
X46441333Y-38393713D01*
%TO.C,C1*%
X61321333Y-30780380D02*
X61273714Y-30828000D01*
X61273714Y-30828000D02*
X61130857Y-30875619D01*
X61130857Y-30875619D02*
X61035619Y-30875619D01*
X61035619Y-30875619D02*
X60892762Y-30828000D01*
X60892762Y-30828000D02*
X60797524Y-30732761D01*
X60797524Y-30732761D02*
X60749905Y-30637523D01*
X60749905Y-30637523D02*
X60702286Y-30447047D01*
X60702286Y-30447047D02*
X60702286Y-30304190D01*
X60702286Y-30304190D02*
X60749905Y-30113714D01*
X60749905Y-30113714D02*
X60797524Y-30018476D01*
X60797524Y-30018476D02*
X60892762Y-29923238D01*
X60892762Y-29923238D02*
X61035619Y-29875619D01*
X61035619Y-29875619D02*
X61130857Y-29875619D01*
X61130857Y-29875619D02*
X61273714Y-29923238D01*
X61273714Y-29923238D02*
X61321333Y-29970857D01*
X62273714Y-30875619D02*
X61702286Y-30875619D01*
X61988000Y-30875619D02*
X61988000Y-29875619D01*
X61988000Y-29875619D02*
X61892762Y-30018476D01*
X61892762Y-30018476D02*
X61797524Y-30113714D01*
X61797524Y-30113714D02*
X61702286Y-30161333D01*
D15*
%TO.C,U1*%
X57948000Y-39818000D02*
X57948000Y-50098000D01*
X57948000Y-50098000D02*
X62448000Y-50098000D01*
X59198000Y-39818000D02*
X57948000Y-39818000D01*
X62448000Y-39818000D02*
X61198000Y-39818000D01*
X62448000Y-50098000D02*
X62448000Y-39818000D01*
X59198000Y-39818000D02*
G75*
G03*
X61198000Y-39818000I1000000J0D01*
G01*
D16*
%TO.C,J2*%
X67757773Y-20040678D02*
X99629322Y-20040678D01*
X67758000Y-21273000D02*
X67752435Y-28140806D01*
X67758000Y-21273000D02*
X67757773Y-20040678D01*
X70358000Y-28173000D02*
X67752435Y-28173000D01*
X70358000Y-28173000D02*
X99628000Y-28173000D01*
X99618800Y-21158200D02*
X67748800Y-21158200D01*
X99628000Y-28173000D02*
X99628000Y-21273000D01*
X99629549Y-21290967D02*
X99629322Y-20040678D01*
%TO.C,J1*%
X33467773Y-20040678D02*
X65339322Y-20040678D01*
X33468000Y-21273000D02*
X33462435Y-28140806D01*
X33468000Y-21273000D02*
X33467773Y-20040678D01*
X36068000Y-28173000D02*
X33462435Y-28173000D01*
X36068000Y-28173000D02*
X65338000Y-28173000D01*
X65328800Y-21158200D02*
X33458800Y-21158200D01*
X65338000Y-28173000D02*
X65338000Y-21273000D01*
X65339549Y-21290967D02*
X65339322Y-20040678D01*
D15*
%TO.C,U2*%
X71283000Y-39818000D02*
X71283000Y-60258000D01*
X71283000Y-60258000D02*
X75783000Y-60258000D01*
X72533000Y-39818000D02*
X71283000Y-39818000D01*
X75783000Y-39818000D02*
X74533000Y-39818000D01*
X75783000Y-60258000D02*
X75783000Y-39818000D01*
X72533000Y-39818000D02*
G75*
G03*
X74533000Y-39818000I1000000J0D01*
G01*
%TO.C,R2*%
X39243000Y-43283000D02*
X39243000Y-42513000D01*
X37873000Y-42513000D02*
X40613000Y-42513000D01*
X40613000Y-42513000D02*
X40613000Y-35973000D01*
X37873000Y-35973000D02*
X37873000Y-42513000D01*
X40613000Y-35973000D02*
X37873000Y-35973000D01*
X39243000Y-35203000D02*
X39243000Y-35973000D01*
%TO.C,R3*%
X62333000Y-53848000D02*
X61563000Y-53848000D01*
X61563000Y-55218000D02*
X61563000Y-52478000D01*
X61563000Y-52478000D02*
X55023000Y-52478000D01*
X55023000Y-55218000D02*
X61563000Y-55218000D01*
X55023000Y-52478000D02*
X55023000Y-55218000D01*
X54253000Y-53848000D02*
X55023000Y-53848000D01*
%TO.C,C2*%
X95513225Y-32688000D02*
X96013225Y-32688000D01*
X95763225Y-32438000D02*
X95763225Y-32938000D01*
X98318000Y-31583000D02*
X98318000Y-36743000D01*
X98358000Y-31583000D02*
X98358000Y-36743000D01*
X98398000Y-31584000D02*
X98398000Y-36742000D01*
X98438000Y-31585000D02*
X98438000Y-36741000D01*
X98478000Y-31587000D02*
X98478000Y-36739000D01*
X98518000Y-31590000D02*
X98518000Y-36736000D01*
X98558000Y-31594000D02*
X98558000Y-33123000D01*
X98558000Y-35203000D02*
X98558000Y-36732000D01*
X98598000Y-31598000D02*
X98598000Y-33123000D01*
X98598000Y-35203000D02*
X98598000Y-36728000D01*
X98638000Y-31602000D02*
X98638000Y-33123000D01*
X98638000Y-35203000D02*
X98638000Y-36724000D01*
X98678000Y-31607000D02*
X98678000Y-33123000D01*
X98678000Y-35203000D02*
X98678000Y-36719000D01*
X98718000Y-31613000D02*
X98718000Y-33123000D01*
X98718000Y-35203000D02*
X98718000Y-36713000D01*
X98758000Y-31620000D02*
X98758000Y-33123000D01*
X98758000Y-35203000D02*
X98758000Y-36706000D01*
X98798000Y-31627000D02*
X98798000Y-33123000D01*
X98798000Y-35203000D02*
X98798000Y-36699000D01*
X98838000Y-31635000D02*
X98838000Y-33123000D01*
X98838000Y-35203000D02*
X98838000Y-36691000D01*
X98878000Y-31643000D02*
X98878000Y-33123000D01*
X98878000Y-35203000D02*
X98878000Y-36683000D01*
X98918000Y-31652000D02*
X98918000Y-33123000D01*
X98918000Y-35203000D02*
X98918000Y-36674000D01*
X98958000Y-31662000D02*
X98958000Y-33123000D01*
X98958000Y-35203000D02*
X98958000Y-36664000D01*
X98998000Y-31672000D02*
X98998000Y-33123000D01*
X98998000Y-35203000D02*
X98998000Y-36654000D01*
X99039000Y-31683000D02*
X99039000Y-33123000D01*
X99039000Y-35203000D02*
X99039000Y-36643000D01*
X99079000Y-31695000D02*
X99079000Y-33123000D01*
X99079000Y-35203000D02*
X99079000Y-36631000D01*
X99119000Y-31708000D02*
X99119000Y-33123000D01*
X99119000Y-35203000D02*
X99119000Y-36618000D01*
X99159000Y-31721000D02*
X99159000Y-33123000D01*
X99159000Y-35203000D02*
X99159000Y-36605000D01*
X99199000Y-31735000D02*
X99199000Y-33123000D01*
X99199000Y-35203000D02*
X99199000Y-36591000D01*
X99239000Y-31749000D02*
X99239000Y-33123000D01*
X99239000Y-35203000D02*
X99239000Y-36577000D01*
X99279000Y-31765000D02*
X99279000Y-33123000D01*
X99279000Y-35203000D02*
X99279000Y-36561000D01*
X99319000Y-31781000D02*
X99319000Y-33123000D01*
X99319000Y-35203000D02*
X99319000Y-36545000D01*
X99359000Y-31798000D02*
X99359000Y-33123000D01*
X99359000Y-35203000D02*
X99359000Y-36528000D01*
X99399000Y-31815000D02*
X99399000Y-33123000D01*
X99399000Y-35203000D02*
X99399000Y-36511000D01*
X99439000Y-31834000D02*
X99439000Y-33123000D01*
X99439000Y-35203000D02*
X99439000Y-36492000D01*
X99479000Y-31853000D02*
X99479000Y-33123000D01*
X99479000Y-35203000D02*
X99479000Y-36473000D01*
X99519000Y-31873000D02*
X99519000Y-33123000D01*
X99519000Y-35203000D02*
X99519000Y-36453000D01*
X99559000Y-31895000D02*
X99559000Y-33123000D01*
X99559000Y-35203000D02*
X99559000Y-36431000D01*
X99599000Y-31916000D02*
X99599000Y-33123000D01*
X99599000Y-35203000D02*
X99599000Y-36410000D01*
X99639000Y-31939000D02*
X99639000Y-33123000D01*
X99639000Y-35203000D02*
X99639000Y-36387000D01*
X99679000Y-31963000D02*
X99679000Y-33123000D01*
X99679000Y-35203000D02*
X99679000Y-36363000D01*
X99719000Y-31988000D02*
X99719000Y-33123000D01*
X99719000Y-35203000D02*
X99719000Y-36338000D01*
X99759000Y-32014000D02*
X99759000Y-33123000D01*
X99759000Y-35203000D02*
X99759000Y-36312000D01*
X99799000Y-32041000D02*
X99799000Y-33123000D01*
X99799000Y-35203000D02*
X99799000Y-36285000D01*
X99839000Y-32068000D02*
X99839000Y-33123000D01*
X99839000Y-35203000D02*
X99839000Y-36258000D01*
X99879000Y-32098000D02*
X99879000Y-33123000D01*
X99879000Y-35203000D02*
X99879000Y-36228000D01*
X99919000Y-32128000D02*
X99919000Y-33123000D01*
X99919000Y-35203000D02*
X99919000Y-36198000D01*
X99959000Y-32159000D02*
X99959000Y-33123000D01*
X99959000Y-35203000D02*
X99959000Y-36167000D01*
X99999000Y-32192000D02*
X99999000Y-33123000D01*
X99999000Y-35203000D02*
X99999000Y-36134000D01*
X100039000Y-32226000D02*
X100039000Y-33123000D01*
X100039000Y-35203000D02*
X100039000Y-36100000D01*
X100079000Y-32262000D02*
X100079000Y-33123000D01*
X100079000Y-35203000D02*
X100079000Y-36064000D01*
X100119000Y-32299000D02*
X100119000Y-33123000D01*
X100119000Y-35203000D02*
X100119000Y-36027000D01*
X100159000Y-32337000D02*
X100159000Y-33123000D01*
X100159000Y-35203000D02*
X100159000Y-35989000D01*
X100199000Y-32378000D02*
X100199000Y-33123000D01*
X100199000Y-35203000D02*
X100199000Y-35948000D01*
X100239000Y-32420000D02*
X100239000Y-33123000D01*
X100239000Y-35203000D02*
X100239000Y-35906000D01*
X100279000Y-32464000D02*
X100279000Y-33123000D01*
X100279000Y-35203000D02*
X100279000Y-35862000D01*
X100319000Y-32510000D02*
X100319000Y-33123000D01*
X100319000Y-35203000D02*
X100319000Y-35816000D01*
X100359000Y-32558000D02*
X100359000Y-33123000D01*
X100359000Y-35203000D02*
X100359000Y-35768000D01*
X100399000Y-32609000D02*
X100399000Y-33123000D01*
X100399000Y-35203000D02*
X100399000Y-35717000D01*
X100439000Y-32663000D02*
X100439000Y-33123000D01*
X100439000Y-35203000D02*
X100439000Y-35663000D01*
X100479000Y-32720000D02*
X100479000Y-33123000D01*
X100479000Y-35203000D02*
X100479000Y-35606000D01*
X100519000Y-32780000D02*
X100519000Y-33123000D01*
X100519000Y-35203000D02*
X100519000Y-35546000D01*
X100559000Y-32844000D02*
X100559000Y-33123000D01*
X100559000Y-35203000D02*
X100559000Y-35482000D01*
X100599000Y-32912000D02*
X100599000Y-33123000D01*
X100599000Y-35203000D02*
X100599000Y-35414000D01*
X100639000Y-32985000D02*
X100639000Y-35341000D01*
X100679000Y-33065000D02*
X100679000Y-35261000D01*
X100719000Y-33152000D02*
X100719000Y-35174000D01*
X100759000Y-33248000D02*
X100759000Y-35078000D01*
X100799000Y-33358000D02*
X100799000Y-34968000D01*
X100839000Y-33486000D02*
X100839000Y-34840000D01*
X100879000Y-33645000D02*
X100879000Y-34681000D01*
X100919000Y-33879000D02*
X100919000Y-34447000D01*
X100938000Y-34163000D02*
G75*
G03*
X100938000Y-34163000I-2620000J0D01*
G01*
%TO.C,R1*%
X44323000Y-35203000D02*
X44323000Y-35973000D01*
X45693000Y-35973000D02*
X42953000Y-35973000D01*
X42953000Y-35973000D02*
X42953000Y-42513000D01*
X45693000Y-42513000D02*
X45693000Y-35973000D01*
X42953000Y-42513000D02*
X45693000Y-42513000D01*
X44323000Y-43283000D02*
X44323000Y-42513000D01*
%TO.C,C1*%
X58683225Y-32688000D02*
X59183225Y-32688000D01*
X58933225Y-32438000D02*
X58933225Y-32938000D01*
X61488000Y-31583000D02*
X61488000Y-36743000D01*
X61528000Y-31583000D02*
X61528000Y-36743000D01*
X61568000Y-31584000D02*
X61568000Y-36742000D01*
X61608000Y-31585000D02*
X61608000Y-36741000D01*
X61648000Y-31587000D02*
X61648000Y-36739000D01*
X61688000Y-31590000D02*
X61688000Y-36736000D01*
X61728000Y-31594000D02*
X61728000Y-33123000D01*
X61728000Y-35203000D02*
X61728000Y-36732000D01*
X61768000Y-31598000D02*
X61768000Y-33123000D01*
X61768000Y-35203000D02*
X61768000Y-36728000D01*
X61808000Y-31602000D02*
X61808000Y-33123000D01*
X61808000Y-35203000D02*
X61808000Y-36724000D01*
X61848000Y-31607000D02*
X61848000Y-33123000D01*
X61848000Y-35203000D02*
X61848000Y-36719000D01*
X61888000Y-31613000D02*
X61888000Y-33123000D01*
X61888000Y-35203000D02*
X61888000Y-36713000D01*
X61928000Y-31620000D02*
X61928000Y-33123000D01*
X61928000Y-35203000D02*
X61928000Y-36706000D01*
X61968000Y-31627000D02*
X61968000Y-33123000D01*
X61968000Y-35203000D02*
X61968000Y-36699000D01*
X62008000Y-31635000D02*
X62008000Y-33123000D01*
X62008000Y-35203000D02*
X62008000Y-36691000D01*
X62048000Y-31643000D02*
X62048000Y-33123000D01*
X62048000Y-35203000D02*
X62048000Y-36683000D01*
X62088000Y-31652000D02*
X62088000Y-33123000D01*
X62088000Y-35203000D02*
X62088000Y-36674000D01*
X62128000Y-31662000D02*
X62128000Y-33123000D01*
X62128000Y-35203000D02*
X62128000Y-36664000D01*
X62168000Y-31672000D02*
X62168000Y-33123000D01*
X62168000Y-35203000D02*
X62168000Y-36654000D01*
X62209000Y-31683000D02*
X62209000Y-33123000D01*
X62209000Y-35203000D02*
X62209000Y-36643000D01*
X62249000Y-31695000D02*
X62249000Y-33123000D01*
X62249000Y-35203000D02*
X62249000Y-36631000D01*
X62289000Y-31708000D02*
X62289000Y-33123000D01*
X62289000Y-35203000D02*
X62289000Y-36618000D01*
X62329000Y-31721000D02*
X62329000Y-33123000D01*
X62329000Y-35203000D02*
X62329000Y-36605000D01*
X62369000Y-31735000D02*
X62369000Y-33123000D01*
X62369000Y-35203000D02*
X62369000Y-36591000D01*
X62409000Y-31749000D02*
X62409000Y-33123000D01*
X62409000Y-35203000D02*
X62409000Y-36577000D01*
X62449000Y-31765000D02*
X62449000Y-33123000D01*
X62449000Y-35203000D02*
X62449000Y-36561000D01*
X62489000Y-31781000D02*
X62489000Y-33123000D01*
X62489000Y-35203000D02*
X62489000Y-36545000D01*
X62529000Y-31798000D02*
X62529000Y-33123000D01*
X62529000Y-35203000D02*
X62529000Y-36528000D01*
X62569000Y-31815000D02*
X62569000Y-33123000D01*
X62569000Y-35203000D02*
X62569000Y-36511000D01*
X62609000Y-31834000D02*
X62609000Y-33123000D01*
X62609000Y-35203000D02*
X62609000Y-36492000D01*
X62649000Y-31853000D02*
X62649000Y-33123000D01*
X62649000Y-35203000D02*
X62649000Y-36473000D01*
X62689000Y-31873000D02*
X62689000Y-33123000D01*
X62689000Y-35203000D02*
X62689000Y-36453000D01*
X62729000Y-31895000D02*
X62729000Y-33123000D01*
X62729000Y-35203000D02*
X62729000Y-36431000D01*
X62769000Y-31916000D02*
X62769000Y-33123000D01*
X62769000Y-35203000D02*
X62769000Y-36410000D01*
X62809000Y-31939000D02*
X62809000Y-33123000D01*
X62809000Y-35203000D02*
X62809000Y-36387000D01*
X62849000Y-31963000D02*
X62849000Y-33123000D01*
X62849000Y-35203000D02*
X62849000Y-36363000D01*
X62889000Y-31988000D02*
X62889000Y-33123000D01*
X62889000Y-35203000D02*
X62889000Y-36338000D01*
X62929000Y-32014000D02*
X62929000Y-33123000D01*
X62929000Y-35203000D02*
X62929000Y-36312000D01*
X62969000Y-32041000D02*
X62969000Y-33123000D01*
X62969000Y-35203000D02*
X62969000Y-36285000D01*
X63009000Y-32068000D02*
X63009000Y-33123000D01*
X63009000Y-35203000D02*
X63009000Y-36258000D01*
X63049000Y-32098000D02*
X63049000Y-33123000D01*
X63049000Y-35203000D02*
X63049000Y-36228000D01*
X63089000Y-32128000D02*
X63089000Y-33123000D01*
X63089000Y-35203000D02*
X63089000Y-36198000D01*
X63129000Y-32159000D02*
X63129000Y-33123000D01*
X63129000Y-35203000D02*
X63129000Y-36167000D01*
X63169000Y-32192000D02*
X63169000Y-33123000D01*
X63169000Y-35203000D02*
X63169000Y-36134000D01*
X63209000Y-32226000D02*
X63209000Y-33123000D01*
X63209000Y-35203000D02*
X63209000Y-36100000D01*
X63249000Y-32262000D02*
X63249000Y-33123000D01*
X63249000Y-35203000D02*
X63249000Y-36064000D01*
X63289000Y-32299000D02*
X63289000Y-33123000D01*
X63289000Y-35203000D02*
X63289000Y-36027000D01*
X63329000Y-32337000D02*
X63329000Y-33123000D01*
X63329000Y-35203000D02*
X63329000Y-35989000D01*
X63369000Y-32378000D02*
X63369000Y-33123000D01*
X63369000Y-35203000D02*
X63369000Y-35948000D01*
X63409000Y-32420000D02*
X63409000Y-33123000D01*
X63409000Y-35203000D02*
X63409000Y-35906000D01*
X63449000Y-32464000D02*
X63449000Y-33123000D01*
X63449000Y-35203000D02*
X63449000Y-35862000D01*
X63489000Y-32510000D02*
X63489000Y-33123000D01*
X63489000Y-35203000D02*
X63489000Y-35816000D01*
X63529000Y-32558000D02*
X63529000Y-33123000D01*
X63529000Y-35203000D02*
X63529000Y-35768000D01*
X63569000Y-32609000D02*
X63569000Y-33123000D01*
X63569000Y-35203000D02*
X63569000Y-35717000D01*
X63609000Y-32663000D02*
X63609000Y-33123000D01*
X63609000Y-35203000D02*
X63609000Y-35663000D01*
X63649000Y-32720000D02*
X63649000Y-33123000D01*
X63649000Y-35203000D02*
X63649000Y-35606000D01*
X63689000Y-32780000D02*
X63689000Y-33123000D01*
X63689000Y-35203000D02*
X63689000Y-35546000D01*
X63729000Y-32844000D02*
X63729000Y-33123000D01*
X63729000Y-35203000D02*
X63729000Y-35482000D01*
X63769000Y-32912000D02*
X63769000Y-33123000D01*
X63769000Y-35203000D02*
X63769000Y-35414000D01*
X63809000Y-32985000D02*
X63809000Y-35341000D01*
X63849000Y-33065000D02*
X63849000Y-35261000D01*
X63889000Y-33152000D02*
X63889000Y-35174000D01*
X63929000Y-33248000D02*
X63929000Y-35078000D01*
X63969000Y-33358000D02*
X63969000Y-34968000D01*
X64009000Y-33486000D02*
X64009000Y-34840000D01*
X64049000Y-33645000D02*
X64049000Y-34681000D01*
X64089000Y-33879000D02*
X64089000Y-34447000D01*
X64108000Y-34163000D02*
G75*
G03*
X64108000Y-34163000I-2620000J0D01*
G01*
%TD*%
D17*
X20955000Y-15875000D02*
X173355000Y-15875000D01*
X173355000Y-168275000D01*
X20955000Y-168275000D01*
X20955000Y-15875000D01*
M02*
