M48
; DRILL file {KiCad 7.0.1} date Sun Mar 26 09:28:15 2023
; FORMAT={-:-/ absolute / inch / decimal}
; #@! TF.CreationDate,2023-03-26T09:28:15-05:00
; #@! TF.GenerationSoftware,Kicad,Pcbnew,7.0.1
; #@! TF.FileFunction,Plated,1,4,PTH
FMAT,2
INCH
; #@! TA.AperFunction,Plated,PTH,ViaDrill
T1C0.0100
; #@! TA.AperFunction,Plated,PTH,ComponentDrill
T2C0.0315
; #@! TA.AperFunction,Plated,PTH,ComponentDrill
T3C0.0420
; #@! TA.AperFunction,Plated,PTH,ComponentDrill
T4C0.0480
%
G90
G05
T1
X0.9Y-1.075
X0.9Y-1.175
X0.9Y-1.275
X0.9Y-1.375
X0.9Y-1.475
X0.9Y-1.575
X0.9Y-1.675
X0.9Y-1.775
X0.9Y-1.875
X0.9Y-1.975
X0.9Y-2.075
X0.9Y-2.175
X0.9Y-2.275
X0.9Y-2.375
X0.9Y-2.475
X0.9Y-2.575
X0.9Y-2.675
X0.9Y-2.775
X0.9Y-2.875
X0.9Y-2.975
X0.9Y-3.075
X0.9Y-3.175
X0.9Y-3.275
X0.9Y-3.375
X0.9Y-3.475
X0.9Y-3.575
X0.9Y-3.675
X0.9Y-3.775
X0.9Y-3.875
X0.9Y-3.975
X0.9Y-4.075
X0.9Y-4.175
X0.9Y-4.275
X0.9Y-4.375
X0.9Y-4.475
X0.9Y-4.575
X0.9Y-4.675
X0.9Y-4.775
X0.9Y-4.875
X0.9Y-4.975
X0.9Y-5.075
X0.9Y-5.175
X0.9Y-5.275
X0.9Y-5.375
X0.9Y-5.475
X0.9Y-5.575
X0.9Y-5.675
X0.9Y-5.775
X0.9Y-5.875
X0.9Y-5.975
X0.9Y-6.075
X0.9Y-6.175
X0.95Y-1.075
X0.95Y-1.175
X0.95Y-1.275
X0.95Y-1.375
X0.95Y-1.475
X0.95Y-1.575
X0.95Y-1.675
X0.95Y-1.775
X0.95Y-1.875
X0.95Y-1.975
X0.95Y-2.075
X0.95Y-2.175
X0.95Y-2.275
X0.95Y-2.375
X0.95Y-2.475
X0.95Y-2.575
X0.95Y-2.675
X0.95Y-2.775
X0.95Y-2.875
X0.95Y-2.975
X0.95Y-3.075
X0.95Y-3.175
X0.95Y-3.275
X0.95Y-3.375
X0.95Y-3.475
X0.95Y-3.575
X0.95Y-3.675
X0.95Y-3.775
X0.95Y-3.875
X0.95Y-3.975
X0.95Y-4.075
X0.95Y-4.175
X0.95Y-4.275
X0.95Y-4.375
X0.95Y-4.475
X0.95Y-4.575
X0.95Y-4.675
X0.95Y-4.775
X0.95Y-4.875
X0.95Y-4.975
X0.95Y-5.075
X0.95Y-5.175
X0.95Y-5.275
X0.95Y-5.375
X0.95Y-5.475
X0.95Y-5.575
X0.95Y-5.675
X0.95Y-5.775
X0.95Y-5.875
X0.95Y-5.975
X0.95Y-6.075
X0.95Y-6.175
X1.0Y-1.075
X1.0Y-1.175
X1.0Y-1.275
X1.0Y-1.375
X1.0Y-1.475
X1.0Y-1.575
X1.0Y-1.675
X1.0Y-1.775
X1.0Y-1.875
X1.0Y-1.975
X1.0Y-2.075
X1.0Y-2.175
X1.0Y-2.275
X1.0Y-2.375
X1.0Y-2.475
X1.0Y-2.575
X1.0Y-2.675
X1.0Y-2.775
X1.0Y-2.875
X1.0Y-2.975
X1.0Y-3.075
X1.0Y-3.175
X1.0Y-3.275
X1.0Y-3.375
X1.0Y-3.475
X1.0Y-3.575
X1.0Y-3.675
X1.0Y-3.775
X1.0Y-3.875
X1.0Y-3.975
X1.0Y-4.075
X1.0Y-4.175
X1.0Y-4.275
X1.0Y-4.375
X1.0Y-4.475
X1.0Y-4.575
X1.0Y-4.675
X1.0Y-4.775
X1.0Y-4.875
X1.0Y-4.975
X1.0Y-5.075
X1.0Y-5.175
X1.0Y-5.275
X1.0Y-5.375
X1.0Y-5.475
X1.0Y-5.575
X1.0Y-5.675
X1.0Y-5.775
X1.0Y-5.875
X1.0Y-5.975
X1.0Y-6.075
X1.0Y-6.175
X1.275Y-0.7
X1.275Y-0.75
X1.275Y-0.8
X1.275Y-6.45
X1.275Y-6.5
X1.275Y-6.55
X1.375Y-0.7
X1.375Y-0.75
X1.375Y-0.8
X1.375Y-6.45
X1.375Y-6.5
X1.375Y-6.55
X1.475Y-0.7
X1.475Y-0.75
X1.475Y-0.8
X1.475Y-6.45
X1.475Y-6.5
X1.475Y-6.55
X1.575Y-0.7
X1.575Y-0.75
X1.575Y-0.8
X1.575Y-6.45
X1.575Y-6.5
X1.575Y-6.55
X1.675Y-0.7
X1.675Y-0.75
X1.675Y-0.8
X1.675Y-6.45
X1.675Y-6.5
X1.675Y-6.55
X1.775Y-0.7
X1.775Y-0.75
X1.775Y-0.8
X1.775Y-6.45
X1.775Y-6.5
X1.775Y-6.55
X1.875Y-0.7
X1.875Y-0.75
X1.875Y-0.8
X1.875Y-6.45
X1.875Y-6.5
X1.875Y-6.55
X1.975Y-0.7
X1.975Y-0.75
X1.975Y-0.8
X1.975Y-6.45
X1.975Y-6.5
X1.975Y-6.55
X2.075Y-0.7
X2.075Y-0.75
X2.075Y-0.8
X2.075Y-6.45
X2.075Y-6.5
X2.075Y-6.55
X2.17Y-1.4269
X2.175Y-0.7
X2.175Y-0.75
X2.175Y-0.8
X2.175Y-6.45
X2.175Y-6.5
X2.175Y-6.55
X2.275Y-0.7
X2.275Y-0.75
X2.275Y-0.8
X2.275Y-6.45
X2.275Y-6.5
X2.275Y-6.55
X2.375Y-0.7
X2.375Y-0.75
X2.375Y-0.8
X2.375Y-6.45
X2.375Y-6.5
X2.375Y-6.55
X2.475Y-0.7
X2.475Y-0.75
X2.475Y-0.8
X2.475Y-6.45
X2.475Y-6.5
X2.475Y-6.55
X2.575Y-0.7
X2.575Y-0.75
X2.575Y-0.8
X2.575Y-6.45
X2.575Y-6.5
X2.575Y-6.55
X2.675Y-0.7
X2.675Y-0.75
X2.675Y-0.8
X2.675Y-6.45
X2.675Y-6.5
X2.675Y-6.55
X2.775Y-0.7
X2.775Y-0.75
X2.775Y-0.8
X2.775Y-6.45
X2.775Y-6.5
X2.775Y-6.55
X2.875Y-0.7
X2.875Y-0.75
X2.875Y-0.8
X2.875Y-6.45
X2.875Y-6.5
X2.875Y-6.55
X2.9033Y-1.5483
X2.9275Y-1.6305
X2.975Y-0.7
X2.975Y-0.75
X2.975Y-0.8
X2.975Y-6.45
X2.975Y-6.5
X2.975Y-6.55
X3.075Y-0.7
X3.075Y-0.75
X3.075Y-0.8
X3.075Y-6.45
X3.075Y-6.5
X3.075Y-6.55
X3.175Y-0.7
X3.175Y-0.75
X3.175Y-0.8
X3.175Y-6.45
X3.175Y-6.5
X3.175Y-6.55
X3.275Y-0.7
X3.275Y-0.75
X3.275Y-0.8
X3.275Y-6.45
X3.275Y-6.5
X3.275Y-6.55
X3.375Y-0.7
X3.375Y-0.75
X3.375Y-0.8
X3.375Y-6.45
X3.375Y-6.5
X3.375Y-6.55
X3.475Y-0.7
X3.475Y-0.75
X3.475Y-0.8
X3.475Y-6.45
X3.475Y-6.5
X3.475Y-6.55
X3.575Y-0.7
X3.575Y-0.75
X3.575Y-0.8
X3.575Y-6.45
X3.575Y-6.5
X3.575Y-6.55
X3.675Y-0.7
X3.675Y-0.75
X3.675Y-0.8
X3.675Y-6.45
X3.675Y-6.5
X3.675Y-6.55
X3.775Y-0.7
X3.775Y-0.75
X3.775Y-0.8
X3.775Y-6.45
X3.775Y-6.5
X3.775Y-6.55
X3.875Y-0.7
X3.875Y-0.75
X3.875Y-0.8
X3.875Y-6.45
X3.875Y-6.5
X3.875Y-6.55
X3.975Y-0.7
X3.975Y-0.75
X3.975Y-0.8
X3.975Y-6.45
X3.975Y-6.5
X3.975Y-6.55
X4.075Y-0.7
X4.075Y-0.75
X4.075Y-0.8
X4.075Y-6.45
X4.075Y-6.5
X4.075Y-6.55
X4.175Y-0.7
X4.175Y-0.75
X4.175Y-0.8
X4.175Y-6.45
X4.175Y-6.5
X4.175Y-6.55
X4.275Y-0.7
X4.275Y-0.75
X4.275Y-0.8
X4.275Y-6.45
X4.275Y-6.5
X4.275Y-6.55
X4.375Y-0.7
X4.375Y-0.75
X4.375Y-0.8
X4.375Y-6.45
X4.375Y-6.5
X4.375Y-6.55
X4.475Y-0.7
X4.475Y-0.75
X4.475Y-0.8
X4.475Y-6.45
X4.475Y-6.5
X4.475Y-6.55
X4.575Y-0.7
X4.575Y-0.75
X4.575Y-0.8
X4.575Y-6.45
X4.575Y-6.5
X4.575Y-6.55
X4.675Y-0.7
X4.675Y-0.75
X4.675Y-0.8
X4.675Y-6.45
X4.675Y-6.5
X4.675Y-6.55
X4.775Y-0.7
X4.775Y-0.75
X4.775Y-0.8
X4.775Y-6.45
X4.775Y-6.5
X4.775Y-6.55
X4.875Y-0.7
X4.875Y-0.75
X4.875Y-0.8
X4.875Y-6.45
X4.875Y-6.5
X4.875Y-6.55
X4.975Y-0.7
X4.975Y-0.75
X4.975Y-0.8
X4.975Y-6.45
X4.975Y-6.5
X4.975Y-6.55
X5.075Y-0.7
X5.075Y-0.75
X5.075Y-0.8
X5.075Y-6.45
X5.075Y-6.5
X5.075Y-6.55
X5.175Y-0.7
X5.175Y-0.75
X5.175Y-0.8
X5.175Y-6.45
X5.175Y-6.5
X5.175Y-6.55
X5.275Y-0.7
X5.275Y-0.75
X5.275Y-0.8
X5.275Y-6.45
X5.275Y-6.5
X5.275Y-6.55
X5.375Y-0.7
X5.375Y-0.75
X5.375Y-0.8
X5.375Y-6.45
X5.375Y-6.5
X5.375Y-6.55
X5.475Y-0.7
X5.475Y-0.75
X5.475Y-0.8
X5.475Y-6.45
X5.475Y-6.5
X5.475Y-6.55
X5.575Y-0.7
X5.575Y-0.75
X5.575Y-0.8
X5.575Y-6.45
X5.575Y-6.5
X5.575Y-6.55
X5.675Y-0.7
X5.675Y-0.75
X5.675Y-0.8
X5.675Y-6.45
X5.675Y-6.5
X5.675Y-6.55
X5.775Y-0.7
X5.775Y-0.75
X5.775Y-0.8
X5.775Y-6.45
X5.775Y-6.5
X5.775Y-6.55
X5.875Y-0.7
X5.875Y-0.75
X5.875Y-0.8
X5.875Y-6.45
X5.875Y-6.5
X5.875Y-6.55
X5.975Y-0.7
X5.975Y-0.75
X5.975Y-0.8
X5.975Y-6.45
X5.975Y-6.5
X5.975Y-6.55
X6.075Y-0.7
X6.075Y-0.75
X6.075Y-0.8
X6.075Y-6.45
X6.075Y-6.5
X6.075Y-6.55
X6.175Y-0.7
X6.175Y-0.75
X6.175Y-0.8
X6.175Y-6.45
X6.175Y-6.5
X6.175Y-6.55
X6.275Y-0.7
X6.275Y-0.75
X6.275Y-0.8
X6.275Y-6.45
X6.275Y-6.5
X6.275Y-6.55
X6.375Y-0.7
X6.375Y-0.75
X6.375Y-0.8
X6.375Y-6.45
X6.375Y-6.5
X6.375Y-6.55
X6.65Y-1.075
X6.65Y-1.175
X6.65Y-1.275
X6.65Y-1.375
X6.65Y-1.475
X6.65Y-1.575
X6.65Y-1.675
X6.65Y-1.775
X6.65Y-1.875
X6.65Y-1.975
X6.65Y-2.075
X6.65Y-2.175
X6.65Y-2.275
X6.65Y-2.375
X6.65Y-2.475
X6.65Y-2.575
X6.65Y-2.675
X6.65Y-2.775
X6.65Y-2.875
X6.65Y-2.975
X6.65Y-3.075
X6.65Y-3.175
X6.65Y-3.275
X6.65Y-3.375
X6.65Y-3.475
X6.65Y-3.575
X6.65Y-3.675
X6.65Y-3.775
X6.65Y-3.875
X6.65Y-3.975
X6.65Y-4.075
X6.65Y-4.175
X6.65Y-4.275
X6.65Y-4.375
X6.65Y-4.475
X6.65Y-4.575
X6.65Y-4.675
X6.65Y-4.775
X6.65Y-4.875
X6.65Y-4.975
X6.65Y-5.075
X6.65Y-5.175
X6.65Y-5.275
X6.65Y-5.375
X6.65Y-5.475
X6.65Y-5.575
X6.65Y-5.675
X6.65Y-5.775
X6.65Y-5.875
X6.65Y-5.975
X6.65Y-6.075
X6.65Y-6.175
X6.7Y-1.075
X6.7Y-1.175
X6.7Y-1.275
X6.7Y-1.375
X6.7Y-1.475
X6.7Y-1.575
X6.7Y-1.675
X6.7Y-1.775
X6.7Y-1.875
X6.7Y-1.975
X6.7Y-2.075
X6.7Y-2.175
X6.7Y-2.275
X6.7Y-2.375
X6.7Y-2.475
X6.7Y-2.575
X6.7Y-2.675
X6.7Y-2.775
X6.7Y-2.875
X6.7Y-2.975
X6.7Y-3.075
X6.7Y-3.175
X6.7Y-3.275
X6.7Y-3.375
X6.7Y-3.475
X6.7Y-3.575
X6.7Y-3.675
X6.7Y-3.775
X6.7Y-3.875
X6.7Y-3.975
X6.7Y-4.075
X6.7Y-4.175
X6.7Y-4.275
X6.7Y-4.375
X6.7Y-4.475
X6.7Y-4.575
X6.7Y-4.675
X6.7Y-4.775
X6.7Y-4.875
X6.7Y-4.975
X6.7Y-5.075
X6.7Y-5.175
X6.7Y-5.275
X6.7Y-5.375
X6.7Y-5.475
X6.7Y-5.575
X6.7Y-5.675
X6.7Y-5.775
X6.7Y-5.875
X6.7Y-5.975
X6.7Y-6.075
X6.7Y-6.175
X6.75Y-1.075
X6.75Y-1.175
X6.75Y-1.275
X6.75Y-1.375
X6.75Y-1.475
X6.75Y-1.575
X6.75Y-1.675
X6.75Y-1.775
X6.75Y-1.875
X6.75Y-1.975
X6.75Y-2.075
X6.75Y-2.175
X6.75Y-2.275
X6.75Y-2.375
X6.75Y-2.475
X6.75Y-2.575
X6.75Y-2.675
X6.75Y-2.775
X6.75Y-2.875
X6.75Y-2.975
X6.75Y-3.075
X6.75Y-3.175
X6.75Y-3.275
X6.75Y-3.375
X6.75Y-3.475
X6.75Y-3.575
X6.75Y-3.675
X6.75Y-3.775
X6.75Y-3.875
X6.75Y-3.975
X6.75Y-4.075
X6.75Y-4.175
X6.75Y-4.275
X6.75Y-4.375
X6.75Y-4.475
X6.75Y-4.575
X6.75Y-4.675
X6.75Y-4.775
X6.75Y-4.875
X6.75Y-4.975
X6.75Y-5.075
X6.75Y-5.175
X6.75Y-5.275
X6.75Y-5.375
X6.75Y-5.475
X6.75Y-5.575
X6.75Y-5.675
X6.75Y-5.775
X6.75Y-5.875
X6.75Y-5.975
X6.75Y-6.075
X6.75Y-6.175
T2
X1.545Y-1.32
X1.545Y-1.77
X1.745Y-1.32
X1.745Y-1.77
X2.07Y-2.12
X2.22Y-1.62
X2.22Y-1.72
X2.22Y-1.82
X2.22Y-1.92
X2.3716Y-1.345
X2.47Y-1.345
X2.52Y-1.62
X2.52Y-1.72
X2.52Y-1.82
X2.52Y-1.92
X2.52Y-2.12
X2.745Y-1.62
X2.745Y-1.72
X2.745Y-1.82
X2.745Y-1.92
X2.745Y-2.02
X2.745Y-2.12
X2.745Y-2.22
X2.745Y-2.32
X3.045Y-1.62
X3.045Y-1.72
X3.045Y-1.82
X3.045Y-1.92
X3.045Y-2.02
X3.045Y-2.12
X3.045Y-2.22
X3.045Y-2.32
X3.8216Y-1.345
X3.92Y-1.345
T3
X4.32Y-1.02
X4.32Y-1.12
X4.32Y-1.22
X4.32Y-1.32
X4.32Y-1.42
X4.32Y-1.52
X4.32Y-1.62
X4.32Y-1.72
X4.32Y-1.82
X4.32Y-1.92
X4.32Y-2.02
X4.32Y-2.12
X4.42Y-1.02
X4.42Y-1.12
X4.42Y-1.22
X4.42Y-1.32
X4.42Y-1.42
X4.42Y-1.52
X4.42Y-1.62
X4.42Y-1.72
X4.42Y-1.82
X4.42Y-1.92
X4.42Y-2.02
X4.42Y-2.12
X4.52Y-1.02
X4.52Y-1.12
X4.52Y-1.22
X4.52Y-1.32
X4.52Y-1.42
X4.52Y-1.52
X4.52Y-1.62
X4.52Y-1.72
X4.52Y-1.82
X4.52Y-1.92
X4.52Y-2.02
X4.52Y-2.12
X4.62Y-1.02
X4.62Y-1.12
X4.62Y-1.22
X4.62Y-1.32
X4.62Y-1.42
X4.62Y-1.52
X4.62Y-1.62
X4.62Y-1.72
X4.62Y-1.82
X4.62Y-1.92
X4.62Y-2.02
X4.62Y-2.12
X4.72Y-1.02
X4.72Y-1.12
X4.72Y-1.22
X4.72Y-1.32
X4.72Y-1.42
X4.72Y-1.52
X4.72Y-1.62
X4.72Y-1.72
X4.72Y-1.82
X4.72Y-1.92
X4.72Y-2.02
X4.72Y-2.12
X4.82Y-1.02
X4.82Y-1.12
X4.82Y-1.22
X4.82Y-1.32
X4.82Y-1.42
X4.82Y-1.52
X4.82Y-1.62
X4.82Y-1.72
X4.82Y-1.82
X4.82Y-1.92
X4.82Y-2.02
X4.82Y-2.12
X4.92Y-1.02
X4.92Y-1.12
X4.92Y-1.22
X4.92Y-1.32
X4.92Y-1.42
X4.92Y-1.52
X4.92Y-1.62
X4.92Y-1.72
X4.92Y-1.82
X4.92Y-1.92
X4.92Y-2.02
X4.92Y-2.12
X5.02Y-1.02
X5.02Y-1.12
X5.02Y-1.22
X5.02Y-1.32
X5.02Y-1.42
X5.02Y-1.52
X5.02Y-1.62
X5.02Y-1.72
X5.02Y-1.82
X5.02Y-1.92
X5.02Y-2.02
X5.02Y-2.12
X5.12Y-1.02
X5.12Y-1.12
X5.12Y-1.22
X5.12Y-1.32
X5.12Y-1.42
X5.12Y-1.52
X5.12Y-1.62
X5.12Y-1.72
X5.12Y-1.82
X5.12Y-1.92
X5.12Y-2.02
X5.12Y-2.12
X5.22Y-1.02
X5.22Y-1.12
X5.22Y-1.22
X5.22Y-1.32
X5.22Y-1.42
X5.22Y-1.52
X5.22Y-1.62
X5.22Y-1.72
X5.22Y-1.82
X5.22Y-1.92
X5.22Y-2.02
X5.22Y-2.12
X5.32Y-1.02
X5.32Y-1.12
X5.32Y-1.22
X5.32Y-1.32
X5.32Y-1.42
X5.32Y-1.52
X5.32Y-1.62
X5.32Y-1.72
X5.32Y-1.82
X5.32Y-1.92
X5.32Y-2.02
X5.32Y-2.12
X5.42Y-1.02
X5.42Y-1.12
X5.42Y-1.22
X5.42Y-1.32
X5.42Y-1.42
X5.42Y-1.52
X5.42Y-1.62
X5.42Y-1.72
X5.42Y-1.82
X5.42Y-1.92
X5.42Y-2.02
X5.42Y-2.12
X5.52Y-1.02
X5.52Y-1.12
X5.52Y-1.22
X5.52Y-1.32
X5.52Y-1.42
X5.52Y-1.52
X5.52Y-1.62
X5.52Y-1.72
X5.52Y-1.82
X5.52Y-1.92
X5.52Y-2.02
X5.52Y-2.12
X5.62Y-1.02
X5.62Y-1.12
X5.62Y-1.22
X5.62Y-1.32
X5.62Y-1.42
X5.62Y-1.52
X5.62Y-1.62
X5.62Y-1.72
X5.62Y-1.82
X5.62Y-1.92
X5.62Y-2.02
X5.62Y-2.12
X5.72Y-1.02
X5.72Y-1.12
X5.72Y-1.22
X5.72Y-1.32
X5.72Y-1.42
X5.72Y-1.52
X5.72Y-1.62
X5.72Y-1.72
X5.72Y-1.82
X5.72Y-1.92
X5.72Y-2.02
X5.72Y-2.12
X5.82Y-1.02
X5.82Y-1.12
X5.82Y-1.22
X5.82Y-1.32
X5.82Y-1.42
X5.82Y-1.52
X5.82Y-1.62
X5.82Y-1.72
X5.82Y-1.82
X5.82Y-1.92
X5.82Y-2.02
X5.82Y-2.12
X5.92Y-1.02
X5.92Y-1.12
X5.92Y-1.22
X5.92Y-1.32
X5.92Y-1.42
X5.92Y-1.52
X5.92Y-1.62
X5.92Y-1.72
X5.92Y-1.82
X5.92Y-1.92
X5.92Y-2.02
X5.92Y-2.12
X6.02Y-1.02
X6.02Y-1.12
X6.02Y-1.22
X6.02Y-1.32
X6.02Y-1.42
X6.02Y-1.52
X6.02Y-1.62
X6.02Y-1.72
X6.02Y-1.82
X6.02Y-1.92
X6.02Y-2.02
X6.02Y-2.12
X6.12Y-1.02
X6.12Y-1.12
X6.12Y-1.22
X6.12Y-1.32
X6.12Y-1.42
X6.12Y-1.52
X6.12Y-1.62
X6.12Y-1.72
X6.12Y-1.82
X6.12Y-1.92
X6.12Y-2.02
X6.12Y-2.12
X6.22Y-1.02
X6.22Y-1.12
X6.22Y-1.22
X6.22Y-1.32
X6.22Y-1.42
X6.22Y-1.52
X6.22Y-1.62
X6.22Y-1.72
X6.22Y-1.82
X6.22Y-1.92
X6.22Y-2.02
X6.22Y-2.12
T4
X1.42Y-0.995
X1.57Y-0.995
X1.72Y-0.995
X1.87Y-0.995
X2.02Y-0.995
X2.17Y-0.995
X2.32Y-0.995
X2.47Y-0.995
X2.77Y-0.995
X2.92Y-0.995
X3.07Y-0.995
X3.22Y-0.995
X3.37Y-0.995
X3.52Y-0.995
X3.67Y-0.995
X3.82Y-0.995
T0
M30
