%TF.GenerationSoftware,KiCad,Pcbnew,7.0.7*%
%TF.CreationDate,2023-09-23T16:53:28-05:00*%
%TF.ProjectId,CNH_Functional_Tester_1,434e485f-4675-46e6-9374-696f6e616c5f,B*%
%TF.SameCoordinates,Original*%
%TF.FileFunction,Legend,Bot*%
%TF.FilePolarity,Positive*%
%FSLAX46Y46*%
G04 Gerber Fmt 4.6, Leading zero omitted, Abs format (unit mm)*
G04 Created by KiCad (PCBNEW 7.0.7) date 2023-09-23 16:53:28*
%MOMM*%
%LPD*%
G01*
G04 APERTURE LIST*
%ADD10C,0.152400*%
%ADD11C,0.150000*%
%ADD12C,0.050000*%
G04 APERTURE END LIST*
D10*
X54877304Y-81538895D02*
X54199970Y-82554895D01*
X54199970Y-81538895D02*
X54877304Y-82554895D01*
X53861304Y-82264610D02*
X53377494Y-82264610D01*
X53958066Y-82554895D02*
X53619399Y-81538895D01*
X53619399Y-81538895D02*
X53280732Y-82554895D01*
X52409875Y-82554895D02*
X52990447Y-82554895D01*
X52700161Y-82554895D02*
X52700161Y-81538895D01*
X52700161Y-81538895D02*
X52796923Y-81684038D01*
X52796923Y-81684038D02*
X52893685Y-81780800D01*
X52893685Y-81780800D02*
X52990447Y-81829181D01*
X119043810Y-139866786D02*
X119043810Y-140350596D01*
X119334095Y-139770024D02*
X118318095Y-140108691D01*
X118318095Y-140108691D02*
X119334095Y-140447358D01*
X119334095Y-141318215D02*
X119334095Y-140737643D01*
X119334095Y-141027929D02*
X118318095Y-141027929D01*
X118318095Y-141027929D02*
X118463238Y-140931167D01*
X118463238Y-140931167D02*
X118560000Y-140834405D01*
X118560000Y-140834405D02*
X118608381Y-140737643D01*
X118318095Y-141947167D02*
X118318095Y-142043929D01*
X118318095Y-142043929D02*
X118366476Y-142140691D01*
X118366476Y-142140691D02*
X118414857Y-142189072D01*
X118414857Y-142189072D02*
X118511619Y-142237453D01*
X118511619Y-142237453D02*
X118705143Y-142285834D01*
X118705143Y-142285834D02*
X118947048Y-142285834D01*
X118947048Y-142285834D02*
X119140572Y-142237453D01*
X119140572Y-142237453D02*
X119237334Y-142189072D01*
X119237334Y-142189072D02*
X119285715Y-142140691D01*
X119285715Y-142140691D02*
X119334095Y-142043929D01*
X119334095Y-142043929D02*
X119334095Y-141947167D01*
X119334095Y-141947167D02*
X119285715Y-141850405D01*
X119285715Y-141850405D02*
X119237334Y-141802024D01*
X119237334Y-141802024D02*
X119140572Y-141753643D01*
X119140572Y-141753643D02*
X118947048Y-141705262D01*
X118947048Y-141705262D02*
X118705143Y-141705262D01*
X118705143Y-141705262D02*
X118511619Y-141753643D01*
X118511619Y-141753643D02*
X118414857Y-141802024D01*
X118414857Y-141802024D02*
X118366476Y-141850405D01*
X118366476Y-141850405D02*
X118318095Y-141947167D01*
X118318095Y-77032024D02*
X118318095Y-77612596D01*
X119334095Y-77322310D02*
X118318095Y-77322310D01*
X118318095Y-77854500D02*
X119334095Y-78531834D01*
X118318095Y-78531834D02*
X119334095Y-77854500D01*
X119334095Y-79451072D02*
X119334095Y-78870500D01*
X119334095Y-79160786D02*
X118318095Y-79160786D01*
X118318095Y-79160786D02*
X118463238Y-79064024D01*
X118463238Y-79064024D02*
X118560000Y-78967262D01*
X118560000Y-78967262D02*
X118608381Y-78870500D01*
X118269715Y-80612215D02*
X119576000Y-79741357D01*
X119334095Y-80950881D02*
X118318095Y-80950881D01*
X118318095Y-80950881D02*
X118318095Y-81192786D01*
X118318095Y-81192786D02*
X118366476Y-81337929D01*
X118366476Y-81337929D02*
X118463238Y-81434691D01*
X118463238Y-81434691D02*
X118560000Y-81483072D01*
X118560000Y-81483072D02*
X118753524Y-81531453D01*
X118753524Y-81531453D02*
X118898667Y-81531453D01*
X118898667Y-81531453D02*
X119092191Y-81483072D01*
X119092191Y-81483072D02*
X119188953Y-81434691D01*
X119188953Y-81434691D02*
X119285715Y-81337929D01*
X119285715Y-81337929D02*
X119334095Y-81192786D01*
X119334095Y-81192786D02*
X119334095Y-80950881D01*
X119334095Y-82499072D02*
X119334095Y-81918500D01*
X119334095Y-82208786D02*
X118318095Y-82208786D01*
X118318095Y-82208786D02*
X118463238Y-82112024D01*
X118463238Y-82112024D02*
X118560000Y-82015262D01*
X118560000Y-82015262D02*
X118608381Y-81918500D01*
X118753524Y-83079643D02*
X118705143Y-82982881D01*
X118705143Y-82982881D02*
X118656762Y-82934500D01*
X118656762Y-82934500D02*
X118560000Y-82886119D01*
X118560000Y-82886119D02*
X118511619Y-82886119D01*
X118511619Y-82886119D02*
X118414857Y-82934500D01*
X118414857Y-82934500D02*
X118366476Y-82982881D01*
X118366476Y-82982881D02*
X118318095Y-83079643D01*
X118318095Y-83079643D02*
X118318095Y-83273167D01*
X118318095Y-83273167D02*
X118366476Y-83369929D01*
X118366476Y-83369929D02*
X118414857Y-83418310D01*
X118414857Y-83418310D02*
X118511619Y-83466691D01*
X118511619Y-83466691D02*
X118560000Y-83466691D01*
X118560000Y-83466691D02*
X118656762Y-83418310D01*
X118656762Y-83418310D02*
X118705143Y-83369929D01*
X118705143Y-83369929D02*
X118753524Y-83273167D01*
X118753524Y-83273167D02*
X118753524Y-83079643D01*
X118753524Y-83079643D02*
X118801905Y-82982881D01*
X118801905Y-82982881D02*
X118850286Y-82934500D01*
X118850286Y-82934500D02*
X118947048Y-82886119D01*
X118947048Y-82886119D02*
X119140572Y-82886119D01*
X119140572Y-82886119D02*
X119237334Y-82934500D01*
X119237334Y-82934500D02*
X119285715Y-82982881D01*
X119285715Y-82982881D02*
X119334095Y-83079643D01*
X119334095Y-83079643D02*
X119334095Y-83273167D01*
X119334095Y-83273167D02*
X119285715Y-83369929D01*
X119285715Y-83369929D02*
X119237334Y-83418310D01*
X119237334Y-83418310D02*
X119140572Y-83466691D01*
X119140572Y-83466691D02*
X118947048Y-83466691D01*
X118947048Y-83466691D02*
X118850286Y-83418310D01*
X118850286Y-83418310D02*
X118801905Y-83369929D01*
X118801905Y-83369929D02*
X118753524Y-83273167D01*
X91394095Y-81876167D02*
X90378095Y-81876167D01*
X90378095Y-81876167D02*
X90378095Y-82118072D01*
X90378095Y-82118072D02*
X90426476Y-82263215D01*
X90426476Y-82263215D02*
X90523238Y-82359977D01*
X90523238Y-82359977D02*
X90620000Y-82408358D01*
X90620000Y-82408358D02*
X90813524Y-82456739D01*
X90813524Y-82456739D02*
X90958667Y-82456739D01*
X90958667Y-82456739D02*
X91152191Y-82408358D01*
X91152191Y-82408358D02*
X91248953Y-82359977D01*
X91248953Y-82359977D02*
X91345715Y-82263215D01*
X91345715Y-82263215D02*
X91394095Y-82118072D01*
X91394095Y-82118072D02*
X91394095Y-81876167D01*
X90378095Y-83375977D02*
X90378095Y-82892167D01*
X90378095Y-82892167D02*
X90861905Y-82843786D01*
X90861905Y-82843786D02*
X90813524Y-82892167D01*
X90813524Y-82892167D02*
X90765143Y-82988929D01*
X90765143Y-82988929D02*
X90765143Y-83230834D01*
X90765143Y-83230834D02*
X90813524Y-83327596D01*
X90813524Y-83327596D02*
X90861905Y-83375977D01*
X90861905Y-83375977D02*
X90958667Y-83424358D01*
X90958667Y-83424358D02*
X91200572Y-83424358D01*
X91200572Y-83424358D02*
X91297334Y-83375977D01*
X91297334Y-83375977D02*
X91345715Y-83327596D01*
X91345715Y-83327596D02*
X91394095Y-83230834D01*
X91394095Y-83230834D02*
X91394095Y-82988929D01*
X91394095Y-82988929D02*
X91345715Y-82892167D01*
X91345715Y-82892167D02*
X91297334Y-82843786D01*
X148493238Y-123525095D02*
X148493238Y-122509095D01*
X148493238Y-122509095D02*
X148251333Y-122509095D01*
X148251333Y-122509095D02*
X148106190Y-122557476D01*
X148106190Y-122557476D02*
X148009428Y-122654238D01*
X148009428Y-122654238D02*
X147961047Y-122751000D01*
X147961047Y-122751000D02*
X147912666Y-122944524D01*
X147912666Y-122944524D02*
X147912666Y-123089667D01*
X147912666Y-123089667D02*
X147961047Y-123283191D01*
X147961047Y-123283191D02*
X148009428Y-123379953D01*
X148009428Y-123379953D02*
X148106190Y-123476715D01*
X148106190Y-123476715D02*
X148251333Y-123525095D01*
X148251333Y-123525095D02*
X148493238Y-123525095D01*
X147041809Y-122847762D02*
X147041809Y-123525095D01*
X147283714Y-122460715D02*
X147525619Y-123186429D01*
X147525619Y-123186429D02*
X146896666Y-123186429D01*
X146461238Y-123525095D02*
X146267714Y-123525095D01*
X146267714Y-123525095D02*
X146170952Y-123476715D01*
X146170952Y-123476715D02*
X146122571Y-123428334D01*
X146122571Y-123428334D02*
X146025809Y-123283191D01*
X146025809Y-123283191D02*
X145977428Y-123089667D01*
X145977428Y-123089667D02*
X145977428Y-122702619D01*
X145977428Y-122702619D02*
X146025809Y-122605857D01*
X146025809Y-122605857D02*
X146074190Y-122557476D01*
X146074190Y-122557476D02*
X146170952Y-122509095D01*
X146170952Y-122509095D02*
X146364476Y-122509095D01*
X146364476Y-122509095D02*
X146461238Y-122557476D01*
X146461238Y-122557476D02*
X146509619Y-122605857D01*
X146509619Y-122605857D02*
X146558000Y-122702619D01*
X146558000Y-122702619D02*
X146558000Y-122944524D01*
X146558000Y-122944524D02*
X146509619Y-123041286D01*
X146509619Y-123041286D02*
X146461238Y-123089667D01*
X146461238Y-123089667D02*
X146364476Y-123138048D01*
X146364476Y-123138048D02*
X146170952Y-123138048D01*
X146170952Y-123138048D02*
X146074190Y-123089667D01*
X146074190Y-123089667D02*
X146025809Y-123041286D01*
X146025809Y-123041286D02*
X145977428Y-122944524D01*
X145493619Y-123476715D02*
X145493619Y-123525095D01*
X145493619Y-123525095D02*
X145542000Y-123621857D01*
X145542000Y-123621857D02*
X145590381Y-123670238D01*
X145058190Y-123525095D02*
X145058190Y-122509095D01*
X145058190Y-122509095D02*
X144816285Y-122509095D01*
X144816285Y-122509095D02*
X144671142Y-122557476D01*
X144671142Y-122557476D02*
X144574380Y-122654238D01*
X144574380Y-122654238D02*
X144525999Y-122751000D01*
X144525999Y-122751000D02*
X144477618Y-122944524D01*
X144477618Y-122944524D02*
X144477618Y-123089667D01*
X144477618Y-123089667D02*
X144525999Y-123283191D01*
X144525999Y-123283191D02*
X144574380Y-123379953D01*
X144574380Y-123379953D02*
X144671142Y-123476715D01*
X144671142Y-123476715D02*
X144816285Y-123525095D01*
X144816285Y-123525095D02*
X145058190Y-123525095D01*
X143606761Y-122847762D02*
X143606761Y-123525095D01*
X143848666Y-122460715D02*
X144090571Y-123186429D01*
X144090571Y-123186429D02*
X143461618Y-123186429D01*
X142929428Y-122944524D02*
X143026190Y-122896143D01*
X143026190Y-122896143D02*
X143074571Y-122847762D01*
X143074571Y-122847762D02*
X143122952Y-122751000D01*
X143122952Y-122751000D02*
X143122952Y-122702619D01*
X143122952Y-122702619D02*
X143074571Y-122605857D01*
X143074571Y-122605857D02*
X143026190Y-122557476D01*
X143026190Y-122557476D02*
X142929428Y-122509095D01*
X142929428Y-122509095D02*
X142735904Y-122509095D01*
X142735904Y-122509095D02*
X142639142Y-122557476D01*
X142639142Y-122557476D02*
X142590761Y-122605857D01*
X142590761Y-122605857D02*
X142542380Y-122702619D01*
X142542380Y-122702619D02*
X142542380Y-122751000D01*
X142542380Y-122751000D02*
X142590761Y-122847762D01*
X142590761Y-122847762D02*
X142639142Y-122896143D01*
X142639142Y-122896143D02*
X142735904Y-122944524D01*
X142735904Y-122944524D02*
X142929428Y-122944524D01*
X142929428Y-122944524D02*
X143026190Y-122992905D01*
X143026190Y-122992905D02*
X143074571Y-123041286D01*
X143074571Y-123041286D02*
X143122952Y-123138048D01*
X143122952Y-123138048D02*
X143122952Y-123331572D01*
X143122952Y-123331572D02*
X143074571Y-123428334D01*
X143074571Y-123428334D02*
X143026190Y-123476715D01*
X143026190Y-123476715D02*
X142929428Y-123525095D01*
X142929428Y-123525095D02*
X142735904Y-123525095D01*
X142735904Y-123525095D02*
X142639142Y-123476715D01*
X142639142Y-123476715D02*
X142590761Y-123428334D01*
X142590761Y-123428334D02*
X142542380Y-123331572D01*
X142542380Y-123331572D02*
X142542380Y-123138048D01*
X142542380Y-123138048D02*
X142590761Y-123041286D01*
X142590761Y-123041286D02*
X142639142Y-122992905D01*
X142639142Y-122992905D02*
X142735904Y-122944524D01*
X77170095Y-80987167D02*
X76154095Y-80987167D01*
X76154095Y-80987167D02*
X76154095Y-81229072D01*
X76154095Y-81229072D02*
X76202476Y-81374215D01*
X76202476Y-81374215D02*
X76299238Y-81470977D01*
X76299238Y-81470977D02*
X76396000Y-81519358D01*
X76396000Y-81519358D02*
X76589524Y-81567739D01*
X76589524Y-81567739D02*
X76734667Y-81567739D01*
X76734667Y-81567739D02*
X76928191Y-81519358D01*
X76928191Y-81519358D02*
X77024953Y-81470977D01*
X77024953Y-81470977D02*
X77121715Y-81374215D01*
X77121715Y-81374215D02*
X77170095Y-81229072D01*
X77170095Y-81229072D02*
X77170095Y-80987167D01*
X77170095Y-82535358D02*
X77170095Y-81954786D01*
X77170095Y-82245072D02*
X76154095Y-82245072D01*
X76154095Y-82245072D02*
X76299238Y-82148310D01*
X76299238Y-82148310D02*
X76396000Y-82051548D01*
X76396000Y-82051548D02*
X76444381Y-81954786D01*
X76154095Y-83164310D02*
X76154095Y-83261072D01*
X76154095Y-83261072D02*
X76202476Y-83357834D01*
X76202476Y-83357834D02*
X76250857Y-83406215D01*
X76250857Y-83406215D02*
X76347619Y-83454596D01*
X76347619Y-83454596D02*
X76541143Y-83502977D01*
X76541143Y-83502977D02*
X76783048Y-83502977D01*
X76783048Y-83502977D02*
X76976572Y-83454596D01*
X76976572Y-83454596D02*
X77073334Y-83406215D01*
X77073334Y-83406215D02*
X77121715Y-83357834D01*
X77121715Y-83357834D02*
X77170095Y-83261072D01*
X77170095Y-83261072D02*
X77170095Y-83164310D01*
X77170095Y-83164310D02*
X77121715Y-83067548D01*
X77121715Y-83067548D02*
X77073334Y-83019167D01*
X77073334Y-83019167D02*
X76976572Y-82970786D01*
X76976572Y-82970786D02*
X76783048Y-82922405D01*
X76783048Y-82922405D02*
X76541143Y-82922405D01*
X76541143Y-82922405D02*
X76347619Y-82970786D01*
X76347619Y-82970786D02*
X76250857Y-83019167D01*
X76250857Y-83019167D02*
X76202476Y-83067548D01*
X76202476Y-83067548D02*
X76154095Y-83164310D01*
X146588238Y-90505095D02*
X146588238Y-89489095D01*
X146588238Y-89489095D02*
X146346333Y-89489095D01*
X146346333Y-89489095D02*
X146201190Y-89537476D01*
X146201190Y-89537476D02*
X146104428Y-89634238D01*
X146104428Y-89634238D02*
X146056047Y-89731000D01*
X146056047Y-89731000D02*
X146007666Y-89924524D01*
X146007666Y-89924524D02*
X146007666Y-90069667D01*
X146007666Y-90069667D02*
X146056047Y-90263191D01*
X146056047Y-90263191D02*
X146104428Y-90359953D01*
X146104428Y-90359953D02*
X146201190Y-90456715D01*
X146201190Y-90456715D02*
X146346333Y-90505095D01*
X146346333Y-90505095D02*
X146588238Y-90505095D01*
X145620619Y-89585857D02*
X145572238Y-89537476D01*
X145572238Y-89537476D02*
X145475476Y-89489095D01*
X145475476Y-89489095D02*
X145233571Y-89489095D01*
X145233571Y-89489095D02*
X145136809Y-89537476D01*
X145136809Y-89537476D02*
X145088428Y-89585857D01*
X145088428Y-89585857D02*
X145040047Y-89682619D01*
X145040047Y-89682619D02*
X145040047Y-89779381D01*
X145040047Y-89779381D02*
X145088428Y-89924524D01*
X145088428Y-89924524D02*
X145669000Y-90505095D01*
X145669000Y-90505095D02*
X145040047Y-90505095D01*
X144701381Y-89489095D02*
X144072428Y-89489095D01*
X144072428Y-89489095D02*
X144411095Y-89876143D01*
X144411095Y-89876143D02*
X144265952Y-89876143D01*
X144265952Y-89876143D02*
X144169190Y-89924524D01*
X144169190Y-89924524D02*
X144120809Y-89972905D01*
X144120809Y-89972905D02*
X144072428Y-90069667D01*
X144072428Y-90069667D02*
X144072428Y-90311572D01*
X144072428Y-90311572D02*
X144120809Y-90408334D01*
X144120809Y-90408334D02*
X144169190Y-90456715D01*
X144169190Y-90456715D02*
X144265952Y-90505095D01*
X144265952Y-90505095D02*
X144556238Y-90505095D01*
X144556238Y-90505095D02*
X144653000Y-90456715D01*
X144653000Y-90456715D02*
X144701381Y-90408334D01*
X143588619Y-90456715D02*
X143588619Y-90505095D01*
X143588619Y-90505095D02*
X143637000Y-90601857D01*
X143637000Y-90601857D02*
X143685381Y-90650238D01*
X143153190Y-90505095D02*
X143153190Y-89489095D01*
X143153190Y-89489095D02*
X142911285Y-89489095D01*
X142911285Y-89489095D02*
X142766142Y-89537476D01*
X142766142Y-89537476D02*
X142669380Y-89634238D01*
X142669380Y-89634238D02*
X142620999Y-89731000D01*
X142620999Y-89731000D02*
X142572618Y-89924524D01*
X142572618Y-89924524D02*
X142572618Y-90069667D01*
X142572618Y-90069667D02*
X142620999Y-90263191D01*
X142620999Y-90263191D02*
X142669380Y-90359953D01*
X142669380Y-90359953D02*
X142766142Y-90456715D01*
X142766142Y-90456715D02*
X142911285Y-90505095D01*
X142911285Y-90505095D02*
X143153190Y-90505095D01*
X142185571Y-89585857D02*
X142137190Y-89537476D01*
X142137190Y-89537476D02*
X142040428Y-89489095D01*
X142040428Y-89489095D02*
X141798523Y-89489095D01*
X141798523Y-89489095D02*
X141701761Y-89537476D01*
X141701761Y-89537476D02*
X141653380Y-89585857D01*
X141653380Y-89585857D02*
X141604999Y-89682619D01*
X141604999Y-89682619D02*
X141604999Y-89779381D01*
X141604999Y-89779381D02*
X141653380Y-89924524D01*
X141653380Y-89924524D02*
X142233952Y-90505095D01*
X142233952Y-90505095D02*
X141604999Y-90505095D01*
X141217952Y-89585857D02*
X141169571Y-89537476D01*
X141169571Y-89537476D02*
X141072809Y-89489095D01*
X141072809Y-89489095D02*
X140830904Y-89489095D01*
X140830904Y-89489095D02*
X140734142Y-89537476D01*
X140734142Y-89537476D02*
X140685761Y-89585857D01*
X140685761Y-89585857D02*
X140637380Y-89682619D01*
X140637380Y-89682619D02*
X140637380Y-89779381D01*
X140637380Y-89779381D02*
X140685761Y-89924524D01*
X140685761Y-89924524D02*
X141266333Y-90505095D01*
X141266333Y-90505095D02*
X140637380Y-90505095D01*
X71074095Y-139915167D02*
X70058095Y-139915167D01*
X70058095Y-140592501D02*
X70058095Y-140786025D01*
X70058095Y-140786025D02*
X70106476Y-140882787D01*
X70106476Y-140882787D02*
X70203238Y-140979549D01*
X70203238Y-140979549D02*
X70396762Y-141027930D01*
X70396762Y-141027930D02*
X70735429Y-141027930D01*
X70735429Y-141027930D02*
X70928953Y-140979549D01*
X70928953Y-140979549D02*
X71025715Y-140882787D01*
X71025715Y-140882787D02*
X71074095Y-140786025D01*
X71074095Y-140786025D02*
X71074095Y-140592501D01*
X71074095Y-140592501D02*
X71025715Y-140495739D01*
X71025715Y-140495739D02*
X70928953Y-140398977D01*
X70928953Y-140398977D02*
X70735429Y-140350596D01*
X70735429Y-140350596D02*
X70396762Y-140350596D01*
X70396762Y-140350596D02*
X70203238Y-140398977D01*
X70203238Y-140398977D02*
X70106476Y-140495739D01*
X70106476Y-140495739D02*
X70058095Y-140592501D01*
X71074095Y-142043930D02*
X70590286Y-141705263D01*
X71074095Y-141463358D02*
X70058095Y-141463358D01*
X70058095Y-141463358D02*
X70058095Y-141850406D01*
X70058095Y-141850406D02*
X70106476Y-141947168D01*
X70106476Y-141947168D02*
X70154857Y-141995549D01*
X70154857Y-141995549D02*
X70251619Y-142043930D01*
X70251619Y-142043930D02*
X70396762Y-142043930D01*
X70396762Y-142043930D02*
X70493524Y-141995549D01*
X70493524Y-141995549D02*
X70541905Y-141947168D01*
X70541905Y-141947168D02*
X70590286Y-141850406D01*
X70590286Y-141850406D02*
X70590286Y-141463358D01*
X70541905Y-142818025D02*
X70541905Y-142479358D01*
X71074095Y-142479358D02*
X70058095Y-142479358D01*
X70058095Y-142479358D02*
X70058095Y-142963168D01*
X113238095Y-77032024D02*
X113238095Y-77612596D01*
X114254095Y-77322310D02*
X113238095Y-77322310D01*
X113238095Y-77854500D02*
X114254095Y-78531834D01*
X113238095Y-78531834D02*
X114254095Y-77854500D01*
X113334857Y-78870500D02*
X113286476Y-78918881D01*
X113286476Y-78918881D02*
X113238095Y-79015643D01*
X113238095Y-79015643D02*
X113238095Y-79257548D01*
X113238095Y-79257548D02*
X113286476Y-79354310D01*
X113286476Y-79354310D02*
X113334857Y-79402691D01*
X113334857Y-79402691D02*
X113431619Y-79451072D01*
X113431619Y-79451072D02*
X113528381Y-79451072D01*
X113528381Y-79451072D02*
X113673524Y-79402691D01*
X113673524Y-79402691D02*
X114254095Y-78822119D01*
X114254095Y-78822119D02*
X114254095Y-79451072D01*
X113189715Y-80612215D02*
X114496000Y-79741357D01*
X114254095Y-80950881D02*
X113238095Y-80950881D01*
X113238095Y-80950881D02*
X113238095Y-81192786D01*
X113238095Y-81192786D02*
X113286476Y-81337929D01*
X113286476Y-81337929D02*
X113383238Y-81434691D01*
X113383238Y-81434691D02*
X113480000Y-81483072D01*
X113480000Y-81483072D02*
X113673524Y-81531453D01*
X113673524Y-81531453D02*
X113818667Y-81531453D01*
X113818667Y-81531453D02*
X114012191Y-81483072D01*
X114012191Y-81483072D02*
X114108953Y-81434691D01*
X114108953Y-81434691D02*
X114205715Y-81337929D01*
X114205715Y-81337929D02*
X114254095Y-81192786D01*
X114254095Y-81192786D02*
X114254095Y-80950881D01*
X114254095Y-82499072D02*
X114254095Y-81918500D01*
X114254095Y-82208786D02*
X113238095Y-82208786D01*
X113238095Y-82208786D02*
X113383238Y-82112024D01*
X113383238Y-82112024D02*
X113480000Y-82015262D01*
X113480000Y-82015262D02*
X113528381Y-81918500D01*
X113238095Y-83369929D02*
X113238095Y-83176405D01*
X113238095Y-83176405D02*
X113286476Y-83079643D01*
X113286476Y-83079643D02*
X113334857Y-83031262D01*
X113334857Y-83031262D02*
X113480000Y-82934500D01*
X113480000Y-82934500D02*
X113673524Y-82886119D01*
X113673524Y-82886119D02*
X114060572Y-82886119D01*
X114060572Y-82886119D02*
X114157334Y-82934500D01*
X114157334Y-82934500D02*
X114205715Y-82982881D01*
X114205715Y-82982881D02*
X114254095Y-83079643D01*
X114254095Y-83079643D02*
X114254095Y-83273167D01*
X114254095Y-83273167D02*
X114205715Y-83369929D01*
X114205715Y-83369929D02*
X114157334Y-83418310D01*
X114157334Y-83418310D02*
X114060572Y-83466691D01*
X114060572Y-83466691D02*
X113818667Y-83466691D01*
X113818667Y-83466691D02*
X113721905Y-83418310D01*
X113721905Y-83418310D02*
X113673524Y-83369929D01*
X113673524Y-83369929D02*
X113625143Y-83273167D01*
X113625143Y-83273167D02*
X113625143Y-83079643D01*
X113625143Y-83079643D02*
X113673524Y-82982881D01*
X113673524Y-82982881D02*
X113721905Y-82934500D01*
X113721905Y-82934500D02*
X113818667Y-82886119D01*
X82250095Y-81939548D02*
X81234095Y-81939548D01*
X81234095Y-81939548D02*
X81234095Y-82181453D01*
X81234095Y-82181453D02*
X81282476Y-82326596D01*
X81282476Y-82326596D02*
X81379238Y-82423358D01*
X81379238Y-82423358D02*
X81476000Y-82471739D01*
X81476000Y-82471739D02*
X81669524Y-82520120D01*
X81669524Y-82520120D02*
X81814667Y-82520120D01*
X81814667Y-82520120D02*
X82008191Y-82471739D01*
X82008191Y-82471739D02*
X82104953Y-82423358D01*
X82104953Y-82423358D02*
X82201715Y-82326596D01*
X82201715Y-82326596D02*
X82250095Y-82181453D01*
X82250095Y-82181453D02*
X82250095Y-81939548D01*
X81669524Y-83100691D02*
X81621143Y-83003929D01*
X81621143Y-83003929D02*
X81572762Y-82955548D01*
X81572762Y-82955548D02*
X81476000Y-82907167D01*
X81476000Y-82907167D02*
X81427619Y-82907167D01*
X81427619Y-82907167D02*
X81330857Y-82955548D01*
X81330857Y-82955548D02*
X81282476Y-83003929D01*
X81282476Y-83003929D02*
X81234095Y-83100691D01*
X81234095Y-83100691D02*
X81234095Y-83294215D01*
X81234095Y-83294215D02*
X81282476Y-83390977D01*
X81282476Y-83390977D02*
X81330857Y-83439358D01*
X81330857Y-83439358D02*
X81427619Y-83487739D01*
X81427619Y-83487739D02*
X81476000Y-83487739D01*
X81476000Y-83487739D02*
X81572762Y-83439358D01*
X81572762Y-83439358D02*
X81621143Y-83390977D01*
X81621143Y-83390977D02*
X81669524Y-83294215D01*
X81669524Y-83294215D02*
X81669524Y-83100691D01*
X81669524Y-83100691D02*
X81717905Y-83003929D01*
X81717905Y-83003929D02*
X81766286Y-82955548D01*
X81766286Y-82955548D02*
X81863048Y-82907167D01*
X81863048Y-82907167D02*
X82056572Y-82907167D01*
X82056572Y-82907167D02*
X82153334Y-82955548D01*
X82153334Y-82955548D02*
X82201715Y-83003929D01*
X82201715Y-83003929D02*
X82250095Y-83100691D01*
X82250095Y-83100691D02*
X82250095Y-83294215D01*
X82250095Y-83294215D02*
X82201715Y-83390977D01*
X82201715Y-83390977D02*
X82153334Y-83439358D01*
X82153334Y-83439358D02*
X82056572Y-83487739D01*
X82056572Y-83487739D02*
X81863048Y-83487739D01*
X81863048Y-83487739D02*
X81766286Y-83439358D01*
X81766286Y-83439358D02*
X81717905Y-83390977D01*
X81717905Y-83390977D02*
X81669524Y-83294215D01*
X59341715Y-81081643D02*
X59390095Y-81226786D01*
X59390095Y-81226786D02*
X59390095Y-81468691D01*
X59390095Y-81468691D02*
X59341715Y-81565453D01*
X59341715Y-81565453D02*
X59293334Y-81613834D01*
X59293334Y-81613834D02*
X59196572Y-81662215D01*
X59196572Y-81662215D02*
X59099810Y-81662215D01*
X59099810Y-81662215D02*
X59003048Y-81613834D01*
X59003048Y-81613834D02*
X58954667Y-81565453D01*
X58954667Y-81565453D02*
X58906286Y-81468691D01*
X58906286Y-81468691D02*
X58857905Y-81275167D01*
X58857905Y-81275167D02*
X58809524Y-81178405D01*
X58809524Y-81178405D02*
X58761143Y-81130024D01*
X58761143Y-81130024D02*
X58664381Y-81081643D01*
X58664381Y-81081643D02*
X58567619Y-81081643D01*
X58567619Y-81081643D02*
X58470857Y-81130024D01*
X58470857Y-81130024D02*
X58422476Y-81178405D01*
X58422476Y-81178405D02*
X58374095Y-81275167D01*
X58374095Y-81275167D02*
X58374095Y-81517072D01*
X58374095Y-81517072D02*
X58422476Y-81662215D01*
X59293334Y-82678215D02*
X59341715Y-82629834D01*
X59341715Y-82629834D02*
X59390095Y-82484691D01*
X59390095Y-82484691D02*
X59390095Y-82387929D01*
X59390095Y-82387929D02*
X59341715Y-82242786D01*
X59341715Y-82242786D02*
X59244953Y-82146024D01*
X59244953Y-82146024D02*
X59148191Y-82097643D01*
X59148191Y-82097643D02*
X58954667Y-82049262D01*
X58954667Y-82049262D02*
X58809524Y-82049262D01*
X58809524Y-82049262D02*
X58616000Y-82097643D01*
X58616000Y-82097643D02*
X58519238Y-82146024D01*
X58519238Y-82146024D02*
X58422476Y-82242786D01*
X58422476Y-82242786D02*
X58374095Y-82387929D01*
X58374095Y-82387929D02*
X58374095Y-82484691D01*
X58374095Y-82484691D02*
X58422476Y-82629834D01*
X58422476Y-82629834D02*
X58470857Y-82678215D01*
X59390095Y-83597453D02*
X59390095Y-83113643D01*
X59390095Y-83113643D02*
X58374095Y-83113643D01*
X116503810Y-139866786D02*
X116503810Y-140350596D01*
X116794095Y-139770024D02*
X115778095Y-140108691D01*
X115778095Y-140108691D02*
X116794095Y-140447358D01*
X116794095Y-140834405D02*
X116794095Y-141027929D01*
X116794095Y-141027929D02*
X116745715Y-141124691D01*
X116745715Y-141124691D02*
X116697334Y-141173072D01*
X116697334Y-141173072D02*
X116552191Y-141269834D01*
X116552191Y-141269834D02*
X116358667Y-141318215D01*
X116358667Y-141318215D02*
X115971619Y-141318215D01*
X115971619Y-141318215D02*
X115874857Y-141269834D01*
X115874857Y-141269834D02*
X115826476Y-141221453D01*
X115826476Y-141221453D02*
X115778095Y-141124691D01*
X115778095Y-141124691D02*
X115778095Y-140931167D01*
X115778095Y-140931167D02*
X115826476Y-140834405D01*
X115826476Y-140834405D02*
X115874857Y-140786024D01*
X115874857Y-140786024D02*
X115971619Y-140737643D01*
X115971619Y-140737643D02*
X116213524Y-140737643D01*
X116213524Y-140737643D02*
X116310286Y-140786024D01*
X116310286Y-140786024D02*
X116358667Y-140834405D01*
X116358667Y-140834405D02*
X116407048Y-140931167D01*
X116407048Y-140931167D02*
X116407048Y-141124691D01*
X116407048Y-141124691D02*
X116358667Y-141221453D01*
X116358667Y-141221453D02*
X116310286Y-141269834D01*
X116310286Y-141269834D02*
X116213524Y-141318215D01*
X100538095Y-78588167D02*
X100538095Y-79168739D01*
X101554095Y-78878453D02*
X100538095Y-78878453D01*
X100538095Y-79410643D02*
X101554095Y-80087977D01*
X100538095Y-80087977D02*
X101554095Y-79410643D01*
X100538095Y-80668548D02*
X100538095Y-80765310D01*
X100538095Y-80765310D02*
X100586476Y-80862072D01*
X100586476Y-80862072D02*
X100634857Y-80910453D01*
X100634857Y-80910453D02*
X100731619Y-80958834D01*
X100731619Y-80958834D02*
X100925143Y-81007215D01*
X100925143Y-81007215D02*
X101167048Y-81007215D01*
X101167048Y-81007215D02*
X101360572Y-80958834D01*
X101360572Y-80958834D02*
X101457334Y-80910453D01*
X101457334Y-80910453D02*
X101505715Y-80862072D01*
X101505715Y-80862072D02*
X101554095Y-80765310D01*
X101554095Y-80765310D02*
X101554095Y-80668548D01*
X101554095Y-80668548D02*
X101505715Y-80571786D01*
X101505715Y-80571786D02*
X101457334Y-80523405D01*
X101457334Y-80523405D02*
X101360572Y-80475024D01*
X101360572Y-80475024D02*
X101167048Y-80426643D01*
X101167048Y-80426643D02*
X100925143Y-80426643D01*
X100925143Y-80426643D02*
X100731619Y-80475024D01*
X100731619Y-80475024D02*
X100634857Y-80523405D01*
X100634857Y-80523405D02*
X100586476Y-80571786D01*
X100586476Y-80571786D02*
X100538095Y-80668548D01*
X101505715Y-81491024D02*
X101554095Y-81491024D01*
X101554095Y-81491024D02*
X101650857Y-81442643D01*
X101650857Y-81442643D02*
X101699238Y-81394262D01*
X101554095Y-81926453D02*
X100538095Y-81926453D01*
X100538095Y-81926453D02*
X100538095Y-82168358D01*
X100538095Y-82168358D02*
X100586476Y-82313501D01*
X100586476Y-82313501D02*
X100683238Y-82410263D01*
X100683238Y-82410263D02*
X100780000Y-82458644D01*
X100780000Y-82458644D02*
X100973524Y-82507025D01*
X100973524Y-82507025D02*
X101118667Y-82507025D01*
X101118667Y-82507025D02*
X101312191Y-82458644D01*
X101312191Y-82458644D02*
X101408953Y-82410263D01*
X101408953Y-82410263D02*
X101505715Y-82313501D01*
X101505715Y-82313501D02*
X101554095Y-82168358D01*
X101554095Y-82168358D02*
X101554095Y-81926453D01*
X101554095Y-83474644D02*
X101554095Y-82894072D01*
X101554095Y-83184358D02*
X100538095Y-83184358D01*
X100538095Y-83184358D02*
X100683238Y-83087596D01*
X100683238Y-83087596D02*
X100780000Y-82990834D01*
X100780000Y-82990834D02*
X100828381Y-82894072D01*
X64179810Y-80224500D02*
X64179810Y-80708310D01*
X64470095Y-80127738D02*
X63454095Y-80466405D01*
X63454095Y-80466405D02*
X64470095Y-80805072D01*
X64470095Y-81724310D02*
X63986286Y-81385643D01*
X64470095Y-81143738D02*
X63454095Y-81143738D01*
X63454095Y-81143738D02*
X63454095Y-81530786D01*
X63454095Y-81530786D02*
X63502476Y-81627548D01*
X63502476Y-81627548D02*
X63550857Y-81675929D01*
X63550857Y-81675929D02*
X63647619Y-81724310D01*
X63647619Y-81724310D02*
X63792762Y-81724310D01*
X63792762Y-81724310D02*
X63889524Y-81675929D01*
X63889524Y-81675929D02*
X63937905Y-81627548D01*
X63937905Y-81627548D02*
X63986286Y-81530786D01*
X63986286Y-81530786D02*
X63986286Y-81143738D01*
X63937905Y-82159738D02*
X63937905Y-82498405D01*
X64470095Y-82643548D02*
X64470095Y-82159738D01*
X64470095Y-82159738D02*
X63454095Y-82159738D01*
X63454095Y-82159738D02*
X63454095Y-82643548D01*
X63937905Y-83417643D02*
X63937905Y-83078976D01*
X64470095Y-83078976D02*
X63454095Y-83078976D01*
X63454095Y-83078976D02*
X63454095Y-83562786D01*
X148493238Y-113365095D02*
X148493238Y-112349095D01*
X148493238Y-112349095D02*
X148251333Y-112349095D01*
X148251333Y-112349095D02*
X148106190Y-112397476D01*
X148106190Y-112397476D02*
X148009428Y-112494238D01*
X148009428Y-112494238D02*
X147961047Y-112591000D01*
X147961047Y-112591000D02*
X147912666Y-112784524D01*
X147912666Y-112784524D02*
X147912666Y-112929667D01*
X147912666Y-112929667D02*
X147961047Y-113123191D01*
X147961047Y-113123191D02*
X148009428Y-113219953D01*
X148009428Y-113219953D02*
X148106190Y-113316715D01*
X148106190Y-113316715D02*
X148251333Y-113365095D01*
X148251333Y-113365095D02*
X148493238Y-113365095D01*
X147041809Y-112687762D02*
X147041809Y-113365095D01*
X147283714Y-112300715D02*
X147525619Y-113026429D01*
X147525619Y-113026429D02*
X146896666Y-113026429D01*
X145977428Y-113365095D02*
X146558000Y-113365095D01*
X146267714Y-113365095D02*
X146267714Y-112349095D01*
X146267714Y-112349095D02*
X146364476Y-112494238D01*
X146364476Y-112494238D02*
X146461238Y-112591000D01*
X146461238Y-112591000D02*
X146558000Y-112639381D01*
X145493619Y-113316715D02*
X145493619Y-113365095D01*
X145493619Y-113365095D02*
X145542000Y-113461857D01*
X145542000Y-113461857D02*
X145590381Y-113510238D01*
X145058190Y-113365095D02*
X145058190Y-112349095D01*
X145058190Y-112349095D02*
X144816285Y-112349095D01*
X144816285Y-112349095D02*
X144671142Y-112397476D01*
X144671142Y-112397476D02*
X144574380Y-112494238D01*
X144574380Y-112494238D02*
X144525999Y-112591000D01*
X144525999Y-112591000D02*
X144477618Y-112784524D01*
X144477618Y-112784524D02*
X144477618Y-112929667D01*
X144477618Y-112929667D02*
X144525999Y-113123191D01*
X144525999Y-113123191D02*
X144574380Y-113219953D01*
X144574380Y-113219953D02*
X144671142Y-113316715D01*
X144671142Y-113316715D02*
X144816285Y-113365095D01*
X144816285Y-113365095D02*
X145058190Y-113365095D01*
X143606761Y-112687762D02*
X143606761Y-113365095D01*
X143848666Y-112300715D02*
X144090571Y-113026429D01*
X144090571Y-113026429D02*
X143461618Y-113026429D01*
X142881047Y-112349095D02*
X142784285Y-112349095D01*
X142784285Y-112349095D02*
X142687523Y-112397476D01*
X142687523Y-112397476D02*
X142639142Y-112445857D01*
X142639142Y-112445857D02*
X142590761Y-112542619D01*
X142590761Y-112542619D02*
X142542380Y-112736143D01*
X142542380Y-112736143D02*
X142542380Y-112978048D01*
X142542380Y-112978048D02*
X142590761Y-113171572D01*
X142590761Y-113171572D02*
X142639142Y-113268334D01*
X142639142Y-113268334D02*
X142687523Y-113316715D01*
X142687523Y-113316715D02*
X142784285Y-113365095D01*
X142784285Y-113365095D02*
X142881047Y-113365095D01*
X142881047Y-113365095D02*
X142977809Y-113316715D01*
X142977809Y-113316715D02*
X143026190Y-113268334D01*
X143026190Y-113268334D02*
X143074571Y-113171572D01*
X143074571Y-113171572D02*
X143122952Y-112978048D01*
X143122952Y-112978048D02*
X143122952Y-112736143D01*
X143122952Y-112736143D02*
X143074571Y-112542619D01*
X143074571Y-112542619D02*
X143026190Y-112445857D01*
X143026190Y-112445857D02*
X142977809Y-112397476D01*
X142977809Y-112397476D02*
X142881047Y-112349095D01*
X106343810Y-139866786D02*
X106343810Y-140350596D01*
X106634095Y-139770024D02*
X105618095Y-140108691D01*
X105618095Y-140108691D02*
X106634095Y-140447358D01*
X105618095Y-141221453D02*
X105618095Y-141027929D01*
X105618095Y-141027929D02*
X105666476Y-140931167D01*
X105666476Y-140931167D02*
X105714857Y-140882786D01*
X105714857Y-140882786D02*
X105860000Y-140786024D01*
X105860000Y-140786024D02*
X106053524Y-140737643D01*
X106053524Y-140737643D02*
X106440572Y-140737643D01*
X106440572Y-140737643D02*
X106537334Y-140786024D01*
X106537334Y-140786024D02*
X106585715Y-140834405D01*
X106585715Y-140834405D02*
X106634095Y-140931167D01*
X106634095Y-140931167D02*
X106634095Y-141124691D01*
X106634095Y-141124691D02*
X106585715Y-141221453D01*
X106585715Y-141221453D02*
X106537334Y-141269834D01*
X106537334Y-141269834D02*
X106440572Y-141318215D01*
X106440572Y-141318215D02*
X106198667Y-141318215D01*
X106198667Y-141318215D02*
X106101905Y-141269834D01*
X106101905Y-141269834D02*
X106053524Y-141221453D01*
X106053524Y-141221453D02*
X106005143Y-141124691D01*
X106005143Y-141124691D02*
X106005143Y-140931167D01*
X106005143Y-140931167D02*
X106053524Y-140834405D01*
X106053524Y-140834405D02*
X106101905Y-140786024D01*
X106101905Y-140786024D02*
X106198667Y-140737643D01*
X61881715Y-81034024D02*
X61930095Y-81179167D01*
X61930095Y-81179167D02*
X61930095Y-81421072D01*
X61930095Y-81421072D02*
X61881715Y-81517834D01*
X61881715Y-81517834D02*
X61833334Y-81566215D01*
X61833334Y-81566215D02*
X61736572Y-81614596D01*
X61736572Y-81614596D02*
X61639810Y-81614596D01*
X61639810Y-81614596D02*
X61543048Y-81566215D01*
X61543048Y-81566215D02*
X61494667Y-81517834D01*
X61494667Y-81517834D02*
X61446286Y-81421072D01*
X61446286Y-81421072D02*
X61397905Y-81227548D01*
X61397905Y-81227548D02*
X61349524Y-81130786D01*
X61349524Y-81130786D02*
X61301143Y-81082405D01*
X61301143Y-81082405D02*
X61204381Y-81034024D01*
X61204381Y-81034024D02*
X61107619Y-81034024D01*
X61107619Y-81034024D02*
X61010857Y-81082405D01*
X61010857Y-81082405D02*
X60962476Y-81130786D01*
X60962476Y-81130786D02*
X60914095Y-81227548D01*
X60914095Y-81227548D02*
X60914095Y-81469453D01*
X60914095Y-81469453D02*
X60962476Y-81614596D01*
X61930095Y-82050024D02*
X60914095Y-82050024D01*
X60914095Y-82050024D02*
X60914095Y-82291929D01*
X60914095Y-82291929D02*
X60962476Y-82437072D01*
X60962476Y-82437072D02*
X61059238Y-82533834D01*
X61059238Y-82533834D02*
X61156000Y-82582215D01*
X61156000Y-82582215D02*
X61349524Y-82630596D01*
X61349524Y-82630596D02*
X61494667Y-82630596D01*
X61494667Y-82630596D02*
X61688191Y-82582215D01*
X61688191Y-82582215D02*
X61784953Y-82533834D01*
X61784953Y-82533834D02*
X61881715Y-82437072D01*
X61881715Y-82437072D02*
X61930095Y-82291929D01*
X61930095Y-82291929D02*
X61930095Y-82050024D01*
X61639810Y-83017643D02*
X61639810Y-83501453D01*
X61930095Y-82920881D02*
X60914095Y-83259548D01*
X60914095Y-83259548D02*
X61930095Y-83598215D01*
X126663810Y-139866786D02*
X126663810Y-140350596D01*
X126954095Y-139770024D02*
X125938095Y-140108691D01*
X125938095Y-140108691D02*
X126954095Y-140447358D01*
X126954095Y-141318215D02*
X126954095Y-140737643D01*
X126954095Y-141027929D02*
X125938095Y-141027929D01*
X125938095Y-141027929D02*
X126083238Y-140931167D01*
X126083238Y-140931167D02*
X126180000Y-140834405D01*
X126180000Y-140834405D02*
X126228381Y-140737643D01*
X125938095Y-141656881D02*
X125938095Y-142285834D01*
X125938095Y-142285834D02*
X126325143Y-141947167D01*
X126325143Y-141947167D02*
X126325143Y-142092310D01*
X126325143Y-142092310D02*
X126373524Y-142189072D01*
X126373524Y-142189072D02*
X126421905Y-142237453D01*
X126421905Y-142237453D02*
X126518667Y-142285834D01*
X126518667Y-142285834D02*
X126760572Y-142285834D01*
X126760572Y-142285834D02*
X126857334Y-142237453D01*
X126857334Y-142237453D02*
X126905715Y-142189072D01*
X126905715Y-142189072D02*
X126954095Y-142092310D01*
X126954095Y-142092310D02*
X126954095Y-141802024D01*
X126954095Y-141802024D02*
X126905715Y-141705262D01*
X126905715Y-141705262D02*
X126857334Y-141656881D01*
X66042476Y-81376501D02*
X65994095Y-81279739D01*
X65994095Y-81279739D02*
X65994095Y-81134596D01*
X65994095Y-81134596D02*
X66042476Y-80989453D01*
X66042476Y-80989453D02*
X66139238Y-80892691D01*
X66139238Y-80892691D02*
X66236000Y-80844310D01*
X66236000Y-80844310D02*
X66429524Y-80795929D01*
X66429524Y-80795929D02*
X66574667Y-80795929D01*
X66574667Y-80795929D02*
X66768191Y-80844310D01*
X66768191Y-80844310D02*
X66864953Y-80892691D01*
X66864953Y-80892691D02*
X66961715Y-80989453D01*
X66961715Y-80989453D02*
X67010095Y-81134596D01*
X67010095Y-81134596D02*
X67010095Y-81231358D01*
X67010095Y-81231358D02*
X66961715Y-81376501D01*
X66961715Y-81376501D02*
X66913334Y-81424882D01*
X66913334Y-81424882D02*
X66574667Y-81424882D01*
X66574667Y-81424882D02*
X66574667Y-81231358D01*
X67010095Y-81860310D02*
X65994095Y-81860310D01*
X65994095Y-81860310D02*
X67010095Y-82440882D01*
X67010095Y-82440882D02*
X65994095Y-82440882D01*
X67010095Y-82924691D02*
X65994095Y-82924691D01*
X65994095Y-82924691D02*
X65994095Y-83166596D01*
X65994095Y-83166596D02*
X66042476Y-83311739D01*
X66042476Y-83311739D02*
X66139238Y-83408501D01*
X66139238Y-83408501D02*
X66236000Y-83456882D01*
X66236000Y-83456882D02*
X66429524Y-83505263D01*
X66429524Y-83505263D02*
X66574667Y-83505263D01*
X66574667Y-83505263D02*
X66768191Y-83456882D01*
X66768191Y-83456882D02*
X66864953Y-83408501D01*
X66864953Y-83408501D02*
X66961715Y-83311739D01*
X66961715Y-83311739D02*
X67010095Y-83166596D01*
X67010095Y-83166596D02*
X67010095Y-82924691D01*
X98723810Y-139866786D02*
X98723810Y-140350596D01*
X99014095Y-139770024D02*
X97998095Y-140108691D01*
X97998095Y-140108691D02*
X99014095Y-140447358D01*
X97998095Y-140689262D02*
X97998095Y-141318215D01*
X97998095Y-141318215D02*
X98385143Y-140979548D01*
X98385143Y-140979548D02*
X98385143Y-141124691D01*
X98385143Y-141124691D02*
X98433524Y-141221453D01*
X98433524Y-141221453D02*
X98481905Y-141269834D01*
X98481905Y-141269834D02*
X98578667Y-141318215D01*
X98578667Y-141318215D02*
X98820572Y-141318215D01*
X98820572Y-141318215D02*
X98917334Y-141269834D01*
X98917334Y-141269834D02*
X98965715Y-141221453D01*
X98965715Y-141221453D02*
X99014095Y-141124691D01*
X99014095Y-141124691D02*
X99014095Y-140834405D01*
X99014095Y-140834405D02*
X98965715Y-140737643D01*
X98965715Y-140737643D02*
X98917334Y-140689262D01*
X96183810Y-139866786D02*
X96183810Y-140350596D01*
X96474095Y-139770024D02*
X95458095Y-140108691D01*
X95458095Y-140108691D02*
X96474095Y-140447358D01*
X95554857Y-140737643D02*
X95506476Y-140786024D01*
X95506476Y-140786024D02*
X95458095Y-140882786D01*
X95458095Y-140882786D02*
X95458095Y-141124691D01*
X95458095Y-141124691D02*
X95506476Y-141221453D01*
X95506476Y-141221453D02*
X95554857Y-141269834D01*
X95554857Y-141269834D02*
X95651619Y-141318215D01*
X95651619Y-141318215D02*
X95748381Y-141318215D01*
X95748381Y-141318215D02*
X95893524Y-141269834D01*
X95893524Y-141269834D02*
X96474095Y-140689262D01*
X96474095Y-140689262D02*
X96474095Y-141318215D01*
X146588238Y-93045095D02*
X146588238Y-92029095D01*
X146588238Y-92029095D02*
X146346333Y-92029095D01*
X146346333Y-92029095D02*
X146201190Y-92077476D01*
X146201190Y-92077476D02*
X146104428Y-92174238D01*
X146104428Y-92174238D02*
X146056047Y-92271000D01*
X146056047Y-92271000D02*
X146007666Y-92464524D01*
X146007666Y-92464524D02*
X146007666Y-92609667D01*
X146007666Y-92609667D02*
X146056047Y-92803191D01*
X146056047Y-92803191D02*
X146104428Y-92899953D01*
X146104428Y-92899953D02*
X146201190Y-92996715D01*
X146201190Y-92996715D02*
X146346333Y-93045095D01*
X146346333Y-93045095D02*
X146588238Y-93045095D01*
X145620619Y-92125857D02*
X145572238Y-92077476D01*
X145572238Y-92077476D02*
X145475476Y-92029095D01*
X145475476Y-92029095D02*
X145233571Y-92029095D01*
X145233571Y-92029095D02*
X145136809Y-92077476D01*
X145136809Y-92077476D02*
X145088428Y-92125857D01*
X145088428Y-92125857D02*
X145040047Y-92222619D01*
X145040047Y-92222619D02*
X145040047Y-92319381D01*
X145040047Y-92319381D02*
X145088428Y-92464524D01*
X145088428Y-92464524D02*
X145669000Y-93045095D01*
X145669000Y-93045095D02*
X145040047Y-93045095D01*
X144120809Y-92029095D02*
X144604619Y-92029095D01*
X144604619Y-92029095D02*
X144653000Y-92512905D01*
X144653000Y-92512905D02*
X144604619Y-92464524D01*
X144604619Y-92464524D02*
X144507857Y-92416143D01*
X144507857Y-92416143D02*
X144265952Y-92416143D01*
X144265952Y-92416143D02*
X144169190Y-92464524D01*
X144169190Y-92464524D02*
X144120809Y-92512905D01*
X144120809Y-92512905D02*
X144072428Y-92609667D01*
X144072428Y-92609667D02*
X144072428Y-92851572D01*
X144072428Y-92851572D02*
X144120809Y-92948334D01*
X144120809Y-92948334D02*
X144169190Y-92996715D01*
X144169190Y-92996715D02*
X144265952Y-93045095D01*
X144265952Y-93045095D02*
X144507857Y-93045095D01*
X144507857Y-93045095D02*
X144604619Y-92996715D01*
X144604619Y-92996715D02*
X144653000Y-92948334D01*
X143588619Y-92996715D02*
X143588619Y-93045095D01*
X143588619Y-93045095D02*
X143637000Y-93141857D01*
X143637000Y-93141857D02*
X143685381Y-93190238D01*
X143153190Y-93045095D02*
X143153190Y-92029095D01*
X143153190Y-92029095D02*
X142911285Y-92029095D01*
X142911285Y-92029095D02*
X142766142Y-92077476D01*
X142766142Y-92077476D02*
X142669380Y-92174238D01*
X142669380Y-92174238D02*
X142620999Y-92271000D01*
X142620999Y-92271000D02*
X142572618Y-92464524D01*
X142572618Y-92464524D02*
X142572618Y-92609667D01*
X142572618Y-92609667D02*
X142620999Y-92803191D01*
X142620999Y-92803191D02*
X142669380Y-92899953D01*
X142669380Y-92899953D02*
X142766142Y-92996715D01*
X142766142Y-92996715D02*
X142911285Y-93045095D01*
X142911285Y-93045095D02*
X143153190Y-93045095D01*
X142185571Y-92125857D02*
X142137190Y-92077476D01*
X142137190Y-92077476D02*
X142040428Y-92029095D01*
X142040428Y-92029095D02*
X141798523Y-92029095D01*
X141798523Y-92029095D02*
X141701761Y-92077476D01*
X141701761Y-92077476D02*
X141653380Y-92125857D01*
X141653380Y-92125857D02*
X141604999Y-92222619D01*
X141604999Y-92222619D02*
X141604999Y-92319381D01*
X141604999Y-92319381D02*
X141653380Y-92464524D01*
X141653380Y-92464524D02*
X142233952Y-93045095D01*
X142233952Y-93045095D02*
X141604999Y-93045095D01*
X140734142Y-92367762D02*
X140734142Y-93045095D01*
X140976047Y-91980715D02*
X141217952Y-92706429D01*
X141217952Y-92706429D02*
X140588999Y-92706429D01*
X93643810Y-139866786D02*
X93643810Y-140350596D01*
X93934095Y-139770024D02*
X92918095Y-140108691D01*
X92918095Y-140108691D02*
X93934095Y-140447358D01*
X93934095Y-141318215D02*
X93934095Y-140737643D01*
X93934095Y-141027929D02*
X92918095Y-141027929D01*
X92918095Y-141027929D02*
X93063238Y-140931167D01*
X93063238Y-140931167D02*
X93160000Y-140834405D01*
X93160000Y-140834405D02*
X93208381Y-140737643D01*
X146588238Y-98125095D02*
X146588238Y-97109095D01*
X146588238Y-97109095D02*
X146346333Y-97109095D01*
X146346333Y-97109095D02*
X146201190Y-97157476D01*
X146201190Y-97157476D02*
X146104428Y-97254238D01*
X146104428Y-97254238D02*
X146056047Y-97351000D01*
X146056047Y-97351000D02*
X146007666Y-97544524D01*
X146007666Y-97544524D02*
X146007666Y-97689667D01*
X146007666Y-97689667D02*
X146056047Y-97883191D01*
X146056047Y-97883191D02*
X146104428Y-97979953D01*
X146104428Y-97979953D02*
X146201190Y-98076715D01*
X146201190Y-98076715D02*
X146346333Y-98125095D01*
X146346333Y-98125095D02*
X146588238Y-98125095D01*
X145620619Y-97205857D02*
X145572238Y-97157476D01*
X145572238Y-97157476D02*
X145475476Y-97109095D01*
X145475476Y-97109095D02*
X145233571Y-97109095D01*
X145233571Y-97109095D02*
X145136809Y-97157476D01*
X145136809Y-97157476D02*
X145088428Y-97205857D01*
X145088428Y-97205857D02*
X145040047Y-97302619D01*
X145040047Y-97302619D02*
X145040047Y-97399381D01*
X145040047Y-97399381D02*
X145088428Y-97544524D01*
X145088428Y-97544524D02*
X145669000Y-98125095D01*
X145669000Y-98125095D02*
X145040047Y-98125095D01*
X144556238Y-98125095D02*
X144362714Y-98125095D01*
X144362714Y-98125095D02*
X144265952Y-98076715D01*
X144265952Y-98076715D02*
X144217571Y-98028334D01*
X144217571Y-98028334D02*
X144120809Y-97883191D01*
X144120809Y-97883191D02*
X144072428Y-97689667D01*
X144072428Y-97689667D02*
X144072428Y-97302619D01*
X144072428Y-97302619D02*
X144120809Y-97205857D01*
X144120809Y-97205857D02*
X144169190Y-97157476D01*
X144169190Y-97157476D02*
X144265952Y-97109095D01*
X144265952Y-97109095D02*
X144459476Y-97109095D01*
X144459476Y-97109095D02*
X144556238Y-97157476D01*
X144556238Y-97157476D02*
X144604619Y-97205857D01*
X144604619Y-97205857D02*
X144653000Y-97302619D01*
X144653000Y-97302619D02*
X144653000Y-97544524D01*
X144653000Y-97544524D02*
X144604619Y-97641286D01*
X144604619Y-97641286D02*
X144556238Y-97689667D01*
X144556238Y-97689667D02*
X144459476Y-97738048D01*
X144459476Y-97738048D02*
X144265952Y-97738048D01*
X144265952Y-97738048D02*
X144169190Y-97689667D01*
X144169190Y-97689667D02*
X144120809Y-97641286D01*
X144120809Y-97641286D02*
X144072428Y-97544524D01*
X143588619Y-98076715D02*
X143588619Y-98125095D01*
X143588619Y-98125095D02*
X143637000Y-98221857D01*
X143637000Y-98221857D02*
X143685381Y-98270238D01*
X143153190Y-98125095D02*
X143153190Y-97109095D01*
X143153190Y-97109095D02*
X142911285Y-97109095D01*
X142911285Y-97109095D02*
X142766142Y-97157476D01*
X142766142Y-97157476D02*
X142669380Y-97254238D01*
X142669380Y-97254238D02*
X142620999Y-97351000D01*
X142620999Y-97351000D02*
X142572618Y-97544524D01*
X142572618Y-97544524D02*
X142572618Y-97689667D01*
X142572618Y-97689667D02*
X142620999Y-97883191D01*
X142620999Y-97883191D02*
X142669380Y-97979953D01*
X142669380Y-97979953D02*
X142766142Y-98076715D01*
X142766142Y-98076715D02*
X142911285Y-98125095D01*
X142911285Y-98125095D02*
X143153190Y-98125095D01*
X142185571Y-97205857D02*
X142137190Y-97157476D01*
X142137190Y-97157476D02*
X142040428Y-97109095D01*
X142040428Y-97109095D02*
X141798523Y-97109095D01*
X141798523Y-97109095D02*
X141701761Y-97157476D01*
X141701761Y-97157476D02*
X141653380Y-97205857D01*
X141653380Y-97205857D02*
X141604999Y-97302619D01*
X141604999Y-97302619D02*
X141604999Y-97399381D01*
X141604999Y-97399381D02*
X141653380Y-97544524D01*
X141653380Y-97544524D02*
X142233952Y-98125095D01*
X142233952Y-98125095D02*
X141604999Y-98125095D01*
X141024428Y-97544524D02*
X141121190Y-97496143D01*
X141121190Y-97496143D02*
X141169571Y-97447762D01*
X141169571Y-97447762D02*
X141217952Y-97351000D01*
X141217952Y-97351000D02*
X141217952Y-97302619D01*
X141217952Y-97302619D02*
X141169571Y-97205857D01*
X141169571Y-97205857D02*
X141121190Y-97157476D01*
X141121190Y-97157476D02*
X141024428Y-97109095D01*
X141024428Y-97109095D02*
X140830904Y-97109095D01*
X140830904Y-97109095D02*
X140734142Y-97157476D01*
X140734142Y-97157476D02*
X140685761Y-97205857D01*
X140685761Y-97205857D02*
X140637380Y-97302619D01*
X140637380Y-97302619D02*
X140637380Y-97351000D01*
X140637380Y-97351000D02*
X140685761Y-97447762D01*
X140685761Y-97447762D02*
X140734142Y-97496143D01*
X140734142Y-97496143D02*
X140830904Y-97544524D01*
X140830904Y-97544524D02*
X141024428Y-97544524D01*
X141024428Y-97544524D02*
X141121190Y-97592905D01*
X141121190Y-97592905D02*
X141169571Y-97641286D01*
X141169571Y-97641286D02*
X141217952Y-97738048D01*
X141217952Y-97738048D02*
X141217952Y-97931572D01*
X141217952Y-97931572D02*
X141169571Y-98028334D01*
X141169571Y-98028334D02*
X141121190Y-98076715D01*
X141121190Y-98076715D02*
X141024428Y-98125095D01*
X141024428Y-98125095D02*
X140830904Y-98125095D01*
X140830904Y-98125095D02*
X140734142Y-98076715D01*
X140734142Y-98076715D02*
X140685761Y-98028334D01*
X140685761Y-98028334D02*
X140637380Y-97931572D01*
X140637380Y-97931572D02*
X140637380Y-97738048D01*
X140637380Y-97738048D02*
X140685761Y-97641286D01*
X140685761Y-97641286D02*
X140734142Y-97592905D01*
X140734142Y-97592905D02*
X140830904Y-97544524D01*
X148493238Y-103205095D02*
X148493238Y-102189095D01*
X148493238Y-102189095D02*
X148251333Y-102189095D01*
X148251333Y-102189095D02*
X148106190Y-102237476D01*
X148106190Y-102237476D02*
X148009428Y-102334238D01*
X148009428Y-102334238D02*
X147961047Y-102431000D01*
X147961047Y-102431000D02*
X147912666Y-102624524D01*
X147912666Y-102624524D02*
X147912666Y-102769667D01*
X147912666Y-102769667D02*
X147961047Y-102963191D01*
X147961047Y-102963191D02*
X148009428Y-103059953D01*
X148009428Y-103059953D02*
X148106190Y-103156715D01*
X148106190Y-103156715D02*
X148251333Y-103205095D01*
X148251333Y-103205095D02*
X148493238Y-103205095D01*
X147574000Y-102189095D02*
X146945047Y-102189095D01*
X146945047Y-102189095D02*
X147283714Y-102576143D01*
X147283714Y-102576143D02*
X147138571Y-102576143D01*
X147138571Y-102576143D02*
X147041809Y-102624524D01*
X147041809Y-102624524D02*
X146993428Y-102672905D01*
X146993428Y-102672905D02*
X146945047Y-102769667D01*
X146945047Y-102769667D02*
X146945047Y-103011572D01*
X146945047Y-103011572D02*
X146993428Y-103108334D01*
X146993428Y-103108334D02*
X147041809Y-103156715D01*
X147041809Y-103156715D02*
X147138571Y-103205095D01*
X147138571Y-103205095D02*
X147428857Y-103205095D01*
X147428857Y-103205095D02*
X147525619Y-103156715D01*
X147525619Y-103156715D02*
X147574000Y-103108334D01*
X146606381Y-102189095D02*
X145977428Y-102189095D01*
X145977428Y-102189095D02*
X146316095Y-102576143D01*
X146316095Y-102576143D02*
X146170952Y-102576143D01*
X146170952Y-102576143D02*
X146074190Y-102624524D01*
X146074190Y-102624524D02*
X146025809Y-102672905D01*
X146025809Y-102672905D02*
X145977428Y-102769667D01*
X145977428Y-102769667D02*
X145977428Y-103011572D01*
X145977428Y-103011572D02*
X146025809Y-103108334D01*
X146025809Y-103108334D02*
X146074190Y-103156715D01*
X146074190Y-103156715D02*
X146170952Y-103205095D01*
X146170952Y-103205095D02*
X146461238Y-103205095D01*
X146461238Y-103205095D02*
X146558000Y-103156715D01*
X146558000Y-103156715D02*
X146606381Y-103108334D01*
X145493619Y-103156715D02*
X145493619Y-103205095D01*
X145493619Y-103205095D02*
X145542000Y-103301857D01*
X145542000Y-103301857D02*
X145590381Y-103350238D01*
X145058190Y-103205095D02*
X145058190Y-102189095D01*
X145058190Y-102189095D02*
X144816285Y-102189095D01*
X144816285Y-102189095D02*
X144671142Y-102237476D01*
X144671142Y-102237476D02*
X144574380Y-102334238D01*
X144574380Y-102334238D02*
X144525999Y-102431000D01*
X144525999Y-102431000D02*
X144477618Y-102624524D01*
X144477618Y-102624524D02*
X144477618Y-102769667D01*
X144477618Y-102769667D02*
X144525999Y-102963191D01*
X144525999Y-102963191D02*
X144574380Y-103059953D01*
X144574380Y-103059953D02*
X144671142Y-103156715D01*
X144671142Y-103156715D02*
X144816285Y-103205095D01*
X144816285Y-103205095D02*
X145058190Y-103205095D01*
X144138952Y-102189095D02*
X143509999Y-102189095D01*
X143509999Y-102189095D02*
X143848666Y-102576143D01*
X143848666Y-102576143D02*
X143703523Y-102576143D01*
X143703523Y-102576143D02*
X143606761Y-102624524D01*
X143606761Y-102624524D02*
X143558380Y-102672905D01*
X143558380Y-102672905D02*
X143509999Y-102769667D01*
X143509999Y-102769667D02*
X143509999Y-103011572D01*
X143509999Y-103011572D02*
X143558380Y-103108334D01*
X143558380Y-103108334D02*
X143606761Y-103156715D01*
X143606761Y-103156715D02*
X143703523Y-103205095D01*
X143703523Y-103205095D02*
X143993809Y-103205095D01*
X143993809Y-103205095D02*
X144090571Y-103156715D01*
X144090571Y-103156715D02*
X144138952Y-103108334D01*
X143122952Y-102285857D02*
X143074571Y-102237476D01*
X143074571Y-102237476D02*
X142977809Y-102189095D01*
X142977809Y-102189095D02*
X142735904Y-102189095D01*
X142735904Y-102189095D02*
X142639142Y-102237476D01*
X142639142Y-102237476D02*
X142590761Y-102285857D01*
X142590761Y-102285857D02*
X142542380Y-102382619D01*
X142542380Y-102382619D02*
X142542380Y-102479381D01*
X142542380Y-102479381D02*
X142590761Y-102624524D01*
X142590761Y-102624524D02*
X143171333Y-103205095D01*
X143171333Y-103205095D02*
X142542380Y-103205095D01*
X116794095Y-77519644D02*
X116310286Y-77180977D01*
X116794095Y-76939072D02*
X115778095Y-76939072D01*
X115778095Y-76939072D02*
X115778095Y-77326120D01*
X115778095Y-77326120D02*
X115826476Y-77422882D01*
X115826476Y-77422882D02*
X115874857Y-77471263D01*
X115874857Y-77471263D02*
X115971619Y-77519644D01*
X115971619Y-77519644D02*
X116116762Y-77519644D01*
X116116762Y-77519644D02*
X116213524Y-77471263D01*
X116213524Y-77471263D02*
X116261905Y-77422882D01*
X116261905Y-77422882D02*
X116310286Y-77326120D01*
X116310286Y-77326120D02*
X116310286Y-76939072D01*
X115778095Y-77858310D02*
X116794095Y-78535644D01*
X115778095Y-78535644D02*
X116794095Y-77858310D01*
X115874857Y-78874310D02*
X115826476Y-78922691D01*
X115826476Y-78922691D02*
X115778095Y-79019453D01*
X115778095Y-79019453D02*
X115778095Y-79261358D01*
X115778095Y-79261358D02*
X115826476Y-79358120D01*
X115826476Y-79358120D02*
X115874857Y-79406501D01*
X115874857Y-79406501D02*
X115971619Y-79454882D01*
X115971619Y-79454882D02*
X116068381Y-79454882D01*
X116068381Y-79454882D02*
X116213524Y-79406501D01*
X116213524Y-79406501D02*
X116794095Y-78825929D01*
X116794095Y-78825929D02*
X116794095Y-79454882D01*
X115729715Y-80616025D02*
X117036000Y-79745167D01*
X116794095Y-80954691D02*
X115778095Y-80954691D01*
X115778095Y-80954691D02*
X115778095Y-81196596D01*
X115778095Y-81196596D02*
X115826476Y-81341739D01*
X115826476Y-81341739D02*
X115923238Y-81438501D01*
X115923238Y-81438501D02*
X116020000Y-81486882D01*
X116020000Y-81486882D02*
X116213524Y-81535263D01*
X116213524Y-81535263D02*
X116358667Y-81535263D01*
X116358667Y-81535263D02*
X116552191Y-81486882D01*
X116552191Y-81486882D02*
X116648953Y-81438501D01*
X116648953Y-81438501D02*
X116745715Y-81341739D01*
X116745715Y-81341739D02*
X116794095Y-81196596D01*
X116794095Y-81196596D02*
X116794095Y-80954691D01*
X116794095Y-82502882D02*
X116794095Y-81922310D01*
X116794095Y-82212596D02*
X115778095Y-82212596D01*
X115778095Y-82212596D02*
X115923238Y-82115834D01*
X115923238Y-82115834D02*
X116020000Y-82019072D01*
X116020000Y-82019072D02*
X116068381Y-81922310D01*
X115778095Y-82841548D02*
X115778095Y-83518882D01*
X115778095Y-83518882D02*
X116794095Y-83083453D01*
X108883810Y-139866786D02*
X108883810Y-140350596D01*
X109174095Y-139770024D02*
X108158095Y-140108691D01*
X108158095Y-140108691D02*
X109174095Y-140447358D01*
X108158095Y-140689262D02*
X108158095Y-141366596D01*
X108158095Y-141366596D02*
X109174095Y-140931167D01*
X121583810Y-139866786D02*
X121583810Y-140350596D01*
X121874095Y-139770024D02*
X120858095Y-140108691D01*
X120858095Y-140108691D02*
X121874095Y-140447358D01*
X121874095Y-141318215D02*
X121874095Y-140737643D01*
X121874095Y-141027929D02*
X120858095Y-141027929D01*
X120858095Y-141027929D02*
X121003238Y-140931167D01*
X121003238Y-140931167D02*
X121100000Y-140834405D01*
X121100000Y-140834405D02*
X121148381Y-140737643D01*
X121874095Y-142285834D02*
X121874095Y-141705262D01*
X121874095Y-141995548D02*
X120858095Y-141995548D01*
X120858095Y-141995548D02*
X121003238Y-141898786D01*
X121003238Y-141898786D02*
X121100000Y-141802024D01*
X121100000Y-141802024D02*
X121148381Y-141705262D01*
X148493238Y-110825095D02*
X148493238Y-109809095D01*
X148493238Y-109809095D02*
X148251333Y-109809095D01*
X148251333Y-109809095D02*
X148106190Y-109857476D01*
X148106190Y-109857476D02*
X148009428Y-109954238D01*
X148009428Y-109954238D02*
X147961047Y-110051000D01*
X147961047Y-110051000D02*
X147912666Y-110244524D01*
X147912666Y-110244524D02*
X147912666Y-110389667D01*
X147912666Y-110389667D02*
X147961047Y-110583191D01*
X147961047Y-110583191D02*
X148009428Y-110679953D01*
X148009428Y-110679953D02*
X148106190Y-110776715D01*
X148106190Y-110776715D02*
X148251333Y-110825095D01*
X148251333Y-110825095D02*
X148493238Y-110825095D01*
X147574000Y-109809095D02*
X146945047Y-109809095D01*
X146945047Y-109809095D02*
X147283714Y-110196143D01*
X147283714Y-110196143D02*
X147138571Y-110196143D01*
X147138571Y-110196143D02*
X147041809Y-110244524D01*
X147041809Y-110244524D02*
X146993428Y-110292905D01*
X146993428Y-110292905D02*
X146945047Y-110389667D01*
X146945047Y-110389667D02*
X146945047Y-110631572D01*
X146945047Y-110631572D02*
X146993428Y-110728334D01*
X146993428Y-110728334D02*
X147041809Y-110776715D01*
X147041809Y-110776715D02*
X147138571Y-110825095D01*
X147138571Y-110825095D02*
X147428857Y-110825095D01*
X147428857Y-110825095D02*
X147525619Y-110776715D01*
X147525619Y-110776715D02*
X147574000Y-110728334D01*
X146461238Y-110825095D02*
X146267714Y-110825095D01*
X146267714Y-110825095D02*
X146170952Y-110776715D01*
X146170952Y-110776715D02*
X146122571Y-110728334D01*
X146122571Y-110728334D02*
X146025809Y-110583191D01*
X146025809Y-110583191D02*
X145977428Y-110389667D01*
X145977428Y-110389667D02*
X145977428Y-110002619D01*
X145977428Y-110002619D02*
X146025809Y-109905857D01*
X146025809Y-109905857D02*
X146074190Y-109857476D01*
X146074190Y-109857476D02*
X146170952Y-109809095D01*
X146170952Y-109809095D02*
X146364476Y-109809095D01*
X146364476Y-109809095D02*
X146461238Y-109857476D01*
X146461238Y-109857476D02*
X146509619Y-109905857D01*
X146509619Y-109905857D02*
X146558000Y-110002619D01*
X146558000Y-110002619D02*
X146558000Y-110244524D01*
X146558000Y-110244524D02*
X146509619Y-110341286D01*
X146509619Y-110341286D02*
X146461238Y-110389667D01*
X146461238Y-110389667D02*
X146364476Y-110438048D01*
X146364476Y-110438048D02*
X146170952Y-110438048D01*
X146170952Y-110438048D02*
X146074190Y-110389667D01*
X146074190Y-110389667D02*
X146025809Y-110341286D01*
X146025809Y-110341286D02*
X145977428Y-110244524D01*
X145493619Y-110776715D02*
X145493619Y-110825095D01*
X145493619Y-110825095D02*
X145542000Y-110921857D01*
X145542000Y-110921857D02*
X145590381Y-110970238D01*
X145058190Y-110825095D02*
X145058190Y-109809095D01*
X145058190Y-109809095D02*
X144816285Y-109809095D01*
X144816285Y-109809095D02*
X144671142Y-109857476D01*
X144671142Y-109857476D02*
X144574380Y-109954238D01*
X144574380Y-109954238D02*
X144525999Y-110051000D01*
X144525999Y-110051000D02*
X144477618Y-110244524D01*
X144477618Y-110244524D02*
X144477618Y-110389667D01*
X144477618Y-110389667D02*
X144525999Y-110583191D01*
X144525999Y-110583191D02*
X144574380Y-110679953D01*
X144574380Y-110679953D02*
X144671142Y-110776715D01*
X144671142Y-110776715D02*
X144816285Y-110825095D01*
X144816285Y-110825095D02*
X145058190Y-110825095D01*
X144138952Y-109809095D02*
X143509999Y-109809095D01*
X143509999Y-109809095D02*
X143848666Y-110196143D01*
X143848666Y-110196143D02*
X143703523Y-110196143D01*
X143703523Y-110196143D02*
X143606761Y-110244524D01*
X143606761Y-110244524D02*
X143558380Y-110292905D01*
X143558380Y-110292905D02*
X143509999Y-110389667D01*
X143509999Y-110389667D02*
X143509999Y-110631572D01*
X143509999Y-110631572D02*
X143558380Y-110728334D01*
X143558380Y-110728334D02*
X143606761Y-110776715D01*
X143606761Y-110776715D02*
X143703523Y-110825095D01*
X143703523Y-110825095D02*
X143993809Y-110825095D01*
X143993809Y-110825095D02*
X144090571Y-110776715D01*
X144090571Y-110776715D02*
X144138952Y-110728334D01*
X142929428Y-110244524D02*
X143026190Y-110196143D01*
X143026190Y-110196143D02*
X143074571Y-110147762D01*
X143074571Y-110147762D02*
X143122952Y-110051000D01*
X143122952Y-110051000D02*
X143122952Y-110002619D01*
X143122952Y-110002619D02*
X143074571Y-109905857D01*
X143074571Y-109905857D02*
X143026190Y-109857476D01*
X143026190Y-109857476D02*
X142929428Y-109809095D01*
X142929428Y-109809095D02*
X142735904Y-109809095D01*
X142735904Y-109809095D02*
X142639142Y-109857476D01*
X142639142Y-109857476D02*
X142590761Y-109905857D01*
X142590761Y-109905857D02*
X142542380Y-110002619D01*
X142542380Y-110002619D02*
X142542380Y-110051000D01*
X142542380Y-110051000D02*
X142590761Y-110147762D01*
X142590761Y-110147762D02*
X142639142Y-110196143D01*
X142639142Y-110196143D02*
X142735904Y-110244524D01*
X142735904Y-110244524D02*
X142929428Y-110244524D01*
X142929428Y-110244524D02*
X143026190Y-110292905D01*
X143026190Y-110292905D02*
X143074571Y-110341286D01*
X143074571Y-110341286D02*
X143122952Y-110438048D01*
X143122952Y-110438048D02*
X143122952Y-110631572D01*
X143122952Y-110631572D02*
X143074571Y-110728334D01*
X143074571Y-110728334D02*
X143026190Y-110776715D01*
X143026190Y-110776715D02*
X142929428Y-110825095D01*
X142929428Y-110825095D02*
X142735904Y-110825095D01*
X142735904Y-110825095D02*
X142639142Y-110776715D01*
X142639142Y-110776715D02*
X142590761Y-110728334D01*
X142590761Y-110728334D02*
X142542380Y-110631572D01*
X142542380Y-110631572D02*
X142542380Y-110438048D01*
X142542380Y-110438048D02*
X142590761Y-110341286D01*
X142590761Y-110341286D02*
X142639142Y-110292905D01*
X142639142Y-110292905D02*
X142735904Y-110244524D01*
X77678095Y-140398977D02*
X77678095Y-139915167D01*
X77678095Y-139915167D02*
X78161905Y-139866786D01*
X78161905Y-139866786D02*
X78113524Y-139915167D01*
X78113524Y-139915167D02*
X78065143Y-140011929D01*
X78065143Y-140011929D02*
X78065143Y-140253834D01*
X78065143Y-140253834D02*
X78113524Y-140350596D01*
X78113524Y-140350596D02*
X78161905Y-140398977D01*
X78161905Y-140398977D02*
X78258667Y-140447358D01*
X78258667Y-140447358D02*
X78500572Y-140447358D01*
X78500572Y-140447358D02*
X78597334Y-140398977D01*
X78597334Y-140398977D02*
X78645715Y-140350596D01*
X78645715Y-140350596D02*
X78694095Y-140253834D01*
X78694095Y-140253834D02*
X78694095Y-140011929D01*
X78694095Y-140011929D02*
X78645715Y-139915167D01*
X78645715Y-139915167D02*
X78597334Y-139866786D01*
X77678095Y-140737643D02*
X78694095Y-141076310D01*
X78694095Y-141076310D02*
X77678095Y-141414977D01*
X78694095Y-142285834D02*
X78694095Y-141705262D01*
X78694095Y-141995548D02*
X77678095Y-141995548D01*
X77678095Y-141995548D02*
X77823238Y-141898786D01*
X77823238Y-141898786D02*
X77920000Y-141802024D01*
X77920000Y-141802024D02*
X77968381Y-141705262D01*
X148493238Y-100665095D02*
X148493238Y-99649095D01*
X148493238Y-99649095D02*
X148251333Y-99649095D01*
X148251333Y-99649095D02*
X148106190Y-99697476D01*
X148106190Y-99697476D02*
X148009428Y-99794238D01*
X148009428Y-99794238D02*
X147961047Y-99891000D01*
X147961047Y-99891000D02*
X147912666Y-100084524D01*
X147912666Y-100084524D02*
X147912666Y-100229667D01*
X147912666Y-100229667D02*
X147961047Y-100423191D01*
X147961047Y-100423191D02*
X148009428Y-100519953D01*
X148009428Y-100519953D02*
X148106190Y-100616715D01*
X148106190Y-100616715D02*
X148251333Y-100665095D01*
X148251333Y-100665095D02*
X148493238Y-100665095D01*
X147574000Y-99649095D02*
X146945047Y-99649095D01*
X146945047Y-99649095D02*
X147283714Y-100036143D01*
X147283714Y-100036143D02*
X147138571Y-100036143D01*
X147138571Y-100036143D02*
X147041809Y-100084524D01*
X147041809Y-100084524D02*
X146993428Y-100132905D01*
X146993428Y-100132905D02*
X146945047Y-100229667D01*
X146945047Y-100229667D02*
X146945047Y-100471572D01*
X146945047Y-100471572D02*
X146993428Y-100568334D01*
X146993428Y-100568334D02*
X147041809Y-100616715D01*
X147041809Y-100616715D02*
X147138571Y-100665095D01*
X147138571Y-100665095D02*
X147428857Y-100665095D01*
X147428857Y-100665095D02*
X147525619Y-100616715D01*
X147525619Y-100616715D02*
X147574000Y-100568334D01*
X145977428Y-100665095D02*
X146558000Y-100665095D01*
X146267714Y-100665095D02*
X146267714Y-99649095D01*
X146267714Y-99649095D02*
X146364476Y-99794238D01*
X146364476Y-99794238D02*
X146461238Y-99891000D01*
X146461238Y-99891000D02*
X146558000Y-99939381D01*
X145493619Y-100616715D02*
X145493619Y-100665095D01*
X145493619Y-100665095D02*
X145542000Y-100761857D01*
X145542000Y-100761857D02*
X145590381Y-100810238D01*
X145058190Y-100665095D02*
X145058190Y-99649095D01*
X145058190Y-99649095D02*
X144816285Y-99649095D01*
X144816285Y-99649095D02*
X144671142Y-99697476D01*
X144671142Y-99697476D02*
X144574380Y-99794238D01*
X144574380Y-99794238D02*
X144525999Y-99891000D01*
X144525999Y-99891000D02*
X144477618Y-100084524D01*
X144477618Y-100084524D02*
X144477618Y-100229667D01*
X144477618Y-100229667D02*
X144525999Y-100423191D01*
X144525999Y-100423191D02*
X144574380Y-100519953D01*
X144574380Y-100519953D02*
X144671142Y-100616715D01*
X144671142Y-100616715D02*
X144816285Y-100665095D01*
X144816285Y-100665095D02*
X145058190Y-100665095D01*
X144138952Y-99649095D02*
X143509999Y-99649095D01*
X143509999Y-99649095D02*
X143848666Y-100036143D01*
X143848666Y-100036143D02*
X143703523Y-100036143D01*
X143703523Y-100036143D02*
X143606761Y-100084524D01*
X143606761Y-100084524D02*
X143558380Y-100132905D01*
X143558380Y-100132905D02*
X143509999Y-100229667D01*
X143509999Y-100229667D02*
X143509999Y-100471572D01*
X143509999Y-100471572D02*
X143558380Y-100568334D01*
X143558380Y-100568334D02*
X143606761Y-100616715D01*
X143606761Y-100616715D02*
X143703523Y-100665095D01*
X143703523Y-100665095D02*
X143993809Y-100665095D01*
X143993809Y-100665095D02*
X144090571Y-100616715D01*
X144090571Y-100616715D02*
X144138952Y-100568334D01*
X142881047Y-99649095D02*
X142784285Y-99649095D01*
X142784285Y-99649095D02*
X142687523Y-99697476D01*
X142687523Y-99697476D02*
X142639142Y-99745857D01*
X142639142Y-99745857D02*
X142590761Y-99842619D01*
X142590761Y-99842619D02*
X142542380Y-100036143D01*
X142542380Y-100036143D02*
X142542380Y-100278048D01*
X142542380Y-100278048D02*
X142590761Y-100471572D01*
X142590761Y-100471572D02*
X142639142Y-100568334D01*
X142639142Y-100568334D02*
X142687523Y-100616715D01*
X142687523Y-100616715D02*
X142784285Y-100665095D01*
X142784285Y-100665095D02*
X142881047Y-100665095D01*
X142881047Y-100665095D02*
X142977809Y-100616715D01*
X142977809Y-100616715D02*
X143026190Y-100568334D01*
X143026190Y-100568334D02*
X143074571Y-100471572D01*
X143074571Y-100471572D02*
X143122952Y-100278048D01*
X143122952Y-100278048D02*
X143122952Y-100036143D01*
X143122952Y-100036143D02*
X143074571Y-99842619D01*
X143074571Y-99842619D02*
X143026190Y-99745857D01*
X143026190Y-99745857D02*
X142977809Y-99697476D01*
X142977809Y-99697476D02*
X142881047Y-99649095D01*
X99014095Y-81876167D02*
X97998095Y-81876167D01*
X97998095Y-81876167D02*
X97998095Y-82118072D01*
X97998095Y-82118072D02*
X98046476Y-82263215D01*
X98046476Y-82263215D02*
X98143238Y-82359977D01*
X98143238Y-82359977D02*
X98240000Y-82408358D01*
X98240000Y-82408358D02*
X98433524Y-82456739D01*
X98433524Y-82456739D02*
X98578667Y-82456739D01*
X98578667Y-82456739D02*
X98772191Y-82408358D01*
X98772191Y-82408358D02*
X98868953Y-82359977D01*
X98868953Y-82359977D02*
X98965715Y-82263215D01*
X98965715Y-82263215D02*
X99014095Y-82118072D01*
X99014095Y-82118072D02*
X99014095Y-81876167D01*
X98094857Y-82843786D02*
X98046476Y-82892167D01*
X98046476Y-82892167D02*
X97998095Y-82988929D01*
X97998095Y-82988929D02*
X97998095Y-83230834D01*
X97998095Y-83230834D02*
X98046476Y-83327596D01*
X98046476Y-83327596D02*
X98094857Y-83375977D01*
X98094857Y-83375977D02*
X98191619Y-83424358D01*
X98191619Y-83424358D02*
X98288381Y-83424358D01*
X98288381Y-83424358D02*
X98433524Y-83375977D01*
X98433524Y-83375977D02*
X99014095Y-82795405D01*
X99014095Y-82795405D02*
X99014095Y-83424358D01*
X113963810Y-139866786D02*
X113963810Y-140350596D01*
X114254095Y-139770024D02*
X113238095Y-140108691D01*
X113238095Y-140108691D02*
X114254095Y-140447358D01*
X113673524Y-140931167D02*
X113625143Y-140834405D01*
X113625143Y-140834405D02*
X113576762Y-140786024D01*
X113576762Y-140786024D02*
X113480000Y-140737643D01*
X113480000Y-140737643D02*
X113431619Y-140737643D01*
X113431619Y-140737643D02*
X113334857Y-140786024D01*
X113334857Y-140786024D02*
X113286476Y-140834405D01*
X113286476Y-140834405D02*
X113238095Y-140931167D01*
X113238095Y-140931167D02*
X113238095Y-141124691D01*
X113238095Y-141124691D02*
X113286476Y-141221453D01*
X113286476Y-141221453D02*
X113334857Y-141269834D01*
X113334857Y-141269834D02*
X113431619Y-141318215D01*
X113431619Y-141318215D02*
X113480000Y-141318215D01*
X113480000Y-141318215D02*
X113576762Y-141269834D01*
X113576762Y-141269834D02*
X113625143Y-141221453D01*
X113625143Y-141221453D02*
X113673524Y-141124691D01*
X113673524Y-141124691D02*
X113673524Y-140931167D01*
X113673524Y-140931167D02*
X113721905Y-140834405D01*
X113721905Y-140834405D02*
X113770286Y-140786024D01*
X113770286Y-140786024D02*
X113867048Y-140737643D01*
X113867048Y-140737643D02*
X114060572Y-140737643D01*
X114060572Y-140737643D02*
X114157334Y-140786024D01*
X114157334Y-140786024D02*
X114205715Y-140834405D01*
X114205715Y-140834405D02*
X114254095Y-140931167D01*
X114254095Y-140931167D02*
X114254095Y-141124691D01*
X114254095Y-141124691D02*
X114205715Y-141221453D01*
X114205715Y-141221453D02*
X114157334Y-141269834D01*
X114157334Y-141269834D02*
X114060572Y-141318215D01*
X114060572Y-141318215D02*
X113867048Y-141318215D01*
X113867048Y-141318215D02*
X113770286Y-141269834D01*
X113770286Y-141269834D02*
X113721905Y-141221453D01*
X113721905Y-141221453D02*
X113673524Y-141124691D01*
X146588238Y-95585095D02*
X146588238Y-94569095D01*
X146588238Y-94569095D02*
X146346333Y-94569095D01*
X146346333Y-94569095D02*
X146201190Y-94617476D01*
X146201190Y-94617476D02*
X146104428Y-94714238D01*
X146104428Y-94714238D02*
X146056047Y-94811000D01*
X146056047Y-94811000D02*
X146007666Y-95004524D01*
X146007666Y-95004524D02*
X146007666Y-95149667D01*
X146007666Y-95149667D02*
X146056047Y-95343191D01*
X146056047Y-95343191D02*
X146104428Y-95439953D01*
X146104428Y-95439953D02*
X146201190Y-95536715D01*
X146201190Y-95536715D02*
X146346333Y-95585095D01*
X146346333Y-95585095D02*
X146588238Y-95585095D01*
X145620619Y-94665857D02*
X145572238Y-94617476D01*
X145572238Y-94617476D02*
X145475476Y-94569095D01*
X145475476Y-94569095D02*
X145233571Y-94569095D01*
X145233571Y-94569095D02*
X145136809Y-94617476D01*
X145136809Y-94617476D02*
X145088428Y-94665857D01*
X145088428Y-94665857D02*
X145040047Y-94762619D01*
X145040047Y-94762619D02*
X145040047Y-94859381D01*
X145040047Y-94859381D02*
X145088428Y-95004524D01*
X145088428Y-95004524D02*
X145669000Y-95585095D01*
X145669000Y-95585095D02*
X145040047Y-95585095D01*
X144701381Y-94569095D02*
X144024047Y-94569095D01*
X144024047Y-94569095D02*
X144459476Y-95585095D01*
X143588619Y-95536715D02*
X143588619Y-95585095D01*
X143588619Y-95585095D02*
X143637000Y-95681857D01*
X143637000Y-95681857D02*
X143685381Y-95730238D01*
X143153190Y-95585095D02*
X143153190Y-94569095D01*
X143153190Y-94569095D02*
X142911285Y-94569095D01*
X142911285Y-94569095D02*
X142766142Y-94617476D01*
X142766142Y-94617476D02*
X142669380Y-94714238D01*
X142669380Y-94714238D02*
X142620999Y-94811000D01*
X142620999Y-94811000D02*
X142572618Y-95004524D01*
X142572618Y-95004524D02*
X142572618Y-95149667D01*
X142572618Y-95149667D02*
X142620999Y-95343191D01*
X142620999Y-95343191D02*
X142669380Y-95439953D01*
X142669380Y-95439953D02*
X142766142Y-95536715D01*
X142766142Y-95536715D02*
X142911285Y-95585095D01*
X142911285Y-95585095D02*
X143153190Y-95585095D01*
X142185571Y-94665857D02*
X142137190Y-94617476D01*
X142137190Y-94617476D02*
X142040428Y-94569095D01*
X142040428Y-94569095D02*
X141798523Y-94569095D01*
X141798523Y-94569095D02*
X141701761Y-94617476D01*
X141701761Y-94617476D02*
X141653380Y-94665857D01*
X141653380Y-94665857D02*
X141604999Y-94762619D01*
X141604999Y-94762619D02*
X141604999Y-94859381D01*
X141604999Y-94859381D02*
X141653380Y-95004524D01*
X141653380Y-95004524D02*
X142233952Y-95585095D01*
X142233952Y-95585095D02*
X141604999Y-95585095D01*
X140734142Y-94569095D02*
X140927666Y-94569095D01*
X140927666Y-94569095D02*
X141024428Y-94617476D01*
X141024428Y-94617476D02*
X141072809Y-94665857D01*
X141072809Y-94665857D02*
X141169571Y-94811000D01*
X141169571Y-94811000D02*
X141217952Y-95004524D01*
X141217952Y-95004524D02*
X141217952Y-95391572D01*
X141217952Y-95391572D02*
X141169571Y-95488334D01*
X141169571Y-95488334D02*
X141121190Y-95536715D01*
X141121190Y-95536715D02*
X141024428Y-95585095D01*
X141024428Y-95585095D02*
X140830904Y-95585095D01*
X140830904Y-95585095D02*
X140734142Y-95536715D01*
X140734142Y-95536715D02*
X140685761Y-95488334D01*
X140685761Y-95488334D02*
X140637380Y-95391572D01*
X140637380Y-95391572D02*
X140637380Y-95149667D01*
X140637380Y-95149667D02*
X140685761Y-95052905D01*
X140685761Y-95052905D02*
X140734142Y-95004524D01*
X140734142Y-95004524D02*
X140830904Y-94956143D01*
X140830904Y-94956143D02*
X141024428Y-94956143D01*
X141024428Y-94956143D02*
X141121190Y-95004524D01*
X141121190Y-95004524D02*
X141169571Y-95052905D01*
X141169571Y-95052905D02*
X141217952Y-95149667D01*
X126905715Y-77033548D02*
X126954095Y-77178691D01*
X126954095Y-77178691D02*
X126954095Y-77420596D01*
X126954095Y-77420596D02*
X126905715Y-77517358D01*
X126905715Y-77517358D02*
X126857334Y-77565739D01*
X126857334Y-77565739D02*
X126760572Y-77614120D01*
X126760572Y-77614120D02*
X126663810Y-77614120D01*
X126663810Y-77614120D02*
X126567048Y-77565739D01*
X126567048Y-77565739D02*
X126518667Y-77517358D01*
X126518667Y-77517358D02*
X126470286Y-77420596D01*
X126470286Y-77420596D02*
X126421905Y-77227072D01*
X126421905Y-77227072D02*
X126373524Y-77130310D01*
X126373524Y-77130310D02*
X126325143Y-77081929D01*
X126325143Y-77081929D02*
X126228381Y-77033548D01*
X126228381Y-77033548D02*
X126131619Y-77033548D01*
X126131619Y-77033548D02*
X126034857Y-77081929D01*
X126034857Y-77081929D02*
X125986476Y-77130310D01*
X125986476Y-77130310D02*
X125938095Y-77227072D01*
X125938095Y-77227072D02*
X125938095Y-77468977D01*
X125938095Y-77468977D02*
X125986476Y-77614120D01*
X126857334Y-78630120D02*
X126905715Y-78581739D01*
X126905715Y-78581739D02*
X126954095Y-78436596D01*
X126954095Y-78436596D02*
X126954095Y-78339834D01*
X126954095Y-78339834D02*
X126905715Y-78194691D01*
X126905715Y-78194691D02*
X126808953Y-78097929D01*
X126808953Y-78097929D02*
X126712191Y-78049548D01*
X126712191Y-78049548D02*
X126518667Y-78001167D01*
X126518667Y-78001167D02*
X126373524Y-78001167D01*
X126373524Y-78001167D02*
X126180000Y-78049548D01*
X126180000Y-78049548D02*
X126083238Y-78097929D01*
X126083238Y-78097929D02*
X125986476Y-78194691D01*
X125986476Y-78194691D02*
X125938095Y-78339834D01*
X125938095Y-78339834D02*
X125938095Y-78436596D01*
X125938095Y-78436596D02*
X125986476Y-78581739D01*
X125986476Y-78581739D02*
X126034857Y-78630120D01*
X126954095Y-79549358D02*
X126954095Y-79065548D01*
X126954095Y-79065548D02*
X125938095Y-79065548D01*
X125889715Y-80613739D02*
X127196000Y-79742881D01*
X126954095Y-80952405D02*
X125938095Y-80952405D01*
X125938095Y-80952405D02*
X125938095Y-81194310D01*
X125938095Y-81194310D02*
X125986476Y-81339453D01*
X125986476Y-81339453D02*
X126083238Y-81436215D01*
X126083238Y-81436215D02*
X126180000Y-81484596D01*
X126180000Y-81484596D02*
X126373524Y-81532977D01*
X126373524Y-81532977D02*
X126518667Y-81532977D01*
X126518667Y-81532977D02*
X126712191Y-81484596D01*
X126712191Y-81484596D02*
X126808953Y-81436215D01*
X126808953Y-81436215D02*
X126905715Y-81339453D01*
X126905715Y-81339453D02*
X126954095Y-81194310D01*
X126954095Y-81194310D02*
X126954095Y-80952405D01*
X126034857Y-81920024D02*
X125986476Y-81968405D01*
X125986476Y-81968405D02*
X125938095Y-82065167D01*
X125938095Y-82065167D02*
X125938095Y-82307072D01*
X125938095Y-82307072D02*
X125986476Y-82403834D01*
X125986476Y-82403834D02*
X126034857Y-82452215D01*
X126034857Y-82452215D02*
X126131619Y-82500596D01*
X126131619Y-82500596D02*
X126228381Y-82500596D01*
X126228381Y-82500596D02*
X126373524Y-82452215D01*
X126373524Y-82452215D02*
X126954095Y-81871643D01*
X126954095Y-81871643D02*
X126954095Y-82500596D01*
X126954095Y-83468215D02*
X126954095Y-82887643D01*
X126954095Y-83177929D02*
X125938095Y-83177929D01*
X125938095Y-83177929D02*
X126083238Y-83081167D01*
X126083238Y-83081167D02*
X126180000Y-82984405D01*
X126180000Y-82984405D02*
X126228381Y-82887643D01*
X148493238Y-115905095D02*
X148493238Y-114889095D01*
X148493238Y-114889095D02*
X148251333Y-114889095D01*
X148251333Y-114889095D02*
X148106190Y-114937476D01*
X148106190Y-114937476D02*
X148009428Y-115034238D01*
X148009428Y-115034238D02*
X147961047Y-115131000D01*
X147961047Y-115131000D02*
X147912666Y-115324524D01*
X147912666Y-115324524D02*
X147912666Y-115469667D01*
X147912666Y-115469667D02*
X147961047Y-115663191D01*
X147961047Y-115663191D02*
X148009428Y-115759953D01*
X148009428Y-115759953D02*
X148106190Y-115856715D01*
X148106190Y-115856715D02*
X148251333Y-115905095D01*
X148251333Y-115905095D02*
X148493238Y-115905095D01*
X147041809Y-115227762D02*
X147041809Y-115905095D01*
X147283714Y-114840715D02*
X147525619Y-115566429D01*
X147525619Y-115566429D02*
X146896666Y-115566429D01*
X146606381Y-114889095D02*
X145977428Y-114889095D01*
X145977428Y-114889095D02*
X146316095Y-115276143D01*
X146316095Y-115276143D02*
X146170952Y-115276143D01*
X146170952Y-115276143D02*
X146074190Y-115324524D01*
X146074190Y-115324524D02*
X146025809Y-115372905D01*
X146025809Y-115372905D02*
X145977428Y-115469667D01*
X145977428Y-115469667D02*
X145977428Y-115711572D01*
X145977428Y-115711572D02*
X146025809Y-115808334D01*
X146025809Y-115808334D02*
X146074190Y-115856715D01*
X146074190Y-115856715D02*
X146170952Y-115905095D01*
X146170952Y-115905095D02*
X146461238Y-115905095D01*
X146461238Y-115905095D02*
X146558000Y-115856715D01*
X146558000Y-115856715D02*
X146606381Y-115808334D01*
X145493619Y-115856715D02*
X145493619Y-115905095D01*
X145493619Y-115905095D02*
X145542000Y-116001857D01*
X145542000Y-116001857D02*
X145590381Y-116050238D01*
X145058190Y-115905095D02*
X145058190Y-114889095D01*
X145058190Y-114889095D02*
X144816285Y-114889095D01*
X144816285Y-114889095D02*
X144671142Y-114937476D01*
X144671142Y-114937476D02*
X144574380Y-115034238D01*
X144574380Y-115034238D02*
X144525999Y-115131000D01*
X144525999Y-115131000D02*
X144477618Y-115324524D01*
X144477618Y-115324524D02*
X144477618Y-115469667D01*
X144477618Y-115469667D02*
X144525999Y-115663191D01*
X144525999Y-115663191D02*
X144574380Y-115759953D01*
X144574380Y-115759953D02*
X144671142Y-115856715D01*
X144671142Y-115856715D02*
X144816285Y-115905095D01*
X144816285Y-115905095D02*
X145058190Y-115905095D01*
X143606761Y-115227762D02*
X143606761Y-115905095D01*
X143848666Y-114840715D02*
X144090571Y-115566429D01*
X144090571Y-115566429D02*
X143461618Y-115566429D01*
X143122952Y-114985857D02*
X143074571Y-114937476D01*
X143074571Y-114937476D02*
X142977809Y-114889095D01*
X142977809Y-114889095D02*
X142735904Y-114889095D01*
X142735904Y-114889095D02*
X142639142Y-114937476D01*
X142639142Y-114937476D02*
X142590761Y-114985857D01*
X142590761Y-114985857D02*
X142542380Y-115082619D01*
X142542380Y-115082619D02*
X142542380Y-115179381D01*
X142542380Y-115179381D02*
X142590761Y-115324524D01*
X142590761Y-115324524D02*
X143171333Y-115905095D01*
X143171333Y-115905095D02*
X142542380Y-115905095D01*
X148493238Y-128605095D02*
X148493238Y-127589095D01*
X148493238Y-127589095D02*
X148251333Y-127589095D01*
X148251333Y-127589095D02*
X148106190Y-127637476D01*
X148106190Y-127637476D02*
X148009428Y-127734238D01*
X148009428Y-127734238D02*
X147961047Y-127831000D01*
X147961047Y-127831000D02*
X147912666Y-128024524D01*
X147912666Y-128024524D02*
X147912666Y-128169667D01*
X147912666Y-128169667D02*
X147961047Y-128363191D01*
X147961047Y-128363191D02*
X148009428Y-128459953D01*
X148009428Y-128459953D02*
X148106190Y-128556715D01*
X148106190Y-128556715D02*
X148251333Y-128605095D01*
X148251333Y-128605095D02*
X148493238Y-128605095D01*
X146993428Y-127589095D02*
X147477238Y-127589095D01*
X147477238Y-127589095D02*
X147525619Y-128072905D01*
X147525619Y-128072905D02*
X147477238Y-128024524D01*
X147477238Y-128024524D02*
X147380476Y-127976143D01*
X147380476Y-127976143D02*
X147138571Y-127976143D01*
X147138571Y-127976143D02*
X147041809Y-128024524D01*
X147041809Y-128024524D02*
X146993428Y-128072905D01*
X146993428Y-128072905D02*
X146945047Y-128169667D01*
X146945047Y-128169667D02*
X146945047Y-128411572D01*
X146945047Y-128411572D02*
X146993428Y-128508334D01*
X146993428Y-128508334D02*
X147041809Y-128556715D01*
X147041809Y-128556715D02*
X147138571Y-128605095D01*
X147138571Y-128605095D02*
X147380476Y-128605095D01*
X147380476Y-128605095D02*
X147477238Y-128556715D01*
X147477238Y-128556715D02*
X147525619Y-128508334D01*
X146606381Y-127589095D02*
X145977428Y-127589095D01*
X145977428Y-127589095D02*
X146316095Y-127976143D01*
X146316095Y-127976143D02*
X146170952Y-127976143D01*
X146170952Y-127976143D02*
X146074190Y-128024524D01*
X146074190Y-128024524D02*
X146025809Y-128072905D01*
X146025809Y-128072905D02*
X145977428Y-128169667D01*
X145977428Y-128169667D02*
X145977428Y-128411572D01*
X145977428Y-128411572D02*
X146025809Y-128508334D01*
X146025809Y-128508334D02*
X146074190Y-128556715D01*
X146074190Y-128556715D02*
X146170952Y-128605095D01*
X146170952Y-128605095D02*
X146461238Y-128605095D01*
X146461238Y-128605095D02*
X146558000Y-128556715D01*
X146558000Y-128556715D02*
X146606381Y-128508334D01*
X145493619Y-128556715D02*
X145493619Y-128605095D01*
X145493619Y-128605095D02*
X145542000Y-128701857D01*
X145542000Y-128701857D02*
X145590381Y-128750238D01*
X145058190Y-128605095D02*
X145058190Y-127589095D01*
X145058190Y-127589095D02*
X144816285Y-127589095D01*
X144816285Y-127589095D02*
X144671142Y-127637476D01*
X144671142Y-127637476D02*
X144574380Y-127734238D01*
X144574380Y-127734238D02*
X144525999Y-127831000D01*
X144525999Y-127831000D02*
X144477618Y-128024524D01*
X144477618Y-128024524D02*
X144477618Y-128169667D01*
X144477618Y-128169667D02*
X144525999Y-128363191D01*
X144525999Y-128363191D02*
X144574380Y-128459953D01*
X144574380Y-128459953D02*
X144671142Y-128556715D01*
X144671142Y-128556715D02*
X144816285Y-128605095D01*
X144816285Y-128605095D02*
X145058190Y-128605095D01*
X143558380Y-127589095D02*
X144042190Y-127589095D01*
X144042190Y-127589095D02*
X144090571Y-128072905D01*
X144090571Y-128072905D02*
X144042190Y-128024524D01*
X144042190Y-128024524D02*
X143945428Y-127976143D01*
X143945428Y-127976143D02*
X143703523Y-127976143D01*
X143703523Y-127976143D02*
X143606761Y-128024524D01*
X143606761Y-128024524D02*
X143558380Y-128072905D01*
X143558380Y-128072905D02*
X143509999Y-128169667D01*
X143509999Y-128169667D02*
X143509999Y-128411572D01*
X143509999Y-128411572D02*
X143558380Y-128508334D01*
X143558380Y-128508334D02*
X143606761Y-128556715D01*
X143606761Y-128556715D02*
X143703523Y-128605095D01*
X143703523Y-128605095D02*
X143945428Y-128605095D01*
X143945428Y-128605095D02*
X144042190Y-128556715D01*
X144042190Y-128556715D02*
X144090571Y-128508334D01*
X143122952Y-127685857D02*
X143074571Y-127637476D01*
X143074571Y-127637476D02*
X142977809Y-127589095D01*
X142977809Y-127589095D02*
X142735904Y-127589095D01*
X142735904Y-127589095D02*
X142639142Y-127637476D01*
X142639142Y-127637476D02*
X142590761Y-127685857D01*
X142590761Y-127685857D02*
X142542380Y-127782619D01*
X142542380Y-127782619D02*
X142542380Y-127879381D01*
X142542380Y-127879381D02*
X142590761Y-128024524D01*
X142590761Y-128024524D02*
X143171333Y-128605095D01*
X143171333Y-128605095D02*
X142542380Y-128605095D01*
X93934095Y-81876167D02*
X92918095Y-81876167D01*
X92918095Y-81876167D02*
X92918095Y-82118072D01*
X92918095Y-82118072D02*
X92966476Y-82263215D01*
X92966476Y-82263215D02*
X93063238Y-82359977D01*
X93063238Y-82359977D02*
X93160000Y-82408358D01*
X93160000Y-82408358D02*
X93353524Y-82456739D01*
X93353524Y-82456739D02*
X93498667Y-82456739D01*
X93498667Y-82456739D02*
X93692191Y-82408358D01*
X93692191Y-82408358D02*
X93788953Y-82359977D01*
X93788953Y-82359977D02*
X93885715Y-82263215D01*
X93885715Y-82263215D02*
X93934095Y-82118072D01*
X93934095Y-82118072D02*
X93934095Y-81876167D01*
X93256762Y-83327596D02*
X93934095Y-83327596D01*
X92869715Y-83085691D02*
X93595429Y-82843786D01*
X93595429Y-82843786D02*
X93595429Y-83472739D01*
X131743810Y-139866786D02*
X131743810Y-140350596D01*
X132034095Y-139770024D02*
X131018095Y-140108691D01*
X131018095Y-140108691D02*
X132034095Y-140447358D01*
X132034095Y-141318215D02*
X132034095Y-140737643D01*
X132034095Y-141027929D02*
X131018095Y-141027929D01*
X131018095Y-141027929D02*
X131163238Y-140931167D01*
X131163238Y-140931167D02*
X131260000Y-140834405D01*
X131260000Y-140834405D02*
X131308381Y-140737643D01*
X131018095Y-142237453D02*
X131018095Y-141753643D01*
X131018095Y-141753643D02*
X131501905Y-141705262D01*
X131501905Y-141705262D02*
X131453524Y-141753643D01*
X131453524Y-141753643D02*
X131405143Y-141850405D01*
X131405143Y-141850405D02*
X131405143Y-142092310D01*
X131405143Y-142092310D02*
X131453524Y-142189072D01*
X131453524Y-142189072D02*
X131501905Y-142237453D01*
X131501905Y-142237453D02*
X131598667Y-142285834D01*
X131598667Y-142285834D02*
X131840572Y-142285834D01*
X131840572Y-142285834D02*
X131937334Y-142237453D01*
X131937334Y-142237453D02*
X131985715Y-142189072D01*
X131985715Y-142189072D02*
X132034095Y-142092310D01*
X132034095Y-142092310D02*
X132034095Y-141850405D01*
X132034095Y-141850405D02*
X131985715Y-141753643D01*
X131985715Y-141753643D02*
X131937334Y-141705262D01*
X124123810Y-139866786D02*
X124123810Y-140350596D01*
X124414095Y-139770024D02*
X123398095Y-140108691D01*
X123398095Y-140108691D02*
X124414095Y-140447358D01*
X124414095Y-141318215D02*
X124414095Y-140737643D01*
X124414095Y-141027929D02*
X123398095Y-141027929D01*
X123398095Y-141027929D02*
X123543238Y-140931167D01*
X123543238Y-140931167D02*
X123640000Y-140834405D01*
X123640000Y-140834405D02*
X123688381Y-140737643D01*
X123494857Y-141705262D02*
X123446476Y-141753643D01*
X123446476Y-141753643D02*
X123398095Y-141850405D01*
X123398095Y-141850405D02*
X123398095Y-142092310D01*
X123398095Y-142092310D02*
X123446476Y-142189072D01*
X123446476Y-142189072D02*
X123494857Y-142237453D01*
X123494857Y-142237453D02*
X123591619Y-142285834D01*
X123591619Y-142285834D02*
X123688381Y-142285834D01*
X123688381Y-142285834D02*
X123833524Y-142237453D01*
X123833524Y-142237453D02*
X124414095Y-141656881D01*
X124414095Y-141656881D02*
X124414095Y-142285834D01*
X96474095Y-81876167D02*
X95458095Y-81876167D01*
X95458095Y-81876167D02*
X95458095Y-82118072D01*
X95458095Y-82118072D02*
X95506476Y-82263215D01*
X95506476Y-82263215D02*
X95603238Y-82359977D01*
X95603238Y-82359977D02*
X95700000Y-82408358D01*
X95700000Y-82408358D02*
X95893524Y-82456739D01*
X95893524Y-82456739D02*
X96038667Y-82456739D01*
X96038667Y-82456739D02*
X96232191Y-82408358D01*
X96232191Y-82408358D02*
X96328953Y-82359977D01*
X96328953Y-82359977D02*
X96425715Y-82263215D01*
X96425715Y-82263215D02*
X96474095Y-82118072D01*
X96474095Y-82118072D02*
X96474095Y-81876167D01*
X95458095Y-82795405D02*
X95458095Y-83424358D01*
X95458095Y-83424358D02*
X95845143Y-83085691D01*
X95845143Y-83085691D02*
X95845143Y-83230834D01*
X95845143Y-83230834D02*
X95893524Y-83327596D01*
X95893524Y-83327596D02*
X95941905Y-83375977D01*
X95941905Y-83375977D02*
X96038667Y-83424358D01*
X96038667Y-83424358D02*
X96280572Y-83424358D01*
X96280572Y-83424358D02*
X96377334Y-83375977D01*
X96377334Y-83375977D02*
X96425715Y-83327596D01*
X96425715Y-83327596D02*
X96474095Y-83230834D01*
X96474095Y-83230834D02*
X96474095Y-82940548D01*
X96474095Y-82940548D02*
X96425715Y-82843786D01*
X96425715Y-82843786D02*
X96377334Y-82795405D01*
X103803810Y-139866786D02*
X103803810Y-140350596D01*
X104094095Y-139770024D02*
X103078095Y-140108691D01*
X103078095Y-140108691D02*
X104094095Y-140447358D01*
X103078095Y-141269834D02*
X103078095Y-140786024D01*
X103078095Y-140786024D02*
X103561905Y-140737643D01*
X103561905Y-140737643D02*
X103513524Y-140786024D01*
X103513524Y-140786024D02*
X103465143Y-140882786D01*
X103465143Y-140882786D02*
X103465143Y-141124691D01*
X103465143Y-141124691D02*
X103513524Y-141221453D01*
X103513524Y-141221453D02*
X103561905Y-141269834D01*
X103561905Y-141269834D02*
X103658667Y-141318215D01*
X103658667Y-141318215D02*
X103900572Y-141318215D01*
X103900572Y-141318215D02*
X103997334Y-141269834D01*
X103997334Y-141269834D02*
X104045715Y-141221453D01*
X104045715Y-141221453D02*
X104094095Y-141124691D01*
X104094095Y-141124691D02*
X104094095Y-140882786D01*
X104094095Y-140882786D02*
X104045715Y-140786024D01*
X104045715Y-140786024D02*
X103997334Y-140737643D01*
X75138095Y-139818405D02*
X75138095Y-140447358D01*
X75138095Y-140447358D02*
X75525143Y-140108691D01*
X75525143Y-140108691D02*
X75525143Y-140253834D01*
X75525143Y-140253834D02*
X75573524Y-140350596D01*
X75573524Y-140350596D02*
X75621905Y-140398977D01*
X75621905Y-140398977D02*
X75718667Y-140447358D01*
X75718667Y-140447358D02*
X75960572Y-140447358D01*
X75960572Y-140447358D02*
X76057334Y-140398977D01*
X76057334Y-140398977D02*
X76105715Y-140350596D01*
X76105715Y-140350596D02*
X76154095Y-140253834D01*
X76154095Y-140253834D02*
X76154095Y-139963548D01*
X76154095Y-139963548D02*
X76105715Y-139866786D01*
X76105715Y-139866786D02*
X76057334Y-139818405D01*
X75138095Y-140737643D02*
X76154095Y-141076310D01*
X76154095Y-141076310D02*
X75138095Y-141414977D01*
X75138095Y-141656881D02*
X75138095Y-142285834D01*
X75138095Y-142285834D02*
X75525143Y-141947167D01*
X75525143Y-141947167D02*
X75525143Y-142092310D01*
X75525143Y-142092310D02*
X75573524Y-142189072D01*
X75573524Y-142189072D02*
X75621905Y-142237453D01*
X75621905Y-142237453D02*
X75718667Y-142285834D01*
X75718667Y-142285834D02*
X75960572Y-142285834D01*
X75960572Y-142285834D02*
X76057334Y-142237453D01*
X76057334Y-142237453D02*
X76105715Y-142189072D01*
X76105715Y-142189072D02*
X76154095Y-142092310D01*
X76154095Y-142092310D02*
X76154095Y-141802024D01*
X76154095Y-141802024D02*
X76105715Y-141705262D01*
X76105715Y-141705262D02*
X76057334Y-141656881D01*
X108158095Y-77032024D02*
X108158095Y-77612596D01*
X109174095Y-77322310D02*
X108158095Y-77322310D01*
X108158095Y-77854500D02*
X109174095Y-78531834D01*
X108158095Y-78531834D02*
X109174095Y-77854500D01*
X108158095Y-78822119D02*
X108158095Y-79451072D01*
X108158095Y-79451072D02*
X108545143Y-79112405D01*
X108545143Y-79112405D02*
X108545143Y-79257548D01*
X108545143Y-79257548D02*
X108593524Y-79354310D01*
X108593524Y-79354310D02*
X108641905Y-79402691D01*
X108641905Y-79402691D02*
X108738667Y-79451072D01*
X108738667Y-79451072D02*
X108980572Y-79451072D01*
X108980572Y-79451072D02*
X109077334Y-79402691D01*
X109077334Y-79402691D02*
X109125715Y-79354310D01*
X109125715Y-79354310D02*
X109174095Y-79257548D01*
X109174095Y-79257548D02*
X109174095Y-78967262D01*
X109174095Y-78967262D02*
X109125715Y-78870500D01*
X109125715Y-78870500D02*
X109077334Y-78822119D01*
X108109715Y-80612215D02*
X109416000Y-79741357D01*
X109174095Y-80950881D02*
X108158095Y-80950881D01*
X108158095Y-80950881D02*
X108158095Y-81192786D01*
X108158095Y-81192786D02*
X108206476Y-81337929D01*
X108206476Y-81337929D02*
X108303238Y-81434691D01*
X108303238Y-81434691D02*
X108400000Y-81483072D01*
X108400000Y-81483072D02*
X108593524Y-81531453D01*
X108593524Y-81531453D02*
X108738667Y-81531453D01*
X108738667Y-81531453D02*
X108932191Y-81483072D01*
X108932191Y-81483072D02*
X109028953Y-81434691D01*
X109028953Y-81434691D02*
X109125715Y-81337929D01*
X109125715Y-81337929D02*
X109174095Y-81192786D01*
X109174095Y-81192786D02*
X109174095Y-80950881D01*
X109174095Y-82499072D02*
X109174095Y-81918500D01*
X109174095Y-82208786D02*
X108158095Y-82208786D01*
X108158095Y-82208786D02*
X108303238Y-82112024D01*
X108303238Y-82112024D02*
X108400000Y-82015262D01*
X108400000Y-82015262D02*
X108448381Y-81918500D01*
X108496762Y-83369929D02*
X109174095Y-83369929D01*
X108109715Y-83128024D02*
X108835429Y-82886119D01*
X108835429Y-82886119D02*
X108835429Y-83515072D01*
X104094095Y-79075787D02*
X103610286Y-78737120D01*
X104094095Y-78495215D02*
X103078095Y-78495215D01*
X103078095Y-78495215D02*
X103078095Y-78882263D01*
X103078095Y-78882263D02*
X103126476Y-78979025D01*
X103126476Y-78979025D02*
X103174857Y-79027406D01*
X103174857Y-79027406D02*
X103271619Y-79075787D01*
X103271619Y-79075787D02*
X103416762Y-79075787D01*
X103416762Y-79075787D02*
X103513524Y-79027406D01*
X103513524Y-79027406D02*
X103561905Y-78979025D01*
X103561905Y-78979025D02*
X103610286Y-78882263D01*
X103610286Y-78882263D02*
X103610286Y-78495215D01*
X103078095Y-79414453D02*
X104094095Y-80091787D01*
X103078095Y-80091787D02*
X104094095Y-79414453D01*
X103078095Y-80672358D02*
X103078095Y-80769120D01*
X103078095Y-80769120D02*
X103126476Y-80865882D01*
X103126476Y-80865882D02*
X103174857Y-80914263D01*
X103174857Y-80914263D02*
X103271619Y-80962644D01*
X103271619Y-80962644D02*
X103465143Y-81011025D01*
X103465143Y-81011025D02*
X103707048Y-81011025D01*
X103707048Y-81011025D02*
X103900572Y-80962644D01*
X103900572Y-80962644D02*
X103997334Y-80914263D01*
X103997334Y-80914263D02*
X104045715Y-80865882D01*
X104045715Y-80865882D02*
X104094095Y-80769120D01*
X104094095Y-80769120D02*
X104094095Y-80672358D01*
X104094095Y-80672358D02*
X104045715Y-80575596D01*
X104045715Y-80575596D02*
X103997334Y-80527215D01*
X103997334Y-80527215D02*
X103900572Y-80478834D01*
X103900572Y-80478834D02*
X103707048Y-80430453D01*
X103707048Y-80430453D02*
X103465143Y-80430453D01*
X103465143Y-80430453D02*
X103271619Y-80478834D01*
X103271619Y-80478834D02*
X103174857Y-80527215D01*
X103174857Y-80527215D02*
X103126476Y-80575596D01*
X103126476Y-80575596D02*
X103078095Y-80672358D01*
X104045715Y-81494834D02*
X104094095Y-81494834D01*
X104094095Y-81494834D02*
X104190857Y-81446453D01*
X104190857Y-81446453D02*
X104239238Y-81398072D01*
X104094095Y-81930263D02*
X103078095Y-81930263D01*
X103078095Y-81930263D02*
X103078095Y-82172168D01*
X103078095Y-82172168D02*
X103126476Y-82317311D01*
X103126476Y-82317311D02*
X103223238Y-82414073D01*
X103223238Y-82414073D02*
X103320000Y-82462454D01*
X103320000Y-82462454D02*
X103513524Y-82510835D01*
X103513524Y-82510835D02*
X103658667Y-82510835D01*
X103658667Y-82510835D02*
X103852191Y-82462454D01*
X103852191Y-82462454D02*
X103948953Y-82414073D01*
X103948953Y-82414073D02*
X104045715Y-82317311D01*
X104045715Y-82317311D02*
X104094095Y-82172168D01*
X104094095Y-82172168D02*
X104094095Y-81930263D01*
X103078095Y-83139787D02*
X103078095Y-83236549D01*
X103078095Y-83236549D02*
X103126476Y-83333311D01*
X103126476Y-83333311D02*
X103174857Y-83381692D01*
X103174857Y-83381692D02*
X103271619Y-83430073D01*
X103271619Y-83430073D02*
X103465143Y-83478454D01*
X103465143Y-83478454D02*
X103707048Y-83478454D01*
X103707048Y-83478454D02*
X103900572Y-83430073D01*
X103900572Y-83430073D02*
X103997334Y-83381692D01*
X103997334Y-83381692D02*
X104045715Y-83333311D01*
X104045715Y-83333311D02*
X104094095Y-83236549D01*
X104094095Y-83236549D02*
X104094095Y-83139787D01*
X104094095Y-83139787D02*
X104045715Y-83043025D01*
X104045715Y-83043025D02*
X103997334Y-82994644D01*
X103997334Y-82994644D02*
X103900572Y-82946263D01*
X103900572Y-82946263D02*
X103707048Y-82897882D01*
X103707048Y-82897882D02*
X103465143Y-82897882D01*
X103465143Y-82897882D02*
X103271619Y-82946263D01*
X103271619Y-82946263D02*
X103174857Y-82994644D01*
X103174857Y-82994644D02*
X103126476Y-83043025D01*
X103126476Y-83043025D02*
X103078095Y-83139787D01*
X80266476Y-140447358D02*
X80218095Y-140350596D01*
X80218095Y-140350596D02*
X80218095Y-140205453D01*
X80218095Y-140205453D02*
X80266476Y-140060310D01*
X80266476Y-140060310D02*
X80363238Y-139963548D01*
X80363238Y-139963548D02*
X80460000Y-139915167D01*
X80460000Y-139915167D02*
X80653524Y-139866786D01*
X80653524Y-139866786D02*
X80798667Y-139866786D01*
X80798667Y-139866786D02*
X80992191Y-139915167D01*
X80992191Y-139915167D02*
X81088953Y-139963548D01*
X81088953Y-139963548D02*
X81185715Y-140060310D01*
X81185715Y-140060310D02*
X81234095Y-140205453D01*
X81234095Y-140205453D02*
X81234095Y-140302215D01*
X81234095Y-140302215D02*
X81185715Y-140447358D01*
X81185715Y-140447358D02*
X81137334Y-140495739D01*
X81137334Y-140495739D02*
X80798667Y-140495739D01*
X80798667Y-140495739D02*
X80798667Y-140302215D01*
X81234095Y-140931167D02*
X80218095Y-140931167D01*
X80218095Y-140931167D02*
X81234095Y-141511739D01*
X81234095Y-141511739D02*
X80218095Y-141511739D01*
X81234095Y-141995548D02*
X80218095Y-141995548D01*
X80218095Y-141995548D02*
X80218095Y-142237453D01*
X80218095Y-142237453D02*
X80266476Y-142382596D01*
X80266476Y-142382596D02*
X80363238Y-142479358D01*
X80363238Y-142479358D02*
X80460000Y-142527739D01*
X80460000Y-142527739D02*
X80653524Y-142576120D01*
X80653524Y-142576120D02*
X80798667Y-142576120D01*
X80798667Y-142576120D02*
X80992191Y-142527739D01*
X80992191Y-142527739D02*
X81088953Y-142479358D01*
X81088953Y-142479358D02*
X81185715Y-142382596D01*
X81185715Y-142382596D02*
X81234095Y-142237453D01*
X81234095Y-142237453D02*
X81234095Y-141995548D01*
X129203810Y-139866786D02*
X129203810Y-140350596D01*
X129494095Y-139770024D02*
X128478095Y-140108691D01*
X128478095Y-140108691D02*
X129494095Y-140447358D01*
X129494095Y-141318215D02*
X129494095Y-140737643D01*
X129494095Y-141027929D02*
X128478095Y-141027929D01*
X128478095Y-141027929D02*
X128623238Y-140931167D01*
X128623238Y-140931167D02*
X128720000Y-140834405D01*
X128720000Y-140834405D02*
X128768381Y-140737643D01*
X128816762Y-142189072D02*
X129494095Y-142189072D01*
X128429715Y-141947167D02*
X129155429Y-141705262D01*
X129155429Y-141705262D02*
X129155429Y-142334215D01*
X72090095Y-80987167D02*
X71074095Y-80987167D01*
X71074095Y-80987167D02*
X71074095Y-81229072D01*
X71074095Y-81229072D02*
X71122476Y-81374215D01*
X71122476Y-81374215D02*
X71219238Y-81470977D01*
X71219238Y-81470977D02*
X71316000Y-81519358D01*
X71316000Y-81519358D02*
X71509524Y-81567739D01*
X71509524Y-81567739D02*
X71654667Y-81567739D01*
X71654667Y-81567739D02*
X71848191Y-81519358D01*
X71848191Y-81519358D02*
X71944953Y-81470977D01*
X71944953Y-81470977D02*
X72041715Y-81374215D01*
X72041715Y-81374215D02*
X72090095Y-81229072D01*
X72090095Y-81229072D02*
X72090095Y-80987167D01*
X72090095Y-82535358D02*
X72090095Y-81954786D01*
X72090095Y-82245072D02*
X71074095Y-82245072D01*
X71074095Y-82245072D02*
X71219238Y-82148310D01*
X71219238Y-82148310D02*
X71316000Y-82051548D01*
X71316000Y-82051548D02*
X71364381Y-81954786D01*
X71170857Y-82922405D02*
X71122476Y-82970786D01*
X71122476Y-82970786D02*
X71074095Y-83067548D01*
X71074095Y-83067548D02*
X71074095Y-83309453D01*
X71074095Y-83309453D02*
X71122476Y-83406215D01*
X71122476Y-83406215D02*
X71170857Y-83454596D01*
X71170857Y-83454596D02*
X71267619Y-83502977D01*
X71267619Y-83502977D02*
X71364381Y-83502977D01*
X71364381Y-83502977D02*
X71509524Y-83454596D01*
X71509524Y-83454596D02*
X72090095Y-82874024D01*
X72090095Y-82874024D02*
X72090095Y-83502977D01*
X101263810Y-139866786D02*
X101263810Y-140350596D01*
X101554095Y-139770024D02*
X100538095Y-140108691D01*
X100538095Y-140108691D02*
X101554095Y-140447358D01*
X100876762Y-141221453D02*
X101554095Y-141221453D01*
X100489715Y-140979548D02*
X101215429Y-140737643D01*
X101215429Y-140737643D02*
X101215429Y-141366596D01*
X148493238Y-118445095D02*
X148493238Y-117429095D01*
X148493238Y-117429095D02*
X148251333Y-117429095D01*
X148251333Y-117429095D02*
X148106190Y-117477476D01*
X148106190Y-117477476D02*
X148009428Y-117574238D01*
X148009428Y-117574238D02*
X147961047Y-117671000D01*
X147961047Y-117671000D02*
X147912666Y-117864524D01*
X147912666Y-117864524D02*
X147912666Y-118009667D01*
X147912666Y-118009667D02*
X147961047Y-118203191D01*
X147961047Y-118203191D02*
X148009428Y-118299953D01*
X148009428Y-118299953D02*
X148106190Y-118396715D01*
X148106190Y-118396715D02*
X148251333Y-118445095D01*
X148251333Y-118445095D02*
X148493238Y-118445095D01*
X147041809Y-117767762D02*
X147041809Y-118445095D01*
X147283714Y-117380715D02*
X147525619Y-118106429D01*
X147525619Y-118106429D02*
X146896666Y-118106429D01*
X146025809Y-117429095D02*
X146509619Y-117429095D01*
X146509619Y-117429095D02*
X146558000Y-117912905D01*
X146558000Y-117912905D02*
X146509619Y-117864524D01*
X146509619Y-117864524D02*
X146412857Y-117816143D01*
X146412857Y-117816143D02*
X146170952Y-117816143D01*
X146170952Y-117816143D02*
X146074190Y-117864524D01*
X146074190Y-117864524D02*
X146025809Y-117912905D01*
X146025809Y-117912905D02*
X145977428Y-118009667D01*
X145977428Y-118009667D02*
X145977428Y-118251572D01*
X145977428Y-118251572D02*
X146025809Y-118348334D01*
X146025809Y-118348334D02*
X146074190Y-118396715D01*
X146074190Y-118396715D02*
X146170952Y-118445095D01*
X146170952Y-118445095D02*
X146412857Y-118445095D01*
X146412857Y-118445095D02*
X146509619Y-118396715D01*
X146509619Y-118396715D02*
X146558000Y-118348334D01*
X145493619Y-118396715D02*
X145493619Y-118445095D01*
X145493619Y-118445095D02*
X145542000Y-118541857D01*
X145542000Y-118541857D02*
X145590381Y-118590238D01*
X145058190Y-118445095D02*
X145058190Y-117429095D01*
X145058190Y-117429095D02*
X144816285Y-117429095D01*
X144816285Y-117429095D02*
X144671142Y-117477476D01*
X144671142Y-117477476D02*
X144574380Y-117574238D01*
X144574380Y-117574238D02*
X144525999Y-117671000D01*
X144525999Y-117671000D02*
X144477618Y-117864524D01*
X144477618Y-117864524D02*
X144477618Y-118009667D01*
X144477618Y-118009667D02*
X144525999Y-118203191D01*
X144525999Y-118203191D02*
X144574380Y-118299953D01*
X144574380Y-118299953D02*
X144671142Y-118396715D01*
X144671142Y-118396715D02*
X144816285Y-118445095D01*
X144816285Y-118445095D02*
X145058190Y-118445095D01*
X143606761Y-117767762D02*
X143606761Y-118445095D01*
X143848666Y-117380715D02*
X144090571Y-118106429D01*
X144090571Y-118106429D02*
X143461618Y-118106429D01*
X142639142Y-117767762D02*
X142639142Y-118445095D01*
X142881047Y-117380715D02*
X143122952Y-118106429D01*
X143122952Y-118106429D02*
X142493999Y-118106429D01*
X86314095Y-81876167D02*
X85298095Y-81876167D01*
X85298095Y-81876167D02*
X85298095Y-82118072D01*
X85298095Y-82118072D02*
X85346476Y-82263215D01*
X85346476Y-82263215D02*
X85443238Y-82359977D01*
X85443238Y-82359977D02*
X85540000Y-82408358D01*
X85540000Y-82408358D02*
X85733524Y-82456739D01*
X85733524Y-82456739D02*
X85878667Y-82456739D01*
X85878667Y-82456739D02*
X86072191Y-82408358D01*
X86072191Y-82408358D02*
X86168953Y-82359977D01*
X86168953Y-82359977D02*
X86265715Y-82263215D01*
X86265715Y-82263215D02*
X86314095Y-82118072D01*
X86314095Y-82118072D02*
X86314095Y-81876167D01*
X85298095Y-82795405D02*
X85298095Y-83472739D01*
X85298095Y-83472739D02*
X86314095Y-83037310D01*
X79710095Y-81939548D02*
X78694095Y-81939548D01*
X78694095Y-81939548D02*
X78694095Y-82181453D01*
X78694095Y-82181453D02*
X78742476Y-82326596D01*
X78742476Y-82326596D02*
X78839238Y-82423358D01*
X78839238Y-82423358D02*
X78936000Y-82471739D01*
X78936000Y-82471739D02*
X79129524Y-82520120D01*
X79129524Y-82520120D02*
X79274667Y-82520120D01*
X79274667Y-82520120D02*
X79468191Y-82471739D01*
X79468191Y-82471739D02*
X79564953Y-82423358D01*
X79564953Y-82423358D02*
X79661715Y-82326596D01*
X79661715Y-82326596D02*
X79710095Y-82181453D01*
X79710095Y-82181453D02*
X79710095Y-81939548D01*
X79710095Y-83003929D02*
X79710095Y-83197453D01*
X79710095Y-83197453D02*
X79661715Y-83294215D01*
X79661715Y-83294215D02*
X79613334Y-83342596D01*
X79613334Y-83342596D02*
X79468191Y-83439358D01*
X79468191Y-83439358D02*
X79274667Y-83487739D01*
X79274667Y-83487739D02*
X78887619Y-83487739D01*
X78887619Y-83487739D02*
X78790857Y-83439358D01*
X78790857Y-83439358D02*
X78742476Y-83390977D01*
X78742476Y-83390977D02*
X78694095Y-83294215D01*
X78694095Y-83294215D02*
X78694095Y-83100691D01*
X78694095Y-83100691D02*
X78742476Y-83003929D01*
X78742476Y-83003929D02*
X78790857Y-82955548D01*
X78790857Y-82955548D02*
X78887619Y-82907167D01*
X78887619Y-82907167D02*
X79129524Y-82907167D01*
X79129524Y-82907167D02*
X79226286Y-82955548D01*
X79226286Y-82955548D02*
X79274667Y-83003929D01*
X79274667Y-83003929D02*
X79323048Y-83100691D01*
X79323048Y-83100691D02*
X79323048Y-83294215D01*
X79323048Y-83294215D02*
X79274667Y-83390977D01*
X79274667Y-83390977D02*
X79226286Y-83439358D01*
X79226286Y-83439358D02*
X79129524Y-83487739D01*
X148493238Y-108285095D02*
X148493238Y-107269095D01*
X148493238Y-107269095D02*
X148251333Y-107269095D01*
X148251333Y-107269095D02*
X148106190Y-107317476D01*
X148106190Y-107317476D02*
X148009428Y-107414238D01*
X148009428Y-107414238D02*
X147961047Y-107511000D01*
X147961047Y-107511000D02*
X147912666Y-107704524D01*
X147912666Y-107704524D02*
X147912666Y-107849667D01*
X147912666Y-107849667D02*
X147961047Y-108043191D01*
X147961047Y-108043191D02*
X148009428Y-108139953D01*
X148009428Y-108139953D02*
X148106190Y-108236715D01*
X148106190Y-108236715D02*
X148251333Y-108285095D01*
X148251333Y-108285095D02*
X148493238Y-108285095D01*
X147574000Y-107269095D02*
X146945047Y-107269095D01*
X146945047Y-107269095D02*
X147283714Y-107656143D01*
X147283714Y-107656143D02*
X147138571Y-107656143D01*
X147138571Y-107656143D02*
X147041809Y-107704524D01*
X147041809Y-107704524D02*
X146993428Y-107752905D01*
X146993428Y-107752905D02*
X146945047Y-107849667D01*
X146945047Y-107849667D02*
X146945047Y-108091572D01*
X146945047Y-108091572D02*
X146993428Y-108188334D01*
X146993428Y-108188334D02*
X147041809Y-108236715D01*
X147041809Y-108236715D02*
X147138571Y-108285095D01*
X147138571Y-108285095D02*
X147428857Y-108285095D01*
X147428857Y-108285095D02*
X147525619Y-108236715D01*
X147525619Y-108236715D02*
X147574000Y-108188334D01*
X146606381Y-107269095D02*
X145929047Y-107269095D01*
X145929047Y-107269095D02*
X146364476Y-108285095D01*
X145493619Y-108236715D02*
X145493619Y-108285095D01*
X145493619Y-108285095D02*
X145542000Y-108381857D01*
X145542000Y-108381857D02*
X145590381Y-108430238D01*
X145058190Y-108285095D02*
X145058190Y-107269095D01*
X145058190Y-107269095D02*
X144816285Y-107269095D01*
X144816285Y-107269095D02*
X144671142Y-107317476D01*
X144671142Y-107317476D02*
X144574380Y-107414238D01*
X144574380Y-107414238D02*
X144525999Y-107511000D01*
X144525999Y-107511000D02*
X144477618Y-107704524D01*
X144477618Y-107704524D02*
X144477618Y-107849667D01*
X144477618Y-107849667D02*
X144525999Y-108043191D01*
X144525999Y-108043191D02*
X144574380Y-108139953D01*
X144574380Y-108139953D02*
X144671142Y-108236715D01*
X144671142Y-108236715D02*
X144816285Y-108285095D01*
X144816285Y-108285095D02*
X145058190Y-108285095D01*
X144138952Y-107269095D02*
X143509999Y-107269095D01*
X143509999Y-107269095D02*
X143848666Y-107656143D01*
X143848666Y-107656143D02*
X143703523Y-107656143D01*
X143703523Y-107656143D02*
X143606761Y-107704524D01*
X143606761Y-107704524D02*
X143558380Y-107752905D01*
X143558380Y-107752905D02*
X143509999Y-107849667D01*
X143509999Y-107849667D02*
X143509999Y-108091572D01*
X143509999Y-108091572D02*
X143558380Y-108188334D01*
X143558380Y-108188334D02*
X143606761Y-108236715D01*
X143606761Y-108236715D02*
X143703523Y-108285095D01*
X143703523Y-108285095D02*
X143993809Y-108285095D01*
X143993809Y-108285095D02*
X144090571Y-108236715D01*
X144090571Y-108236715D02*
X144138952Y-108188334D01*
X142639142Y-107269095D02*
X142832666Y-107269095D01*
X142832666Y-107269095D02*
X142929428Y-107317476D01*
X142929428Y-107317476D02*
X142977809Y-107365857D01*
X142977809Y-107365857D02*
X143074571Y-107511000D01*
X143074571Y-107511000D02*
X143122952Y-107704524D01*
X143122952Y-107704524D02*
X143122952Y-108091572D01*
X143122952Y-108091572D02*
X143074571Y-108188334D01*
X143074571Y-108188334D02*
X143026190Y-108236715D01*
X143026190Y-108236715D02*
X142929428Y-108285095D01*
X142929428Y-108285095D02*
X142735904Y-108285095D01*
X142735904Y-108285095D02*
X142639142Y-108236715D01*
X142639142Y-108236715D02*
X142590761Y-108188334D01*
X142590761Y-108188334D02*
X142542380Y-108091572D01*
X142542380Y-108091572D02*
X142542380Y-107849667D01*
X142542380Y-107849667D02*
X142590761Y-107752905D01*
X142590761Y-107752905D02*
X142639142Y-107704524D01*
X142639142Y-107704524D02*
X142735904Y-107656143D01*
X142735904Y-107656143D02*
X142929428Y-107656143D01*
X142929428Y-107656143D02*
X143026190Y-107704524D01*
X143026190Y-107704524D02*
X143074571Y-107752905D01*
X143074571Y-107752905D02*
X143122952Y-107849667D01*
X148106190Y-130177476D02*
X148202952Y-130129095D01*
X148202952Y-130129095D02*
X148348095Y-130129095D01*
X148348095Y-130129095D02*
X148493238Y-130177476D01*
X148493238Y-130177476D02*
X148590000Y-130274238D01*
X148590000Y-130274238D02*
X148638381Y-130371000D01*
X148638381Y-130371000D02*
X148686762Y-130564524D01*
X148686762Y-130564524D02*
X148686762Y-130709667D01*
X148686762Y-130709667D02*
X148638381Y-130903191D01*
X148638381Y-130903191D02*
X148590000Y-130999953D01*
X148590000Y-130999953D02*
X148493238Y-131096715D01*
X148493238Y-131096715D02*
X148348095Y-131145095D01*
X148348095Y-131145095D02*
X148251333Y-131145095D01*
X148251333Y-131145095D02*
X148106190Y-131096715D01*
X148106190Y-131096715D02*
X148057809Y-131048334D01*
X148057809Y-131048334D02*
X148057809Y-130709667D01*
X148057809Y-130709667D02*
X148251333Y-130709667D01*
X147622381Y-131145095D02*
X147622381Y-130129095D01*
X147622381Y-130129095D02*
X147041809Y-131145095D01*
X147041809Y-131145095D02*
X147041809Y-130129095D01*
X146558000Y-131145095D02*
X146558000Y-130129095D01*
X146558000Y-130129095D02*
X146316095Y-130129095D01*
X146316095Y-130129095D02*
X146170952Y-130177476D01*
X146170952Y-130177476D02*
X146074190Y-130274238D01*
X146074190Y-130274238D02*
X146025809Y-130371000D01*
X146025809Y-130371000D02*
X145977428Y-130564524D01*
X145977428Y-130564524D02*
X145977428Y-130709667D01*
X145977428Y-130709667D02*
X146025809Y-130903191D01*
X146025809Y-130903191D02*
X146074190Y-130999953D01*
X146074190Y-130999953D02*
X146170952Y-131096715D01*
X146170952Y-131096715D02*
X146316095Y-131145095D01*
X146316095Y-131145095D02*
X146558000Y-131145095D01*
X145493619Y-131096715D02*
X145493619Y-131145095D01*
X145493619Y-131145095D02*
X145542000Y-131241857D01*
X145542000Y-131241857D02*
X145590381Y-131290238D01*
X144525999Y-130177476D02*
X144622761Y-130129095D01*
X144622761Y-130129095D02*
X144767904Y-130129095D01*
X144767904Y-130129095D02*
X144913047Y-130177476D01*
X144913047Y-130177476D02*
X145009809Y-130274238D01*
X145009809Y-130274238D02*
X145058190Y-130371000D01*
X145058190Y-130371000D02*
X145106571Y-130564524D01*
X145106571Y-130564524D02*
X145106571Y-130709667D01*
X145106571Y-130709667D02*
X145058190Y-130903191D01*
X145058190Y-130903191D02*
X145009809Y-130999953D01*
X145009809Y-130999953D02*
X144913047Y-131096715D01*
X144913047Y-131096715D02*
X144767904Y-131145095D01*
X144767904Y-131145095D02*
X144671142Y-131145095D01*
X144671142Y-131145095D02*
X144525999Y-131096715D01*
X144525999Y-131096715D02*
X144477618Y-131048334D01*
X144477618Y-131048334D02*
X144477618Y-130709667D01*
X144477618Y-130709667D02*
X144671142Y-130709667D01*
X144042190Y-131145095D02*
X144042190Y-130129095D01*
X144042190Y-130129095D02*
X143461618Y-131145095D01*
X143461618Y-131145095D02*
X143461618Y-130129095D01*
X142977809Y-131145095D02*
X142977809Y-130129095D01*
X142977809Y-130129095D02*
X142735904Y-130129095D01*
X142735904Y-130129095D02*
X142590761Y-130177476D01*
X142590761Y-130177476D02*
X142493999Y-130274238D01*
X142493999Y-130274238D02*
X142445618Y-130371000D01*
X142445618Y-130371000D02*
X142397237Y-130564524D01*
X142397237Y-130564524D02*
X142397237Y-130709667D01*
X142397237Y-130709667D02*
X142445618Y-130903191D01*
X142445618Y-130903191D02*
X142493999Y-130999953D01*
X142493999Y-130999953D02*
X142590761Y-131096715D01*
X142590761Y-131096715D02*
X142735904Y-131145095D01*
X142735904Y-131145095D02*
X142977809Y-131145095D01*
X111714095Y-77519644D02*
X111230286Y-77180977D01*
X111714095Y-76939072D02*
X110698095Y-76939072D01*
X110698095Y-76939072D02*
X110698095Y-77326120D01*
X110698095Y-77326120D02*
X110746476Y-77422882D01*
X110746476Y-77422882D02*
X110794857Y-77471263D01*
X110794857Y-77471263D02*
X110891619Y-77519644D01*
X110891619Y-77519644D02*
X111036762Y-77519644D01*
X111036762Y-77519644D02*
X111133524Y-77471263D01*
X111133524Y-77471263D02*
X111181905Y-77422882D01*
X111181905Y-77422882D02*
X111230286Y-77326120D01*
X111230286Y-77326120D02*
X111230286Y-76939072D01*
X110698095Y-77858310D02*
X111714095Y-78535644D01*
X110698095Y-78535644D02*
X111714095Y-77858310D01*
X110698095Y-78825929D02*
X110698095Y-79454882D01*
X110698095Y-79454882D02*
X111085143Y-79116215D01*
X111085143Y-79116215D02*
X111085143Y-79261358D01*
X111085143Y-79261358D02*
X111133524Y-79358120D01*
X111133524Y-79358120D02*
X111181905Y-79406501D01*
X111181905Y-79406501D02*
X111278667Y-79454882D01*
X111278667Y-79454882D02*
X111520572Y-79454882D01*
X111520572Y-79454882D02*
X111617334Y-79406501D01*
X111617334Y-79406501D02*
X111665715Y-79358120D01*
X111665715Y-79358120D02*
X111714095Y-79261358D01*
X111714095Y-79261358D02*
X111714095Y-78971072D01*
X111714095Y-78971072D02*
X111665715Y-78874310D01*
X111665715Y-78874310D02*
X111617334Y-78825929D01*
X110649715Y-80616025D02*
X111956000Y-79745167D01*
X111714095Y-80954691D02*
X110698095Y-80954691D01*
X110698095Y-80954691D02*
X110698095Y-81196596D01*
X110698095Y-81196596D02*
X110746476Y-81341739D01*
X110746476Y-81341739D02*
X110843238Y-81438501D01*
X110843238Y-81438501D02*
X110940000Y-81486882D01*
X110940000Y-81486882D02*
X111133524Y-81535263D01*
X111133524Y-81535263D02*
X111278667Y-81535263D01*
X111278667Y-81535263D02*
X111472191Y-81486882D01*
X111472191Y-81486882D02*
X111568953Y-81438501D01*
X111568953Y-81438501D02*
X111665715Y-81341739D01*
X111665715Y-81341739D02*
X111714095Y-81196596D01*
X111714095Y-81196596D02*
X111714095Y-80954691D01*
X111714095Y-82502882D02*
X111714095Y-81922310D01*
X111714095Y-82212596D02*
X110698095Y-82212596D01*
X110698095Y-82212596D02*
X110843238Y-82115834D01*
X110843238Y-82115834D02*
X110940000Y-82019072D01*
X110940000Y-82019072D02*
X110988381Y-81922310D01*
X110698095Y-83422120D02*
X110698095Y-82938310D01*
X110698095Y-82938310D02*
X111181905Y-82889929D01*
X111181905Y-82889929D02*
X111133524Y-82938310D01*
X111133524Y-82938310D02*
X111085143Y-83035072D01*
X111085143Y-83035072D02*
X111085143Y-83276977D01*
X111085143Y-83276977D02*
X111133524Y-83373739D01*
X111133524Y-83373739D02*
X111181905Y-83422120D01*
X111181905Y-83422120D02*
X111278667Y-83470501D01*
X111278667Y-83470501D02*
X111520572Y-83470501D01*
X111520572Y-83470501D02*
X111617334Y-83422120D01*
X111617334Y-83422120D02*
X111665715Y-83373739D01*
X111665715Y-83373739D02*
X111714095Y-83276977D01*
X111714095Y-83276977D02*
X111714095Y-83035072D01*
X111714095Y-83035072D02*
X111665715Y-82938310D01*
X111665715Y-82938310D02*
X111617334Y-82889929D01*
X69550095Y-80987167D02*
X68534095Y-80987167D01*
X68534095Y-80987167D02*
X68534095Y-81229072D01*
X68534095Y-81229072D02*
X68582476Y-81374215D01*
X68582476Y-81374215D02*
X68679238Y-81470977D01*
X68679238Y-81470977D02*
X68776000Y-81519358D01*
X68776000Y-81519358D02*
X68969524Y-81567739D01*
X68969524Y-81567739D02*
X69114667Y-81567739D01*
X69114667Y-81567739D02*
X69308191Y-81519358D01*
X69308191Y-81519358D02*
X69404953Y-81470977D01*
X69404953Y-81470977D02*
X69501715Y-81374215D01*
X69501715Y-81374215D02*
X69550095Y-81229072D01*
X69550095Y-81229072D02*
X69550095Y-80987167D01*
X69550095Y-82535358D02*
X69550095Y-81954786D01*
X69550095Y-82245072D02*
X68534095Y-82245072D01*
X68534095Y-82245072D02*
X68679238Y-82148310D01*
X68679238Y-82148310D02*
X68776000Y-82051548D01*
X68776000Y-82051548D02*
X68824381Y-81954786D01*
X68534095Y-82874024D02*
X68534095Y-83502977D01*
X68534095Y-83502977D02*
X68921143Y-83164310D01*
X68921143Y-83164310D02*
X68921143Y-83309453D01*
X68921143Y-83309453D02*
X68969524Y-83406215D01*
X68969524Y-83406215D02*
X69017905Y-83454596D01*
X69017905Y-83454596D02*
X69114667Y-83502977D01*
X69114667Y-83502977D02*
X69356572Y-83502977D01*
X69356572Y-83502977D02*
X69453334Y-83454596D01*
X69453334Y-83454596D02*
X69501715Y-83406215D01*
X69501715Y-83406215D02*
X69550095Y-83309453D01*
X69550095Y-83309453D02*
X69550095Y-83019167D01*
X69550095Y-83019167D02*
X69501715Y-82922405D01*
X69501715Y-82922405D02*
X69453334Y-82874024D01*
X121874095Y-77519644D02*
X121390286Y-77180977D01*
X121874095Y-76939072D02*
X120858095Y-76939072D01*
X120858095Y-76939072D02*
X120858095Y-77326120D01*
X120858095Y-77326120D02*
X120906476Y-77422882D01*
X120906476Y-77422882D02*
X120954857Y-77471263D01*
X120954857Y-77471263D02*
X121051619Y-77519644D01*
X121051619Y-77519644D02*
X121196762Y-77519644D01*
X121196762Y-77519644D02*
X121293524Y-77471263D01*
X121293524Y-77471263D02*
X121341905Y-77422882D01*
X121341905Y-77422882D02*
X121390286Y-77326120D01*
X121390286Y-77326120D02*
X121390286Y-76939072D01*
X120858095Y-77858310D02*
X121874095Y-78535644D01*
X120858095Y-78535644D02*
X121874095Y-77858310D01*
X121874095Y-79454882D02*
X121874095Y-78874310D01*
X121874095Y-79164596D02*
X120858095Y-79164596D01*
X120858095Y-79164596D02*
X121003238Y-79067834D01*
X121003238Y-79067834D02*
X121100000Y-78971072D01*
X121100000Y-78971072D02*
X121148381Y-78874310D01*
X120809715Y-80616025D02*
X122116000Y-79745167D01*
X121874095Y-80954691D02*
X120858095Y-80954691D01*
X120858095Y-80954691D02*
X120858095Y-81196596D01*
X120858095Y-81196596D02*
X120906476Y-81341739D01*
X120906476Y-81341739D02*
X121003238Y-81438501D01*
X121003238Y-81438501D02*
X121100000Y-81486882D01*
X121100000Y-81486882D02*
X121293524Y-81535263D01*
X121293524Y-81535263D02*
X121438667Y-81535263D01*
X121438667Y-81535263D02*
X121632191Y-81486882D01*
X121632191Y-81486882D02*
X121728953Y-81438501D01*
X121728953Y-81438501D02*
X121825715Y-81341739D01*
X121825715Y-81341739D02*
X121874095Y-81196596D01*
X121874095Y-81196596D02*
X121874095Y-80954691D01*
X121874095Y-82502882D02*
X121874095Y-81922310D01*
X121874095Y-82212596D02*
X120858095Y-82212596D01*
X120858095Y-82212596D02*
X121003238Y-82115834D01*
X121003238Y-82115834D02*
X121100000Y-82019072D01*
X121100000Y-82019072D02*
X121148381Y-81922310D01*
X121874095Y-82986691D02*
X121874095Y-83180215D01*
X121874095Y-83180215D02*
X121825715Y-83276977D01*
X121825715Y-83276977D02*
X121777334Y-83325358D01*
X121777334Y-83325358D02*
X121632191Y-83422120D01*
X121632191Y-83422120D02*
X121438667Y-83470501D01*
X121438667Y-83470501D02*
X121051619Y-83470501D01*
X121051619Y-83470501D02*
X120954857Y-83422120D01*
X120954857Y-83422120D02*
X120906476Y-83373739D01*
X120906476Y-83373739D02*
X120858095Y-83276977D01*
X120858095Y-83276977D02*
X120858095Y-83083453D01*
X120858095Y-83083453D02*
X120906476Y-82986691D01*
X120906476Y-82986691D02*
X120954857Y-82938310D01*
X120954857Y-82938310D02*
X121051619Y-82889929D01*
X121051619Y-82889929D02*
X121293524Y-82889929D01*
X121293524Y-82889929D02*
X121390286Y-82938310D01*
X121390286Y-82938310D02*
X121438667Y-82986691D01*
X121438667Y-82986691D02*
X121487048Y-83083453D01*
X121487048Y-83083453D02*
X121487048Y-83276977D01*
X121487048Y-83276977D02*
X121438667Y-83373739D01*
X121438667Y-83373739D02*
X121390286Y-83422120D01*
X121390286Y-83422120D02*
X121293524Y-83470501D01*
X88854095Y-81876167D02*
X87838095Y-81876167D01*
X87838095Y-81876167D02*
X87838095Y-82118072D01*
X87838095Y-82118072D02*
X87886476Y-82263215D01*
X87886476Y-82263215D02*
X87983238Y-82359977D01*
X87983238Y-82359977D02*
X88080000Y-82408358D01*
X88080000Y-82408358D02*
X88273524Y-82456739D01*
X88273524Y-82456739D02*
X88418667Y-82456739D01*
X88418667Y-82456739D02*
X88612191Y-82408358D01*
X88612191Y-82408358D02*
X88708953Y-82359977D01*
X88708953Y-82359977D02*
X88805715Y-82263215D01*
X88805715Y-82263215D02*
X88854095Y-82118072D01*
X88854095Y-82118072D02*
X88854095Y-81876167D01*
X87838095Y-83327596D02*
X87838095Y-83134072D01*
X87838095Y-83134072D02*
X87886476Y-83037310D01*
X87886476Y-83037310D02*
X87934857Y-82988929D01*
X87934857Y-82988929D02*
X88080000Y-82892167D01*
X88080000Y-82892167D02*
X88273524Y-82843786D01*
X88273524Y-82843786D02*
X88660572Y-82843786D01*
X88660572Y-82843786D02*
X88757334Y-82892167D01*
X88757334Y-82892167D02*
X88805715Y-82940548D01*
X88805715Y-82940548D02*
X88854095Y-83037310D01*
X88854095Y-83037310D02*
X88854095Y-83230834D01*
X88854095Y-83230834D02*
X88805715Y-83327596D01*
X88805715Y-83327596D02*
X88757334Y-83375977D01*
X88757334Y-83375977D02*
X88660572Y-83424358D01*
X88660572Y-83424358D02*
X88418667Y-83424358D01*
X88418667Y-83424358D02*
X88321905Y-83375977D01*
X88321905Y-83375977D02*
X88273524Y-83327596D01*
X88273524Y-83327596D02*
X88225143Y-83230834D01*
X88225143Y-83230834D02*
X88225143Y-83037310D01*
X88225143Y-83037310D02*
X88273524Y-82940548D01*
X88273524Y-82940548D02*
X88321905Y-82892167D01*
X88321905Y-82892167D02*
X88418667Y-82843786D01*
X91103810Y-139866786D02*
X91103810Y-140350596D01*
X91394095Y-139770024D02*
X90378095Y-140108691D01*
X90378095Y-140108691D02*
X91394095Y-140447358D01*
X90378095Y-140979548D02*
X90378095Y-141076310D01*
X90378095Y-141076310D02*
X90426476Y-141173072D01*
X90426476Y-141173072D02*
X90474857Y-141221453D01*
X90474857Y-141221453D02*
X90571619Y-141269834D01*
X90571619Y-141269834D02*
X90765143Y-141318215D01*
X90765143Y-141318215D02*
X91007048Y-141318215D01*
X91007048Y-141318215D02*
X91200572Y-141269834D01*
X91200572Y-141269834D02*
X91297334Y-141221453D01*
X91297334Y-141221453D02*
X91345715Y-141173072D01*
X91345715Y-141173072D02*
X91394095Y-141076310D01*
X91394095Y-141076310D02*
X91394095Y-140979548D01*
X91394095Y-140979548D02*
X91345715Y-140882786D01*
X91345715Y-140882786D02*
X91297334Y-140834405D01*
X91297334Y-140834405D02*
X91200572Y-140786024D01*
X91200572Y-140786024D02*
X91007048Y-140737643D01*
X91007048Y-140737643D02*
X90765143Y-140737643D01*
X90765143Y-140737643D02*
X90571619Y-140786024D01*
X90571619Y-140786024D02*
X90474857Y-140834405D01*
X90474857Y-140834405D02*
X90426476Y-140882786D01*
X90426476Y-140882786D02*
X90378095Y-140979548D01*
X73614095Y-140495739D02*
X73130286Y-140157072D01*
X73614095Y-139915167D02*
X72598095Y-139915167D01*
X72598095Y-139915167D02*
X72598095Y-140302215D01*
X72598095Y-140302215D02*
X72646476Y-140398977D01*
X72646476Y-140398977D02*
X72694857Y-140447358D01*
X72694857Y-140447358D02*
X72791619Y-140495739D01*
X72791619Y-140495739D02*
X72936762Y-140495739D01*
X72936762Y-140495739D02*
X73033524Y-140447358D01*
X73033524Y-140447358D02*
X73081905Y-140398977D01*
X73081905Y-140398977D02*
X73130286Y-140302215D01*
X73130286Y-140302215D02*
X73130286Y-139915167D01*
X73565715Y-140882786D02*
X73614095Y-141027929D01*
X73614095Y-141027929D02*
X73614095Y-141269834D01*
X73614095Y-141269834D02*
X73565715Y-141366596D01*
X73565715Y-141366596D02*
X73517334Y-141414977D01*
X73517334Y-141414977D02*
X73420572Y-141463358D01*
X73420572Y-141463358D02*
X73323810Y-141463358D01*
X73323810Y-141463358D02*
X73227048Y-141414977D01*
X73227048Y-141414977D02*
X73178667Y-141366596D01*
X73178667Y-141366596D02*
X73130286Y-141269834D01*
X73130286Y-141269834D02*
X73081905Y-141076310D01*
X73081905Y-141076310D02*
X73033524Y-140979548D01*
X73033524Y-140979548D02*
X72985143Y-140931167D01*
X72985143Y-140931167D02*
X72888381Y-140882786D01*
X72888381Y-140882786D02*
X72791619Y-140882786D01*
X72791619Y-140882786D02*
X72694857Y-140931167D01*
X72694857Y-140931167D02*
X72646476Y-140979548D01*
X72646476Y-140979548D02*
X72598095Y-141076310D01*
X72598095Y-141076310D02*
X72598095Y-141318215D01*
X72598095Y-141318215D02*
X72646476Y-141463358D01*
X72598095Y-141753643D02*
X72598095Y-142334215D01*
X73614095Y-142043929D02*
X72598095Y-142043929D01*
X73614095Y-143205072D02*
X73614095Y-142624500D01*
X73614095Y-142914786D02*
X72598095Y-142914786D01*
X72598095Y-142914786D02*
X72743238Y-142818024D01*
X72743238Y-142818024D02*
X72840000Y-142721262D01*
X72840000Y-142721262D02*
X72888381Y-142624500D01*
X124365715Y-76985929D02*
X124414095Y-77131072D01*
X124414095Y-77131072D02*
X124414095Y-77372977D01*
X124414095Y-77372977D02*
X124365715Y-77469739D01*
X124365715Y-77469739D02*
X124317334Y-77518120D01*
X124317334Y-77518120D02*
X124220572Y-77566501D01*
X124220572Y-77566501D02*
X124123810Y-77566501D01*
X124123810Y-77566501D02*
X124027048Y-77518120D01*
X124027048Y-77518120D02*
X123978667Y-77469739D01*
X123978667Y-77469739D02*
X123930286Y-77372977D01*
X123930286Y-77372977D02*
X123881905Y-77179453D01*
X123881905Y-77179453D02*
X123833524Y-77082691D01*
X123833524Y-77082691D02*
X123785143Y-77034310D01*
X123785143Y-77034310D02*
X123688381Y-76985929D01*
X123688381Y-76985929D02*
X123591619Y-76985929D01*
X123591619Y-76985929D02*
X123494857Y-77034310D01*
X123494857Y-77034310D02*
X123446476Y-77082691D01*
X123446476Y-77082691D02*
X123398095Y-77179453D01*
X123398095Y-77179453D02*
X123398095Y-77421358D01*
X123398095Y-77421358D02*
X123446476Y-77566501D01*
X124414095Y-78001929D02*
X123398095Y-78001929D01*
X123398095Y-78001929D02*
X123398095Y-78243834D01*
X123398095Y-78243834D02*
X123446476Y-78388977D01*
X123446476Y-78388977D02*
X123543238Y-78485739D01*
X123543238Y-78485739D02*
X123640000Y-78534120D01*
X123640000Y-78534120D02*
X123833524Y-78582501D01*
X123833524Y-78582501D02*
X123978667Y-78582501D01*
X123978667Y-78582501D02*
X124172191Y-78534120D01*
X124172191Y-78534120D02*
X124268953Y-78485739D01*
X124268953Y-78485739D02*
X124365715Y-78388977D01*
X124365715Y-78388977D02*
X124414095Y-78243834D01*
X124414095Y-78243834D02*
X124414095Y-78001929D01*
X124123810Y-78969548D02*
X124123810Y-79453358D01*
X124414095Y-78872786D02*
X123398095Y-79211453D01*
X123398095Y-79211453D02*
X124414095Y-79550120D01*
X123349715Y-80614501D02*
X124656000Y-79743643D01*
X124414095Y-80953167D02*
X123398095Y-80953167D01*
X123398095Y-80953167D02*
X123398095Y-81195072D01*
X123398095Y-81195072D02*
X123446476Y-81340215D01*
X123446476Y-81340215D02*
X123543238Y-81436977D01*
X123543238Y-81436977D02*
X123640000Y-81485358D01*
X123640000Y-81485358D02*
X123833524Y-81533739D01*
X123833524Y-81533739D02*
X123978667Y-81533739D01*
X123978667Y-81533739D02*
X124172191Y-81485358D01*
X124172191Y-81485358D02*
X124268953Y-81436977D01*
X124268953Y-81436977D02*
X124365715Y-81340215D01*
X124365715Y-81340215D02*
X124414095Y-81195072D01*
X124414095Y-81195072D02*
X124414095Y-80953167D01*
X123494857Y-81920786D02*
X123446476Y-81969167D01*
X123446476Y-81969167D02*
X123398095Y-82065929D01*
X123398095Y-82065929D02*
X123398095Y-82307834D01*
X123398095Y-82307834D02*
X123446476Y-82404596D01*
X123446476Y-82404596D02*
X123494857Y-82452977D01*
X123494857Y-82452977D02*
X123591619Y-82501358D01*
X123591619Y-82501358D02*
X123688381Y-82501358D01*
X123688381Y-82501358D02*
X123833524Y-82452977D01*
X123833524Y-82452977D02*
X124414095Y-81872405D01*
X124414095Y-81872405D02*
X124414095Y-82501358D01*
X123398095Y-83130310D02*
X123398095Y-83227072D01*
X123398095Y-83227072D02*
X123446476Y-83323834D01*
X123446476Y-83323834D02*
X123494857Y-83372215D01*
X123494857Y-83372215D02*
X123591619Y-83420596D01*
X123591619Y-83420596D02*
X123785143Y-83468977D01*
X123785143Y-83468977D02*
X124027048Y-83468977D01*
X124027048Y-83468977D02*
X124220572Y-83420596D01*
X124220572Y-83420596D02*
X124317334Y-83372215D01*
X124317334Y-83372215D02*
X124365715Y-83323834D01*
X124365715Y-83323834D02*
X124414095Y-83227072D01*
X124414095Y-83227072D02*
X124414095Y-83130310D01*
X124414095Y-83130310D02*
X124365715Y-83033548D01*
X124365715Y-83033548D02*
X124317334Y-82985167D01*
X124317334Y-82985167D02*
X124220572Y-82936786D01*
X124220572Y-82936786D02*
X124027048Y-82888405D01*
X124027048Y-82888405D02*
X123785143Y-82888405D01*
X123785143Y-82888405D02*
X123591619Y-82936786D01*
X123591619Y-82936786D02*
X123494857Y-82985167D01*
X123494857Y-82985167D02*
X123446476Y-83033548D01*
X123446476Y-83033548D02*
X123398095Y-83130310D01*
X148493238Y-105745095D02*
X148493238Y-104729095D01*
X148493238Y-104729095D02*
X148251333Y-104729095D01*
X148251333Y-104729095D02*
X148106190Y-104777476D01*
X148106190Y-104777476D02*
X148009428Y-104874238D01*
X148009428Y-104874238D02*
X147961047Y-104971000D01*
X147961047Y-104971000D02*
X147912666Y-105164524D01*
X147912666Y-105164524D02*
X147912666Y-105309667D01*
X147912666Y-105309667D02*
X147961047Y-105503191D01*
X147961047Y-105503191D02*
X148009428Y-105599953D01*
X148009428Y-105599953D02*
X148106190Y-105696715D01*
X148106190Y-105696715D02*
X148251333Y-105745095D01*
X148251333Y-105745095D02*
X148493238Y-105745095D01*
X147574000Y-104729095D02*
X146945047Y-104729095D01*
X146945047Y-104729095D02*
X147283714Y-105116143D01*
X147283714Y-105116143D02*
X147138571Y-105116143D01*
X147138571Y-105116143D02*
X147041809Y-105164524D01*
X147041809Y-105164524D02*
X146993428Y-105212905D01*
X146993428Y-105212905D02*
X146945047Y-105309667D01*
X146945047Y-105309667D02*
X146945047Y-105551572D01*
X146945047Y-105551572D02*
X146993428Y-105648334D01*
X146993428Y-105648334D02*
X147041809Y-105696715D01*
X147041809Y-105696715D02*
X147138571Y-105745095D01*
X147138571Y-105745095D02*
X147428857Y-105745095D01*
X147428857Y-105745095D02*
X147525619Y-105696715D01*
X147525619Y-105696715D02*
X147574000Y-105648334D01*
X146025809Y-104729095D02*
X146509619Y-104729095D01*
X146509619Y-104729095D02*
X146558000Y-105212905D01*
X146558000Y-105212905D02*
X146509619Y-105164524D01*
X146509619Y-105164524D02*
X146412857Y-105116143D01*
X146412857Y-105116143D02*
X146170952Y-105116143D01*
X146170952Y-105116143D02*
X146074190Y-105164524D01*
X146074190Y-105164524D02*
X146025809Y-105212905D01*
X146025809Y-105212905D02*
X145977428Y-105309667D01*
X145977428Y-105309667D02*
X145977428Y-105551572D01*
X145977428Y-105551572D02*
X146025809Y-105648334D01*
X146025809Y-105648334D02*
X146074190Y-105696715D01*
X146074190Y-105696715D02*
X146170952Y-105745095D01*
X146170952Y-105745095D02*
X146412857Y-105745095D01*
X146412857Y-105745095D02*
X146509619Y-105696715D01*
X146509619Y-105696715D02*
X146558000Y-105648334D01*
X145493619Y-105696715D02*
X145493619Y-105745095D01*
X145493619Y-105745095D02*
X145542000Y-105841857D01*
X145542000Y-105841857D02*
X145590381Y-105890238D01*
X145058190Y-105745095D02*
X145058190Y-104729095D01*
X145058190Y-104729095D02*
X144816285Y-104729095D01*
X144816285Y-104729095D02*
X144671142Y-104777476D01*
X144671142Y-104777476D02*
X144574380Y-104874238D01*
X144574380Y-104874238D02*
X144525999Y-104971000D01*
X144525999Y-104971000D02*
X144477618Y-105164524D01*
X144477618Y-105164524D02*
X144477618Y-105309667D01*
X144477618Y-105309667D02*
X144525999Y-105503191D01*
X144525999Y-105503191D02*
X144574380Y-105599953D01*
X144574380Y-105599953D02*
X144671142Y-105696715D01*
X144671142Y-105696715D02*
X144816285Y-105745095D01*
X144816285Y-105745095D02*
X145058190Y-105745095D01*
X144138952Y-104729095D02*
X143509999Y-104729095D01*
X143509999Y-104729095D02*
X143848666Y-105116143D01*
X143848666Y-105116143D02*
X143703523Y-105116143D01*
X143703523Y-105116143D02*
X143606761Y-105164524D01*
X143606761Y-105164524D02*
X143558380Y-105212905D01*
X143558380Y-105212905D02*
X143509999Y-105309667D01*
X143509999Y-105309667D02*
X143509999Y-105551572D01*
X143509999Y-105551572D02*
X143558380Y-105648334D01*
X143558380Y-105648334D02*
X143606761Y-105696715D01*
X143606761Y-105696715D02*
X143703523Y-105745095D01*
X143703523Y-105745095D02*
X143993809Y-105745095D01*
X143993809Y-105745095D02*
X144090571Y-105696715D01*
X144090571Y-105696715D02*
X144138952Y-105648334D01*
X142639142Y-105067762D02*
X142639142Y-105745095D01*
X142881047Y-104680715D02*
X143122952Y-105406429D01*
X143122952Y-105406429D02*
X142493999Y-105406429D01*
X148493238Y-126065095D02*
X148493238Y-125049095D01*
X148493238Y-125049095D02*
X148251333Y-125049095D01*
X148251333Y-125049095D02*
X148106190Y-125097476D01*
X148106190Y-125097476D02*
X148009428Y-125194238D01*
X148009428Y-125194238D02*
X147961047Y-125291000D01*
X147961047Y-125291000D02*
X147912666Y-125484524D01*
X147912666Y-125484524D02*
X147912666Y-125629667D01*
X147912666Y-125629667D02*
X147961047Y-125823191D01*
X147961047Y-125823191D02*
X148009428Y-125919953D01*
X148009428Y-125919953D02*
X148106190Y-126016715D01*
X148106190Y-126016715D02*
X148251333Y-126065095D01*
X148251333Y-126065095D02*
X148493238Y-126065095D01*
X146993428Y-125049095D02*
X147477238Y-125049095D01*
X147477238Y-125049095D02*
X147525619Y-125532905D01*
X147525619Y-125532905D02*
X147477238Y-125484524D01*
X147477238Y-125484524D02*
X147380476Y-125436143D01*
X147380476Y-125436143D02*
X147138571Y-125436143D01*
X147138571Y-125436143D02*
X147041809Y-125484524D01*
X147041809Y-125484524D02*
X146993428Y-125532905D01*
X146993428Y-125532905D02*
X146945047Y-125629667D01*
X146945047Y-125629667D02*
X146945047Y-125871572D01*
X146945047Y-125871572D02*
X146993428Y-125968334D01*
X146993428Y-125968334D02*
X147041809Y-126016715D01*
X147041809Y-126016715D02*
X147138571Y-126065095D01*
X147138571Y-126065095D02*
X147380476Y-126065095D01*
X147380476Y-126065095D02*
X147477238Y-126016715D01*
X147477238Y-126016715D02*
X147525619Y-125968334D01*
X145977428Y-126065095D02*
X146558000Y-126065095D01*
X146267714Y-126065095D02*
X146267714Y-125049095D01*
X146267714Y-125049095D02*
X146364476Y-125194238D01*
X146364476Y-125194238D02*
X146461238Y-125291000D01*
X146461238Y-125291000D02*
X146558000Y-125339381D01*
X145493619Y-126016715D02*
X145493619Y-126065095D01*
X145493619Y-126065095D02*
X145542000Y-126161857D01*
X145542000Y-126161857D02*
X145590381Y-126210238D01*
X145058190Y-126065095D02*
X145058190Y-125049095D01*
X145058190Y-125049095D02*
X144816285Y-125049095D01*
X144816285Y-125049095D02*
X144671142Y-125097476D01*
X144671142Y-125097476D02*
X144574380Y-125194238D01*
X144574380Y-125194238D02*
X144525999Y-125291000D01*
X144525999Y-125291000D02*
X144477618Y-125484524D01*
X144477618Y-125484524D02*
X144477618Y-125629667D01*
X144477618Y-125629667D02*
X144525999Y-125823191D01*
X144525999Y-125823191D02*
X144574380Y-125919953D01*
X144574380Y-125919953D02*
X144671142Y-126016715D01*
X144671142Y-126016715D02*
X144816285Y-126065095D01*
X144816285Y-126065095D02*
X145058190Y-126065095D01*
X143558380Y-125049095D02*
X144042190Y-125049095D01*
X144042190Y-125049095D02*
X144090571Y-125532905D01*
X144090571Y-125532905D02*
X144042190Y-125484524D01*
X144042190Y-125484524D02*
X143945428Y-125436143D01*
X143945428Y-125436143D02*
X143703523Y-125436143D01*
X143703523Y-125436143D02*
X143606761Y-125484524D01*
X143606761Y-125484524D02*
X143558380Y-125532905D01*
X143558380Y-125532905D02*
X143509999Y-125629667D01*
X143509999Y-125629667D02*
X143509999Y-125871572D01*
X143509999Y-125871572D02*
X143558380Y-125968334D01*
X143558380Y-125968334D02*
X143606761Y-126016715D01*
X143606761Y-126016715D02*
X143703523Y-126065095D01*
X143703523Y-126065095D02*
X143945428Y-126065095D01*
X143945428Y-126065095D02*
X144042190Y-126016715D01*
X144042190Y-126016715D02*
X144090571Y-125968334D01*
X142881047Y-125049095D02*
X142784285Y-125049095D01*
X142784285Y-125049095D02*
X142687523Y-125097476D01*
X142687523Y-125097476D02*
X142639142Y-125145857D01*
X142639142Y-125145857D02*
X142590761Y-125242619D01*
X142590761Y-125242619D02*
X142542380Y-125436143D01*
X142542380Y-125436143D02*
X142542380Y-125678048D01*
X142542380Y-125678048D02*
X142590761Y-125871572D01*
X142590761Y-125871572D02*
X142639142Y-125968334D01*
X142639142Y-125968334D02*
X142687523Y-126016715D01*
X142687523Y-126016715D02*
X142784285Y-126065095D01*
X142784285Y-126065095D02*
X142881047Y-126065095D01*
X142881047Y-126065095D02*
X142977809Y-126016715D01*
X142977809Y-126016715D02*
X143026190Y-125968334D01*
X143026190Y-125968334D02*
X143074571Y-125871572D01*
X143074571Y-125871572D02*
X143122952Y-125678048D01*
X143122952Y-125678048D02*
X143122952Y-125436143D01*
X143122952Y-125436143D02*
X143074571Y-125242619D01*
X143074571Y-125242619D02*
X143026190Y-125145857D01*
X143026190Y-125145857D02*
X142977809Y-125097476D01*
X142977809Y-125097476D02*
X142881047Y-125049095D01*
X74630095Y-80987167D02*
X73614095Y-80987167D01*
X73614095Y-80987167D02*
X73614095Y-81229072D01*
X73614095Y-81229072D02*
X73662476Y-81374215D01*
X73662476Y-81374215D02*
X73759238Y-81470977D01*
X73759238Y-81470977D02*
X73856000Y-81519358D01*
X73856000Y-81519358D02*
X74049524Y-81567739D01*
X74049524Y-81567739D02*
X74194667Y-81567739D01*
X74194667Y-81567739D02*
X74388191Y-81519358D01*
X74388191Y-81519358D02*
X74484953Y-81470977D01*
X74484953Y-81470977D02*
X74581715Y-81374215D01*
X74581715Y-81374215D02*
X74630095Y-81229072D01*
X74630095Y-81229072D02*
X74630095Y-80987167D01*
X74630095Y-82535358D02*
X74630095Y-81954786D01*
X74630095Y-82245072D02*
X73614095Y-82245072D01*
X73614095Y-82245072D02*
X73759238Y-82148310D01*
X73759238Y-82148310D02*
X73856000Y-82051548D01*
X73856000Y-82051548D02*
X73904381Y-81954786D01*
X74630095Y-83502977D02*
X74630095Y-82922405D01*
X74630095Y-83212691D02*
X73614095Y-83212691D01*
X73614095Y-83212691D02*
X73759238Y-83115929D01*
X73759238Y-83115929D02*
X73856000Y-83019167D01*
X73856000Y-83019167D02*
X73904381Y-82922405D01*
X82806476Y-140447358D02*
X82758095Y-140350596D01*
X82758095Y-140350596D02*
X82758095Y-140205453D01*
X82758095Y-140205453D02*
X82806476Y-140060310D01*
X82806476Y-140060310D02*
X82903238Y-139963548D01*
X82903238Y-139963548D02*
X83000000Y-139915167D01*
X83000000Y-139915167D02*
X83193524Y-139866786D01*
X83193524Y-139866786D02*
X83338667Y-139866786D01*
X83338667Y-139866786D02*
X83532191Y-139915167D01*
X83532191Y-139915167D02*
X83628953Y-139963548D01*
X83628953Y-139963548D02*
X83725715Y-140060310D01*
X83725715Y-140060310D02*
X83774095Y-140205453D01*
X83774095Y-140205453D02*
X83774095Y-140302215D01*
X83774095Y-140302215D02*
X83725715Y-140447358D01*
X83725715Y-140447358D02*
X83677334Y-140495739D01*
X83677334Y-140495739D02*
X83338667Y-140495739D01*
X83338667Y-140495739D02*
X83338667Y-140302215D01*
X83774095Y-140931167D02*
X82758095Y-140931167D01*
X82758095Y-140931167D02*
X83774095Y-141511739D01*
X83774095Y-141511739D02*
X82758095Y-141511739D01*
X83774095Y-141995548D02*
X82758095Y-141995548D01*
X82758095Y-141995548D02*
X82758095Y-142237453D01*
X82758095Y-142237453D02*
X82806476Y-142382596D01*
X82806476Y-142382596D02*
X82903238Y-142479358D01*
X82903238Y-142479358D02*
X83000000Y-142527739D01*
X83000000Y-142527739D02*
X83193524Y-142576120D01*
X83193524Y-142576120D02*
X83338667Y-142576120D01*
X83338667Y-142576120D02*
X83532191Y-142527739D01*
X83532191Y-142527739D02*
X83628953Y-142479358D01*
X83628953Y-142479358D02*
X83725715Y-142382596D01*
X83725715Y-142382596D02*
X83774095Y-142237453D01*
X83774095Y-142237453D02*
X83774095Y-141995548D01*
X143896428Y-86949095D02*
X144380238Y-86949095D01*
X144380238Y-86949095D02*
X144428619Y-87432905D01*
X144428619Y-87432905D02*
X144380238Y-87384524D01*
X144380238Y-87384524D02*
X144283476Y-87336143D01*
X144283476Y-87336143D02*
X144041571Y-87336143D01*
X144041571Y-87336143D02*
X143944809Y-87384524D01*
X143944809Y-87384524D02*
X143896428Y-87432905D01*
X143896428Y-87432905D02*
X143848047Y-87529667D01*
X143848047Y-87529667D02*
X143848047Y-87771572D01*
X143848047Y-87771572D02*
X143896428Y-87868334D01*
X143896428Y-87868334D02*
X143944809Y-87916715D01*
X143944809Y-87916715D02*
X144041571Y-87965095D01*
X144041571Y-87965095D02*
X144283476Y-87965095D01*
X144283476Y-87965095D02*
X144380238Y-87916715D01*
X144380238Y-87916715D02*
X144428619Y-87868334D01*
X143557762Y-86949095D02*
X143219095Y-87965095D01*
X143219095Y-87965095D02*
X142880428Y-86949095D01*
X142493381Y-87916715D02*
X142493381Y-87965095D01*
X142493381Y-87965095D02*
X142541762Y-88061857D01*
X142541762Y-88061857D02*
X142590143Y-88110238D01*
X141574142Y-86949095D02*
X142057952Y-86949095D01*
X142057952Y-86949095D02*
X142106333Y-87432905D01*
X142106333Y-87432905D02*
X142057952Y-87384524D01*
X142057952Y-87384524D02*
X141961190Y-87336143D01*
X141961190Y-87336143D02*
X141719285Y-87336143D01*
X141719285Y-87336143D02*
X141622523Y-87384524D01*
X141622523Y-87384524D02*
X141574142Y-87432905D01*
X141574142Y-87432905D02*
X141525761Y-87529667D01*
X141525761Y-87529667D02*
X141525761Y-87771572D01*
X141525761Y-87771572D02*
X141574142Y-87868334D01*
X141574142Y-87868334D02*
X141622523Y-87916715D01*
X141622523Y-87916715D02*
X141719285Y-87965095D01*
X141719285Y-87965095D02*
X141961190Y-87965095D01*
X141961190Y-87965095D02*
X142057952Y-87916715D01*
X142057952Y-87916715D02*
X142106333Y-87868334D01*
X141235476Y-86949095D02*
X140896809Y-87965095D01*
X140896809Y-87965095D02*
X140558142Y-86949095D01*
X85298095Y-139770024D02*
X86314095Y-140108691D01*
X86314095Y-140108691D02*
X85298095Y-140447358D01*
X86314095Y-140786024D02*
X85298095Y-140786024D01*
X86314095Y-141269834D02*
X85298095Y-141269834D01*
X85298095Y-141269834D02*
X86314095Y-141850406D01*
X86314095Y-141850406D02*
X85298095Y-141850406D01*
X148493238Y-120985095D02*
X148493238Y-119969095D01*
X148493238Y-119969095D02*
X148251333Y-119969095D01*
X148251333Y-119969095D02*
X148106190Y-120017476D01*
X148106190Y-120017476D02*
X148009428Y-120114238D01*
X148009428Y-120114238D02*
X147961047Y-120211000D01*
X147961047Y-120211000D02*
X147912666Y-120404524D01*
X147912666Y-120404524D02*
X147912666Y-120549667D01*
X147912666Y-120549667D02*
X147961047Y-120743191D01*
X147961047Y-120743191D02*
X148009428Y-120839953D01*
X148009428Y-120839953D02*
X148106190Y-120936715D01*
X148106190Y-120936715D02*
X148251333Y-120985095D01*
X148251333Y-120985095D02*
X148493238Y-120985095D01*
X147041809Y-120307762D02*
X147041809Y-120985095D01*
X147283714Y-119920715D02*
X147525619Y-120646429D01*
X147525619Y-120646429D02*
X146896666Y-120646429D01*
X146606381Y-119969095D02*
X145929047Y-119969095D01*
X145929047Y-119969095D02*
X146364476Y-120985095D01*
X145493619Y-120936715D02*
X145493619Y-120985095D01*
X145493619Y-120985095D02*
X145542000Y-121081857D01*
X145542000Y-121081857D02*
X145590381Y-121130238D01*
X145058190Y-120985095D02*
X145058190Y-119969095D01*
X145058190Y-119969095D02*
X144816285Y-119969095D01*
X144816285Y-119969095D02*
X144671142Y-120017476D01*
X144671142Y-120017476D02*
X144574380Y-120114238D01*
X144574380Y-120114238D02*
X144525999Y-120211000D01*
X144525999Y-120211000D02*
X144477618Y-120404524D01*
X144477618Y-120404524D02*
X144477618Y-120549667D01*
X144477618Y-120549667D02*
X144525999Y-120743191D01*
X144525999Y-120743191D02*
X144574380Y-120839953D01*
X144574380Y-120839953D02*
X144671142Y-120936715D01*
X144671142Y-120936715D02*
X144816285Y-120985095D01*
X144816285Y-120985095D02*
X145058190Y-120985095D01*
X143606761Y-120307762D02*
X143606761Y-120985095D01*
X143848666Y-119920715D02*
X144090571Y-120646429D01*
X144090571Y-120646429D02*
X143461618Y-120646429D01*
X142639142Y-119969095D02*
X142832666Y-119969095D01*
X142832666Y-119969095D02*
X142929428Y-120017476D01*
X142929428Y-120017476D02*
X142977809Y-120065857D01*
X142977809Y-120065857D02*
X143074571Y-120211000D01*
X143074571Y-120211000D02*
X143122952Y-120404524D01*
X143122952Y-120404524D02*
X143122952Y-120791572D01*
X143122952Y-120791572D02*
X143074571Y-120888334D01*
X143074571Y-120888334D02*
X143026190Y-120936715D01*
X143026190Y-120936715D02*
X142929428Y-120985095D01*
X142929428Y-120985095D02*
X142735904Y-120985095D01*
X142735904Y-120985095D02*
X142639142Y-120936715D01*
X142639142Y-120936715D02*
X142590761Y-120888334D01*
X142590761Y-120888334D02*
X142542380Y-120791572D01*
X142542380Y-120791572D02*
X142542380Y-120549667D01*
X142542380Y-120549667D02*
X142590761Y-120452905D01*
X142590761Y-120452905D02*
X142639142Y-120404524D01*
X142639142Y-120404524D02*
X142735904Y-120356143D01*
X142735904Y-120356143D02*
X142929428Y-120356143D01*
X142929428Y-120356143D02*
X143026190Y-120404524D01*
X143026190Y-120404524D02*
X143074571Y-120452905D01*
X143074571Y-120452905D02*
X143122952Y-120549667D01*
D11*
%TO.C,XA1*%
X50927000Y-84963000D02*
X50927000Y-138303000D01*
X50927000Y-84963000D02*
X137668000Y-84963000D01*
X50927000Y-138303000D02*
X139192000Y-138303000D01*
X137668000Y-84963000D02*
X139192000Y-86487000D01*
X139192000Y-97663000D02*
X139192000Y-86487000D01*
X139192000Y-137033000D02*
X141732000Y-134493000D01*
X139192000Y-138303000D02*
X139192000Y-137033000D01*
X141732000Y-100203000D02*
X139192000Y-97663000D01*
X141732000Y-134493000D02*
X141732000Y-100203000D01*
D12*
%TO.C,MTH2*%
X252095000Y-205105000D02*
G75*
G03*
X252095000Y-205105000I-3810000J0D01*
G01*
%TO.C,MTH4*%
X60325000Y-51435000D02*
G75*
G03*
X60325000Y-51435000I-3810000J0D01*
G01*
%TO.C,MTH1*%
X60325000Y-205105000D02*
G75*
G03*
X60325000Y-205105000I-3810000J0D01*
G01*
%TO.C,MTH3*%
X252095000Y-51435000D02*
G75*
G03*
X252095000Y-51435000I-3810000J0D01*
G01*
%TD*%
M02*
