M48
; DRILL file {KiCad 7.0.7} date Sat Sep 23 16:53:49 2023
; FORMAT={-:-/ absolute / inch / decimal}
; #@! TF.CreationDate,2023-09-23T16:53:49-05:00
; #@! TF.GenerationSoftware,Kicad,Pcbnew,7.0.7
; #@! TF.FileFunction,MixedPlating,1,4
FMAT,2
INCH
; #@! TA.AperFunction,Plated,PTH,ViaDrill
T1C0.0120
; #@! TA.AperFunction,Plated,PTH,ViaDrill
T2C0.0150
; #@! TA.AperFunction,Plated,PTH,ComponentDrill
T3C0.0315
; #@! TA.AperFunction,Plated,PTH,ComponentDrill
T4C0.0335
; #@! TA.AperFunction,Plated,PTH,ComponentDrill
T5C0.0400
; #@! TA.AperFunction,Plated,PTH,ComponentDrill
T6C0.0415
; #@! TA.AperFunction,Plated,PTH,ComponentDrill
T7C0.0420
; #@! TA.AperFunction,Plated,PTH,ComponentDrill
T8C0.0433
; #@! TA.AperFunction,Plated,PTH,ComponentDrill
T9C0.0450
; #@! TA.AperFunction,Plated,PTH,ComponentDrill
T10C0.0480
; #@! TA.AperFunction,NonPlated,NPTH,ComponentDrill
T11C0.1260
; #@! TA.AperFunction,NonPlated,NPTH,ComponentDrill
T12C0.1500
%
G90
G05
T1
X2.3269Y-7.7153
X2.42Y-6.9507
X2.4482Y-6.15
X2.6506Y-6.3196
X4.657Y-6.3641
X5.4919Y-3.526
X6.0001Y-6.175
X6.2908Y-6.7994
X6.8417Y-7.6955
X6.8445Y-3.6
X6.9557Y-7.4128
X7.3809Y-6.2726
X7.9713Y-7.5125
X8.2405Y-4.775
T2
X6.1861Y-4.232
X6.775Y-6.8502
X6.9811Y-5.7913
T3
X2.5997Y-6.225
X2.6Y-6.45
X2.6787Y-6.45
X2.9697Y-6.225
X3.525Y-5.825
X3.895Y-5.825
X4.075Y-5.82
X4.525Y-5.82
X5.475Y-5.825
X5.695Y-7.58
X5.695Y-7.95
X5.925Y-5.825
X6.475Y-3.55
X6.475Y-3.65
X6.475Y-3.75
X6.475Y-3.85
X6.475Y-3.95
X6.475Y-4.05
X6.475Y-4.15
X6.475Y-4.25
X6.475Y-4.525
X6.475Y-4.625
X6.475Y-4.725
X6.475Y-4.825
X6.475Y-4.925
X6.475Y-5.025
X6.475Y-5.125
X6.475Y-5.225
X6.775Y-3.55
X6.775Y-3.65
X6.775Y-3.75
X6.775Y-3.85
X6.775Y-3.95
X6.775Y-4.05
X6.775Y-4.15
X6.775Y-4.25
X6.775Y-4.525
X6.775Y-4.625
X6.775Y-4.725
X6.775Y-4.825
X6.775Y-4.925
X6.775Y-5.025
X6.775Y-5.125
X6.775Y-5.225
X7.2Y-4.775
X7.297Y-6.555
X7.297Y-6.925
X7.65Y-4.775
X7.75Y-4.2143
X7.75Y-4.5843
X7.85Y-4.775
X7.85Y-5.0
X7.85Y-5.225
X7.975Y-6.175
X8.0Y-4.25
X8.0Y-4.55
X8.1Y-4.25
X8.1Y-4.55
X8.2Y-4.25
X8.2Y-4.55
X8.3Y-4.25
X8.3Y-4.55
X8.3Y-4.775
X8.3Y-5.0
X8.3Y-5.225
X8.4Y-4.25
X8.4Y-4.55
X8.425Y-6.175
X8.5Y-4.25
X8.5Y-4.55
X8.6Y-4.25
X8.6Y-4.55
X9.0Y-4.775
X9.0Y-5.225
T4
X4.075Y-6.3
X4.075Y-6.6
X4.075Y-6.75
X4.075Y-7.05
X4.375Y-6.3
X4.375Y-6.6
X4.375Y-6.75
X4.375Y-7.05
X4.575Y-6.3
X4.575Y-6.6
X4.575Y-6.75
X4.575Y-7.05
X4.775Y-6.3
X4.775Y-6.6
X4.775Y-6.75
X4.775Y-7.05
X5.175Y-6.3
X5.175Y-6.6
X5.175Y-6.75
X5.175Y-7.05
X5.475Y-6.3
X5.475Y-6.6
X5.475Y-6.75
X5.475Y-7.05
X5.675Y-6.3
X5.675Y-6.6
X5.675Y-6.75
X5.675Y-7.05
X5.875Y-6.3
X5.875Y-6.6
X5.875Y-6.75
X5.875Y-7.05
X6.7763Y-7.3981
X6.7763Y-7.6981
X7.0763Y-7.3981
X7.0763Y-7.6981
X7.2763Y-7.3981
X7.2763Y-7.6981
X7.4763Y-7.3981
X7.4763Y-7.6981
X8.6Y-5.5
X8.6Y-5.8
X8.6Y-5.95
X8.6Y-6.25
X8.6Y-6.4
X8.6Y-6.7
X8.6Y-6.85
X8.6Y-7.15
X8.6Y-7.3
X8.6Y-7.6
X8.6Y-7.75
X8.6Y-8.05
X8.9Y-5.5
X8.9Y-5.8
X8.9Y-5.95
X8.9Y-6.25
X8.9Y-6.4
X8.9Y-6.7
X8.9Y-6.85
X8.9Y-7.15
X8.9Y-7.3
X8.9Y-7.6
X8.9Y-7.75
X8.9Y-8.05
X9.1Y-5.5
X9.1Y-5.8
X9.1Y-5.95
X9.1Y-6.25
X9.1Y-6.4
X9.1Y-6.7
X9.1Y-6.85
X9.1Y-7.15
X9.1Y-7.3
X9.1Y-7.6
X9.1Y-7.75
X9.1Y-8.05
X9.3Y-5.5
X9.3Y-5.8
X9.3Y-5.95
X9.3Y-6.25
X9.3Y-6.4
X9.3Y-6.7
X9.3Y-6.85
X9.3Y-7.15
X9.3Y-7.3
X9.3Y-7.6
X9.3Y-7.75
X9.3Y-8.05
T5
X2.32Y-3.445
X2.42Y-3.445
X2.52Y-3.445
X2.62Y-3.445
X2.68Y-5.345
X2.72Y-3.445
X2.78Y-5.345
X2.82Y-3.445
X2.88Y-5.345
X2.92Y-3.445
X2.98Y-5.345
X3.02Y-3.445
X3.08Y-5.345
X3.12Y-3.445
X3.18Y-5.345
X3.22Y-3.445
X3.28Y-5.345
X3.38Y-3.445
X3.38Y-5.345
X3.48Y-3.445
X3.58Y-3.445
X3.58Y-5.345
X3.68Y-3.445
X3.68Y-5.345
X3.78Y-3.445
X3.78Y-5.345
X3.88Y-3.445
X3.88Y-5.345
X3.98Y-3.445
X3.98Y-5.345
X4.08Y-3.445
X4.08Y-5.345
X4.18Y-5.345
X4.28Y-3.445
X4.28Y-5.345
X4.38Y-3.445
X4.48Y-3.445
X4.48Y-5.345
X4.58Y-3.445
X4.58Y-5.345
X4.68Y-3.445
X4.68Y-5.345
X4.78Y-3.445
X4.78Y-5.345
X4.88Y-3.445
X4.88Y-5.345
X4.98Y-3.445
X4.98Y-5.345
X5.08Y-5.345
X5.18Y-5.345
X5.28Y-3.445
X5.28Y-3.545
X5.28Y-3.645
X5.28Y-3.745
X5.28Y-3.845
X5.28Y-3.945
X5.28Y-4.045
X5.28Y-4.145
X5.28Y-4.245
X5.28Y-4.345
X5.28Y-4.445
X5.28Y-4.545
X5.28Y-4.645
X5.28Y-4.745
X5.28Y-4.845
X5.28Y-4.945
X5.28Y-5.045
X5.28Y-5.145
X5.38Y-3.445
X5.38Y-3.545
X5.38Y-3.645
X5.38Y-3.745
X5.38Y-3.845
X5.38Y-3.945
X5.38Y-4.045
X5.38Y-4.145
X5.38Y-4.245
X5.38Y-4.345
X5.38Y-4.445
X5.38Y-4.545
X5.38Y-4.645
X5.38Y-4.745
X5.38Y-4.845
X5.38Y-4.945
X5.38Y-5.045
X5.38Y-5.145
X5.895Y-7.45
X5.895Y-7.55
X5.895Y-7.65
X5.895Y-7.75
X5.895Y-7.85
X5.895Y-7.95
X7.497Y-6.425
X7.497Y-6.525
X7.497Y-6.625
X7.497Y-6.725
X7.497Y-6.825
X7.497Y-6.925
T6
X4.275Y-7.325
X4.775Y-7.325
X6.375Y-5.825
X6.375Y-6.325
T7
X2.55Y-7.925
X2.55Y-8.025
X2.55Y-8.125
X2.575Y-2.0
X2.575Y-2.1
X2.575Y-2.2
X2.575Y-2.3
X2.575Y-2.4
X2.575Y-2.5
X2.575Y-2.6
X2.575Y-2.7
X2.575Y-2.8
X2.575Y-2.9
X2.65Y-7.925
X2.65Y-8.025
X2.65Y-8.125
X2.675Y-2.0
X2.675Y-2.1
X2.675Y-2.2
X2.675Y-2.3
X2.675Y-2.4
X2.675Y-2.5
X2.675Y-2.6
X2.675Y-2.7
X2.675Y-2.8
X2.675Y-2.9
X2.75Y-7.925
X2.75Y-8.025
X2.75Y-8.125
X2.775Y-2.0
X2.775Y-2.1
X2.775Y-2.2
X2.775Y-2.3
X2.775Y-2.4
X2.775Y-2.5
X2.775Y-2.6
X2.775Y-2.7
X2.775Y-2.8
X2.775Y-2.9
X2.85Y-7.925
X2.85Y-8.025
X2.85Y-8.125
X2.875Y-2.0
X2.875Y-2.1
X2.875Y-2.2
X2.875Y-2.3
X2.875Y-2.4
X2.875Y-2.5
X2.875Y-2.6
X2.875Y-2.7
X2.875Y-2.8
X2.875Y-2.9
X2.95Y-7.925
X2.95Y-8.025
X2.95Y-8.125
X2.975Y-2.0
X2.975Y-2.1
X2.975Y-2.2
X2.975Y-2.3
X2.975Y-2.4
X2.975Y-2.5
X2.975Y-2.6
X2.975Y-2.7
X2.975Y-2.8
X2.975Y-2.9
X3.05Y-7.925
X3.05Y-8.025
X3.05Y-8.125
X3.075Y-2.0
X3.075Y-2.1
X3.075Y-2.2
X3.075Y-2.3
X3.075Y-2.4
X3.075Y-2.5
X3.075Y-2.6
X3.075Y-2.7
X3.075Y-2.8
X3.075Y-2.9
X3.15Y-7.925
X3.15Y-8.025
X3.15Y-8.125
X3.175Y-2.0
X3.175Y-2.1
X3.175Y-2.2
X3.175Y-2.3
X3.175Y-2.4
X3.175Y-2.5
X3.175Y-2.6
X3.175Y-2.7
X3.175Y-2.8
X3.175Y-2.9
X3.25Y-7.925
X3.25Y-8.025
X3.25Y-8.125
X3.275Y-2.0
X3.275Y-2.1
X3.275Y-2.2
X3.275Y-2.3
X3.275Y-2.4
X3.275Y-2.5
X3.275Y-2.6
X3.275Y-2.7
X3.275Y-2.8
X3.275Y-2.9
X3.35Y-7.925
X3.35Y-8.025
X3.35Y-8.125
X3.375Y-2.0
X3.375Y-2.1
X3.375Y-2.2
X3.375Y-2.3
X3.375Y-2.4
X3.375Y-2.5
X3.375Y-2.6
X3.375Y-2.7
X3.375Y-2.8
X3.375Y-2.9
X3.45Y-7.925
X3.45Y-8.025
X3.45Y-8.125
X3.475Y-2.0
X3.475Y-2.1
X3.475Y-2.2
X3.475Y-2.3
X3.475Y-2.4
X3.475Y-2.5
X3.475Y-2.6
X3.475Y-2.7
X3.475Y-2.8
X3.475Y-2.9
X3.55Y-7.925
X3.55Y-8.025
X3.55Y-8.125
X3.575Y-2.0
X3.575Y-2.1
X3.575Y-2.2
X3.575Y-2.3
X3.575Y-2.4
X3.575Y-2.5
X3.575Y-2.6
X3.575Y-2.7
X3.575Y-2.8
X3.575Y-2.9
X3.65Y-7.925
X3.65Y-8.025
X3.65Y-8.125
X3.675Y-2.0
X3.675Y-2.1
X3.675Y-2.2
X3.675Y-2.3
X3.675Y-2.4
X3.675Y-2.5
X3.675Y-2.6
X3.675Y-2.7
X3.675Y-2.8
X3.675Y-2.9
X3.75Y-7.925
X3.75Y-8.025
X3.75Y-8.125
X3.775Y-2.0
X3.775Y-2.1
X3.775Y-2.2
X3.775Y-2.3
X3.775Y-2.4
X3.775Y-2.5
X3.775Y-2.6
X3.775Y-2.7
X3.775Y-2.8
X3.775Y-2.9
X3.85Y-7.925
X3.85Y-8.025
X3.85Y-8.125
X3.875Y-2.0
X3.875Y-2.1
X3.875Y-2.2
X3.875Y-2.3
X3.875Y-2.4
X3.875Y-2.5
X3.875Y-2.6
X3.875Y-2.7
X3.875Y-2.8
X3.875Y-2.9
X3.95Y-7.925
X3.95Y-8.025
X3.95Y-8.125
X3.975Y-2.0
X3.975Y-2.1
X3.975Y-2.2
X3.975Y-2.3
X3.975Y-2.4
X3.975Y-2.5
X3.975Y-2.6
X3.975Y-2.7
X3.975Y-2.8
X3.975Y-2.9
X4.05Y-7.925
X4.05Y-8.025
X4.05Y-8.125
X4.075Y-2.0
X4.075Y-2.1
X4.075Y-2.2
X4.075Y-2.3
X4.075Y-2.4
X4.075Y-2.5
X4.075Y-2.6
X4.075Y-2.7
X4.075Y-2.8
X4.075Y-2.9
X4.15Y-7.925
X4.15Y-8.025
X4.15Y-8.125
X4.175Y-2.0
X4.175Y-2.1
X4.175Y-2.2
X4.175Y-2.3
X4.175Y-2.4
X4.175Y-2.5
X4.175Y-2.6
X4.175Y-2.7
X4.175Y-2.8
X4.175Y-2.9
X4.25Y-7.925
X4.25Y-8.025
X4.25Y-8.125
X4.275Y-2.0
X4.275Y-2.1
X4.275Y-2.2
X4.275Y-2.3
X4.275Y-2.4
X4.275Y-2.5
X4.275Y-2.6
X4.275Y-2.7
X4.275Y-2.8
X4.275Y-2.9
X4.35Y-7.925
X4.35Y-8.025
X4.35Y-8.125
X4.375Y-2.0
X4.375Y-2.1
X4.375Y-2.2
X4.375Y-2.3
X4.375Y-2.4
X4.375Y-2.5
X4.375Y-2.6
X4.375Y-2.7
X4.375Y-2.8
X4.375Y-2.9
X4.45Y-7.925
X4.45Y-8.025
X4.45Y-8.125
X4.475Y-2.0
X4.475Y-2.1
X4.475Y-2.2
X4.475Y-2.3
X4.475Y-2.4
X4.475Y-2.5
X4.475Y-2.6
X4.475Y-2.7
X4.475Y-2.8
X4.475Y-2.9
X4.575Y-2.0
X4.575Y-2.1
X4.575Y-2.2
X4.575Y-2.3
X4.575Y-2.4
X4.575Y-2.5
X4.575Y-2.6
X4.575Y-2.7
X4.575Y-2.8
X4.575Y-2.9
X4.675Y-2.0
X4.675Y-2.1
X4.675Y-2.2
X4.675Y-2.3
X4.675Y-2.4
X4.675Y-2.5
X4.675Y-2.6
X4.675Y-2.7
X4.675Y-2.8
X4.675Y-2.9
X4.775Y-2.0
X4.775Y-2.1
X4.775Y-2.2
X4.775Y-2.3
X4.775Y-2.4
X4.775Y-2.5
X4.775Y-2.6
X4.775Y-2.7
X4.775Y-2.8
X4.775Y-2.9
X4.875Y-2.0
X4.875Y-2.1
X4.875Y-2.2
X4.875Y-2.3
X4.875Y-2.4
X4.875Y-2.5
X4.875Y-2.6
X4.875Y-2.7
X4.875Y-2.8
X4.875Y-2.9
X4.975Y-2.0
X4.975Y-2.1
X4.975Y-2.2
X4.975Y-2.3
X4.975Y-2.4
X4.975Y-2.5
X4.975Y-2.6
X4.975Y-2.7
X4.975Y-2.8
X4.975Y-2.9
X5.075Y-2.0
X5.075Y-2.1
X5.075Y-2.2
X5.075Y-2.3
X5.075Y-2.4
X5.075Y-2.5
X5.075Y-2.6
X5.075Y-2.7
X5.075Y-2.8
X5.075Y-2.9
X5.175Y-2.0
X5.175Y-2.1
X5.175Y-2.2
X5.175Y-2.3
X5.175Y-2.4
X5.175Y-2.5
X5.175Y-2.6
X5.175Y-2.7
X5.175Y-2.8
X5.175Y-2.9
X5.275Y-2.0
X5.275Y-2.1
X5.275Y-2.2
X5.275Y-2.3
X5.275Y-2.4
X5.275Y-2.5
X5.275Y-2.6
X5.275Y-2.7
X5.275Y-2.8
X5.275Y-2.9
X5.375Y-2.0
X5.375Y-2.1
X5.375Y-2.2
X5.375Y-2.3
X5.375Y-2.4
X5.375Y-2.5
X5.375Y-2.6
X5.375Y-2.7
X5.375Y-2.8
X5.375Y-2.9
X5.475Y-2.0
X5.475Y-2.1
X5.475Y-2.2
X5.475Y-2.3
X5.475Y-2.4
X5.475Y-2.5
X5.475Y-2.6
X5.475Y-2.7
X5.475Y-2.8
X5.475Y-2.9
X5.575Y-2.0
X5.575Y-2.1
X5.575Y-2.2
X5.575Y-2.3
X5.575Y-2.4
X5.575Y-2.5
X5.575Y-2.6
X5.575Y-2.7
X5.575Y-2.8
X5.575Y-2.9
X5.675Y-2.0
X5.675Y-2.1
X5.675Y-2.2
X5.675Y-2.3
X5.675Y-2.4
X5.675Y-2.5
X5.675Y-2.6
X5.675Y-2.7
X5.675Y-2.8
X5.675Y-2.9
X5.775Y-2.0
X5.775Y-2.1
X5.775Y-2.2
X5.775Y-2.3
X5.775Y-2.4
X5.775Y-2.5
X5.775Y-2.6
X5.775Y-2.7
X5.775Y-2.8
X5.775Y-2.9
X5.875Y-2.0
X5.875Y-2.1
X5.875Y-2.2
X5.875Y-2.3
X5.875Y-2.4
X5.875Y-2.5
X5.875Y-2.6
X5.875Y-2.7
X5.875Y-2.8
X5.875Y-2.9
X5.975Y-2.0
X5.975Y-2.1
X5.975Y-2.2
X5.975Y-2.3
X5.975Y-2.4
X5.975Y-2.5
X5.975Y-2.6
X5.975Y-2.7
X5.975Y-2.8
X5.975Y-2.9
X6.075Y-2.0
X6.075Y-2.1
X6.075Y-2.2
X6.075Y-2.3
X6.075Y-2.4
X6.075Y-2.5
X6.075Y-2.6
X6.075Y-2.7
X6.075Y-2.8
X6.075Y-2.9
X6.175Y-2.0
X6.175Y-2.1
X6.175Y-2.2
X6.175Y-2.3
X6.175Y-2.4
X6.175Y-2.5
X6.175Y-2.6
X6.175Y-2.7
X6.175Y-2.8
X6.175Y-2.9
X6.275Y-2.0
X6.275Y-2.1
X6.275Y-2.2
X6.275Y-2.3
X6.275Y-2.4
X6.275Y-2.5
X6.275Y-2.6
X6.275Y-2.7
X6.275Y-2.8
X6.275Y-2.9
X6.375Y-2.0
X6.375Y-2.1
X6.375Y-2.2
X6.375Y-2.3
X6.375Y-2.4
X6.375Y-2.5
X6.375Y-2.6
X6.375Y-2.7
X6.375Y-2.8
X6.375Y-2.9
X6.475Y-2.0
X6.475Y-2.1
X6.475Y-2.2
X6.475Y-2.3
X6.475Y-2.4
X6.475Y-2.5
X6.475Y-2.6
X6.475Y-2.7
X6.475Y-2.8
X6.475Y-2.9
X7.325Y-2.0
X7.325Y-2.1
X7.325Y-2.2
X7.325Y-2.3
X7.325Y-2.4
X7.325Y-2.5
X7.325Y-2.6
X7.325Y-2.7
X7.325Y-2.8
X7.325Y-2.9
X7.425Y-2.0
X7.425Y-2.1
X7.425Y-2.2
X7.425Y-2.3
X7.425Y-2.4
X7.425Y-2.5
X7.425Y-2.6
X7.425Y-2.7
X7.425Y-2.8
X7.425Y-2.9
X7.525Y-2.0
X7.525Y-2.1
X7.525Y-2.2
X7.525Y-2.3
X7.525Y-2.4
X7.525Y-2.5
X7.525Y-2.6
X7.525Y-2.7
X7.525Y-2.8
X7.525Y-2.9
X7.625Y-2.0
X7.625Y-2.1
X7.625Y-2.2
X7.625Y-2.3
X7.625Y-2.4
X7.625Y-2.5
X7.625Y-2.6
X7.625Y-2.7
X7.625Y-2.8
X7.625Y-2.9
X7.725Y-2.0
X7.725Y-2.1
X7.725Y-2.2
X7.725Y-2.3
X7.725Y-2.4
X7.725Y-2.5
X7.725Y-2.6
X7.725Y-2.7
X7.725Y-2.8
X7.725Y-2.9
X7.825Y-2.0
X7.825Y-2.1
X7.825Y-2.2
X7.825Y-2.3
X7.825Y-2.4
X7.825Y-2.5
X7.825Y-2.6
X7.825Y-2.7
X7.825Y-2.8
X7.825Y-2.9
X7.925Y-2.0
X7.925Y-2.1
X7.925Y-2.2
X7.925Y-2.3
X7.925Y-2.4
X7.925Y-2.5
X7.925Y-2.6
X7.925Y-2.7
X7.925Y-2.8
X7.925Y-2.9
X8.025Y-2.0
X8.025Y-2.1
X8.025Y-2.2
X8.025Y-2.3
X8.025Y-2.4
X8.025Y-2.5
X8.025Y-2.6
X8.025Y-2.7
X8.025Y-2.8
X8.025Y-2.9
X8.125Y-2.0
X8.125Y-2.1
X8.125Y-2.2
X8.125Y-2.3
X8.125Y-2.4
X8.125Y-2.5
X8.125Y-2.6
X8.125Y-2.7
X8.125Y-2.8
X8.125Y-2.9
X8.225Y-2.0
X8.225Y-2.1
X8.225Y-2.2
X8.225Y-2.3
X8.225Y-2.4
X8.225Y-2.5
X8.225Y-2.6
X8.225Y-2.7
X8.225Y-2.8
X8.225Y-2.9
X8.325Y-2.0
X8.325Y-2.1
X8.325Y-2.2
X8.325Y-2.3
X8.325Y-2.4
X8.325Y-2.5
X8.325Y-2.6
X8.325Y-2.7
X8.325Y-2.8
X8.325Y-2.9
X8.425Y-2.0
X8.425Y-2.1
X8.425Y-2.2
X8.425Y-2.3
X8.425Y-2.4
X8.425Y-2.5
X8.425Y-2.6
X8.425Y-2.7
X8.425Y-2.8
X8.425Y-2.9
X8.525Y-2.0
X8.525Y-2.1
X8.525Y-2.2
X8.525Y-2.3
X8.525Y-2.4
X8.525Y-2.5
X8.525Y-2.6
X8.525Y-2.7
X8.525Y-2.8
X8.525Y-2.9
X8.625Y-2.0
X8.625Y-2.1
X8.625Y-2.2
X8.625Y-2.3
X8.625Y-2.4
X8.625Y-2.5
X8.625Y-2.6
X8.625Y-2.7
X8.625Y-2.8
X8.625Y-2.9
X8.725Y-2.0
X8.725Y-2.1
X8.725Y-2.2
X8.725Y-2.3
X8.725Y-2.4
X8.725Y-2.5
X8.725Y-2.6
X8.725Y-2.7
X8.725Y-2.8
X8.725Y-2.9
X8.825Y-2.0
X8.825Y-2.1
X8.825Y-2.2
X8.825Y-2.3
X8.825Y-2.4
X8.825Y-2.5
X8.825Y-2.6
X8.825Y-2.7
X8.825Y-2.8
X8.825Y-2.9
X8.925Y-2.0
X8.925Y-2.1
X8.925Y-2.2
X8.925Y-2.3
X8.925Y-2.4
X8.925Y-2.5
X8.925Y-2.6
X8.925Y-2.7
X8.925Y-2.8
X8.925Y-2.9
X9.025Y-2.0
X9.025Y-2.1
X9.025Y-2.2
X9.025Y-2.3
X9.025Y-2.4
X9.025Y-2.5
X9.025Y-2.6
X9.025Y-2.7
X9.025Y-2.8
X9.025Y-2.9
X9.125Y-2.0
X9.125Y-2.1
X9.125Y-2.2
X9.125Y-2.3
X9.125Y-2.4
X9.125Y-2.5
X9.125Y-2.6
X9.125Y-2.7
X9.125Y-2.8
X9.125Y-2.9
X9.225Y-2.0
X9.225Y-2.1
X9.225Y-2.2
X9.225Y-2.3
X9.225Y-2.4
X9.225Y-2.5
X9.225Y-2.6
X9.225Y-2.7
X9.225Y-2.8
X9.225Y-2.9
T8
X3.125Y-6.225
X3.525Y-6.225
X4.08Y-6.04
X4.48Y-6.04
X4.775Y-7.625
X4.775Y-7.775
X6.377Y-6.6
X6.377Y-6.75
X8.45Y-4.775
X8.85Y-4.775
T9
X2.925Y-5.7864
X3.025Y-5.7864
X3.125Y-5.7864
T10
X2.246Y-6.0
X2.246Y-6.15
X2.246Y-6.3
X2.246Y-6.45
X2.246Y-6.6
X2.246Y-6.75
X2.246Y-6.9
X2.246Y-7.05
X9.75Y-3.4481
X9.75Y-3.5981
X9.75Y-3.7481
X9.75Y-3.8981
X9.75Y-4.0481
X9.75Y-4.1981
X9.75Y-4.3481
X9.75Y-4.4981
X9.75Y-5.5
X9.75Y-5.65
X9.75Y-5.8
X9.75Y-5.95
X9.75Y-6.1
X9.75Y-6.25
X9.75Y-6.4
X9.75Y-6.55
X9.75Y-6.7
T11
X2.13Y-5.345
X2.18Y-3.445
X4.18Y-4.045
X4.18Y-5.145
X5.13Y-3.445
X5.38Y-5.345
T12
X2.225Y-2.025
X2.225Y-8.075
X9.775Y-2.025
X9.775Y-8.075
T0
M30
