<?xml version="1.0" encoding="iso-8859-1"?>
<!-- Generator: Adobe Illustrator 23.0.0, SVG Export Plug-In . SVG Version: 6.00 Build 0)  -->
<svg version="1.1" id="&#x56FE;&#x5C42;_1" xmlns="http://www.w3.org/2000/svg" xmlns:xlink="http://www.w3.org/1999/xlink" x="0px"
	 y="0px" width="16px" height="16px" viewBox="0 0 16 16" style="enable-background:new 0 0 16 16;" xml:space="preserve">
<rect style="fill:none;" width="16" height="16"/>
<g>
	<path d="M2.253,4.498c0.25,0,0.51-0.04,0.77-0.14c1.01-0.36,1.589-1.369,1.449-2.389l1.479-0.54L8.89,3.488l0.584,0.405
		c0.267,0.185,0.607,0.229,0.912,0.117l0.663-0.242l0.82-0.3c0.41,0.64,1.119,1.03,1.879,1.03c0.26,0,0.52-0.04,0.77-0.14
		c1.169-0.42,1.769-1.709,1.349-2.879C15.526,0.57,14.667,0,13.747,0c-0.25,0-0.51,0.04-0.77,0.14
		c-1.01,0.36-1.589,1.369-1.449,2.389l-1.479,0.54L7.11,1.01L6.527,0.605C6.26,0.42,5.919,0.376,5.614,0.487L4.951,0.73l-0.82,0.3
		C3.722,0.39,3.012,0,2.253,0c-0.26,0-0.52,0.04-0.77,0.14C0.314,0.56-0.286,1.849,0.134,3.018C0.474,3.928,1.333,4.498,2.253,4.498
		z M13.317,1.079c0.14-0.06,0.29-0.08,0.43-0.08c0.52,0,1,0.33,1.179,0.82c0.23,0.65-0.1,1.369-0.75,1.599
		c-0.14,0.05-0.28,0.08-0.43,0.08c-0.52,0-0.99-0.33-1.169-0.82C12.338,2.029,12.678,1.309,13.317,1.079z M1.823,1.079
		C1.963,1.029,2.103,1,2.253,1c0.52,0,0.99,0.33,1.169,0.82c0.24,0.65-0.1,1.369-0.74,1.599c-0.14,0.06-0.29,0.08-0.43,0.08
		c-0.52,0-1-0.33-1.179-0.82C0.844,2.029,1.173,1.309,1.823,1.079z"/>
	<path d="M13.747,5.751c-0.25,0-0.51,0.04-0.77,0.14c-1.01,0.36-1.589,1.369-1.449,2.389l-1.479,0.54L7.11,6.761L6.527,6.356
		C6.26,6.171,5.919,6.127,5.614,6.239L4.951,6.481l-0.82,0.3c-0.41-0.64-1.119-1.029-1.879-1.029c-0.26,0-0.52,0.04-0.77,0.14
		C0.314,6.311-0.286,7.6,0.134,8.77c0.34,0.91,1.199,1.479,2.119,1.479c0.25,0,0.51-0.04,0.77-0.14
		c1.01-0.36,1.589-1.369,1.449-2.389l1.479-0.54L8.89,9.239l0.584,0.405c0.267,0.185,0.607,0.229,0.912,0.117l0.663-0.242l0.82-0.3
		c0.41,0.64,1.119,1.03,1.879,1.03c0.26,0,0.52-0.04,0.77-0.14c1.169-0.42,1.769-1.709,1.349-2.879
		C15.526,6.321,14.667,5.751,13.747,5.751z M2.683,9.169c-0.14,0.06-0.29,0.08-0.43,0.08c-0.52,0-1-0.33-1.179-0.82
		c-0.23-0.65,0.1-1.369,0.75-1.599c0.14-0.05,0.28-0.08,0.43-0.08c0.52,0,0.99,0.33,1.169,0.82C3.662,8.22,3.322,8.94,2.683,9.169z
		 M14.177,9.169c-0.14,0.05-0.28,0.08-0.43,0.08c-0.52,0-0.99-0.33-1.169-0.82c-0.24-0.65,0.1-1.369,0.74-1.599
		c0.14-0.06,0.29-0.08,0.43-0.08c0.52,0,1,0.33,1.179,0.82C15.156,8.22,14.827,8.94,14.177,9.169z"/>
	<g>
		<path d="M1.973,12.062c-0.285,0-0.54,0.175-0.643,0.44L0,15.917h0.847l0.436-1.154h1.332l0.46,1.154h0.871l-1.329-3.415
			C2.513,12.237,2.257,12.062,1.973,12.062z M1.501,14.123l0.436-1.195l0.46,1.195H1.501z"/>
		<path d="M7.468,12.062c-0.221,0-0.4,0.179-0.4,0.4v1.847c0.016,0.756-0.283,1.12-0.895,1.092c-0.63,0.028-0.936-0.336-0.92-1.092
			v-1.847c0-0.221-0.179-0.4-0.4-0.4s-0.4,0.179-0.4,0.4v1.909c-0.033,1.113,0.541,1.656,1.719,1.628
			c1.145,0.014,1.711-0.529,1.695-1.628v-1.909C7.867,12.241,7.688,12.062,7.468,12.062z"/>
		<path d="M14.209,12c-1.211,0.014-1.815,0.585-1.815,1.711v0.618c0,1.113,0.605,1.67,1.815,1.67c1.194,0,1.791-0.557,1.791-1.67
			v-0.618C15.984,12.598,15.387,12.028,14.209,12z M15.201,14.329c0,0.715-0.331,1.072-0.992,1.072
			c-0.662,0-0.992-0.357-0.992-1.072v-0.618c0-0.728,0.33-1.085,0.992-1.072c0.661-0.013,0.992,0.344,0.992,1.072V14.329z"/>
		<path d="M11.615,12.06H8.79c-0.175,0-0.315,0.145-0.315,0.32c0,0.18,0.14,0.32,0.315,0.32h1.015v2.815c0,0.221,0.179,0.4,0.4,0.4
			c0.221,0,0.4-0.179,0.4-0.4V12.7h1.01c0.175,0,0.32-0.14,0.32-0.32C11.935,12.205,11.79,12.06,11.615,12.06z"/>
	</g>
</g>
</svg>
